<svg width="128" height="128" viewBox="0 0 128 128" fill="none" xmlns="http://www.w3.org/2000/svg">
<path d="M92.53 124H35.47C28.47 124 22.75 118.28 22.75 111.28V16.72C22.75 9.72 28.47 4 35.47 4H92.53C99.53 4 105.25 9.72 105.25 16.72V111.28C105.25 118.28 99.53 124 92.53 124Z" fill="url(#paint0_linear_427_925)"/>
<path d="M87.8414 124H40.1614C32.7514 124 26.6914 117.94 26.6914 110.53V17.47C26.6814 10.06 32.7514 4 40.1614 4H87.8514C95.2614 4 101.321 10.06 101.321 17.47V110.52C101.321 117.94 95.2514 124 87.8414 124Z" fill="#BDBDBD"/>
<path d="M64.0697 115.19H63.9297C61.7297 115.19 59.9297 113.39 59.9297 111.19V16.8096C59.9297 14.6096 61.7297 12.8096 63.9297 12.8096H64.0697C66.2697 12.8096 68.0697 14.6096 68.0697 16.8096V111.18C68.0697 113.39 66.2697 115.19 64.0697 115.19Z" fill="#212121"/>
<path d="M63.9991 12.8096C63.5791 12.8096 63.1791 12.8896 62.7891 13.0096C64.4391 13.5096 65.6491 14.9896 65.6491 16.7496V111.25C65.6491 113.01 64.4391 114.49 62.7891 114.99C63.1691 115.11 63.5691 115.19 63.9991 115.19C66.2391 115.19 68.0691 113.42 68.0691 111.25V16.7496C68.0691 14.5896 66.2391 12.8096 63.9991 12.8096Z" fill="#E0E0E0"/>
<path d="M36.6016 111.71H54.4616M73.5416 16.29H91.4016H73.5416ZM73.5416 25.83H91.4016H73.5416ZM73.5416 35.37H91.4016H73.5416ZM73.5416 44.92H91.4016H73.5416ZM73.5416 54.46H91.4016H73.5416ZM73.5416 64H91.4016H73.5416ZM73.5416 73.54H91.4016H73.5416ZM73.5416 83.08H91.4016H73.5416ZM73.5416 92.63H91.4016H73.5416ZM73.5416 102.17H91.4016H73.5416ZM73.5416 111.71H91.4016H73.5416ZM36.6016 16.29H54.4616H36.6016ZM36.6016 25.83H54.4616H36.6016ZM36.6016 35.37H54.4616H36.6016ZM36.6016 44.92H54.4616H36.6016ZM36.6016 54.46H54.4616H36.6016ZM36.6016 64H54.4616H36.6016ZM36.6016 73.54H54.4616H36.6016ZM36.6016 83.08H54.4616H36.6016ZM36.6016 92.63H54.4616H36.6016ZM36.6016 102.17H54.4616H36.6016Z" stroke="#424242" stroke-width="2" stroke-miterlimit="10" stroke-linecap="round" stroke-linejoin="round"/>
<path opacity="0.26" d="M76.3308 53.4903H57.4708C54.7508 53.4903 52.5508 51.2903 52.5508 48.5703V46.4503C52.5508 43.7303 54.7508 41.5303 57.4708 41.5303H76.3308C79.0508 41.5303 81.2508 43.7303 81.2508 46.4503V48.5703C81.2508 51.2803 79.0508 53.4903 76.3308 53.4903Z" fill="black"/>
<path d="M73.3308 50.4102H54.4708C51.7508 50.4102 49.5508 48.2102 49.5508 45.4902V43.3702C49.5508 40.6502 51.7508 38.4502 54.4708 38.4502H73.3308C76.0508 38.4502 78.2508 40.6502 78.2508 43.3702V45.4902C78.2508 48.2102 76.0508 50.4102 73.3308 50.4102Z" fill="black"/>
<path d="M59.3985 43.6299H53.7085C51.8585 43.6299 51.1385 41.2399 52.6785 40.2099C53.3785 39.7399 54.3485 39.4199 55.6785 39.4199H65.0885C65.4685 39.4199 65.6185 39.9099 65.2985 40.1199C62.9785 41.7199 62.8785 43.6299 59.3985 43.6299Z" fill="#455A64"/>
<defs>
<linearGradient id="paint0_linear_427_925" x1="22.748" y1="64" x2="105.252" y2="64" gradientUnits="userSpaceOnUse">
<stop stop-color="#EEEEEE"/>
<stop offset="1" stop-color="#757575"/>
</linearGradient>
</defs>
</svg>
