<svg width="128" height="128" viewBox="0 0 128 128" fill="none" xmlns="http://www.w3.org/2000/svg">
<path d="M42.1698 20.59C33.5398 20.62 13.6398 33.83 6.69979 64C-0.240214 94.17 7.02979 112.53 29.2198 114.25C50.9898 115.94 57.4598 100.69 58.4398 95.44C61.3198 80.09 58.6898 54.56 55.6898 40.67C52.6898 26.78 50.7598 20.56 42.1698 20.59Z" fill="#FEA8A7"/>
<path d="M73.2888 92.9897C74.4788 98.1597 74.2888 102.46 76.8088 106.93C79.9088 112.42 84.6988 113.26 84.6988 113.26L80.4688 89.6097L70.7588 79.4697L69.2188 82.0197C69.2088 82.0297 72.2088 88.3097 73.2888 92.9897Z" fill="#FED0B0"/>
<path d="M86.489 21.4601C95.019 21.4201 114.679 34.6001 121.539 64.5101C128.399 94.4301 121.219 112.64 99.289 114.34C92.289 114.88 86.899 114.64 82.769 112.55C78.879 109.17 80.289 101.49 78.479 93.2501C77.609 89.2701 73.319 84.4501 69.219 81.9401C68.979 67.9101 70.959 51.5101 73.149 41.3601C76.109 27.6001 78.209 21.5001 86.489 21.4601Z" fill="#FEA8A7"/>
<path d="M8.03906 58.8897C8.03906 58.8897 13.7391 67.2297 29.9691 71.1797C46.1991 75.1297 59.5491 72.8697 59.5491 72.8697C59.5491 72.8697 58.6491 56.7997 57.1691 48.7397C55.6891 40.6797 40.8591 34.0097 37.9491 33.9097C35.0391 33.8097 20.8491 34.2697 20.8491 34.2697C20.8491 34.2697 16.4991 39.4497 13.7591 44.7597C10.8291 50.4597 8.03906 58.8897 8.03906 58.8897Z" fill="url(#paint0_linear_440_503)"/>
<path d="M4.55859 76.5298C4.55859 76.5298 13.1686 85.9098 17.5886 92.5798C22.0086 99.2498 30.7986 114.31 30.7986 114.31C30.7986 114.31 40.8586 115.31 48.5386 110.06C53.4186 106.71 56.8786 104.63 58.6286 94.3998C60.3786 84.1698 39.8286 78.9598 36.5386 78.8698C33.2586 78.7798 17.6286 70.1198 15.5586 67.8298C13.4886 65.5398 7.47859 61.0898 7.47859 61.0898C7.47859 61.0898 6.16859 66.2298 5.84859 67.9298C5.53859 69.6198 4.55859 76.5298 4.55859 76.5298Z" fill="url(#paint1_linear_440_503)"/>
<path d="M80.4482 108.47C80.4482 108.47 86.9382 108.24 100.928 97.7301C114.918 87.2201 122.698 70.1701 122.698 70.1701C122.698 70.1701 121.548 64.4401 121.138 62.8701C120.738 61.3001 100.358 63.8401 95.1082 65.6301C89.8482 67.4101 69.4282 72.1101 69.4282 72.1101C69.4282 72.1101 69.1882 81.6001 69.2082 82.0301C69.4682 82.0501 76.1282 87.4401 77.4182 90.6601C79.1982 95.1001 79.3082 100 79.4482 102.19C79.6382 105.07 80.4482 108.47 80.4482 108.47Z" fill="url(#paint2_linear_440_503)"/>
<path d="M21.2394 54.8402C20.2094 54.0902 18.7094 52.5902 19.5494 51.5602C20.3894 50.5302 22.6494 51.9402 23.7694 52.7802C24.8994 53.6202 26.8694 55.2202 26.8694 55.2202L35.4094 54.1902C35.4094 54.1902 28.3694 48.0902 27.0594 46.9602C25.7494 45.8302 22.9294 43.5802 24.1494 42.2702C25.3694 40.9602 27.6194 43.1102 28.8394 44.2402C30.0594 45.3702 38.2294 51.5602 38.2294 51.5602C38.2294 51.5602 36.4494 45.6502 35.8794 43.8602C35.3194 42.0802 33.7194 38.5102 35.4094 37.8502C37.0994 37.1902 38.1294 40.7602 38.9794 42.7302C39.8194 44.7002 44.7994 56.1502 44.7994 56.1502C44.7994 56.1502 46.6794 58.2602 48.4594 57.2502C50.2394 56.2402 59.6794 46.0102 59.6794 46.0102L59.5494 11.2802C59.5494 11.2802 61.2194 10.6202 63.5694 10.5302C65.9194 10.4402 67.9794 11.2802 67.9794 11.2802L68.3594 46.1902C68.3594 46.1902 77.3694 56.8902 79.3394 57.2602C81.3094 57.6302 82.9094 58.0102 83.8394 57.2602C84.7794 56.5102 91.0694 46.1902 91.6294 44.4002C92.1894 42.6202 90.3194 37.3602 91.6294 36.6102C92.9394 35.8602 93.7894 38.0202 94.2594 39.6102C94.7294 41.2102 95.2894 42.8902 95.2894 42.8902C95.2894 42.8902 97.3494 42.4202 98.5694 42.0502C99.7894 41.6702 101.389 41.6702 101.569 42.6102C101.759 43.5502 98.6594 45.1402 97.2494 46.0802C95.8394 47.0202 93.5894 47.7702 93.9694 49.2702C94.3494 50.7702 97.3494 50.3002 99.4094 50.4002C101.469 50.4902 102.789 50.7802 102.789 51.9002C102.789 53.0302 99.5994 53.5602 97.0594 53.6702C94.5294 53.7802 91.1494 53.6702 91.1494 53.6702C91.1494 53.6702 89.2694 56.8002 89.2694 57.6802C89.2694 58.5602 94.5294 59.2202 97.6194 59.7802C100.719 60.3402 107.759 60.7802 107.659 62.3902C107.569 64.0002 105.159 63.8202 103.529 63.9602C101.899 64.1002 97.8394 63.0702 97.8994 63.9602C97.9594 64.8502 101.649 68.3202 100.149 69.2602C98.6494 70.2002 96.4894 67.0102 95.0794 65.6002C93.6694 64.1902 92.7294 63.3502 92.7294 63.3502C92.7294 63.3502 80.5594 63.4902 80.4594 64.0002C80.3694 64.5102 88.1594 74.6502 89.5594 75.1202C90.9694 75.5902 97.8194 76.8102 100.259 77.1802C102.699 77.5602 105.139 78.3102 104.949 79.4802C104.759 80.6502 101.849 80.5602 99.8794 80.5602H94.5294C94.5294 80.5602 101.009 86.3002 102.409 87.9302C103.809 89.5602 109.449 94.1602 107.669 95.4802C105.889 96.7902 98.4294 89.3002 96.6694 87.9302C94.9094 86.5602 90.6794 83.3702 90.3094 83.7402C89.9394 84.1102 92.9394 89.0902 93.5894 90.3102C94.2394 91.5302 96.9994 95.4702 94.9694 96.3602C93.3894 97.0502 88.9994 89.0002 88.4294 89.0002C87.8694 89.0002 87.5894 97.2602 86.1794 96.8802C84.7694 96.5002 84.6794 93.6002 84.4894 88.5302C84.2994 83.4602 85.3294 80.6502 84.2094 79.4702C83.0794 78.3002 78.4794 70.3202 76.6994 68.9102C74.9194 67.5002 63.9994 57.2802 63.9994 57.2802C63.9994 57.2802 52.6794 67.4202 50.3394 69.3002C47.9894 71.1802 43.4894 74.8402 43.0194 75.7802C42.5494 76.7202 41.8894 79.8202 41.9894 80.9402C42.0794 82.0702 45.0894 89.1102 45.6494 90.2302C46.2094 91.3602 48.0894 95.4902 46.5894 95.9602C45.0894 96.4302 43.2094 92.3902 42.4594 91.1702C41.7094 89.9502 39.8294 86.7602 39.8294 86.7602C39.8294 86.7602 38.1394 94.2602 37.3894 96.3802C36.6394 98.4902 34.9494 105.06 33.0694 103.84C31.1894 102.62 32.1294 99.6102 33.0694 96.3802C34.0094 93.1502 34.7594 90.5202 34.6694 90.1402C34.5794 89.7602 28.1894 93.3302 26.9694 94.1802C25.7494 95.0202 22.2794 97.1802 21.4294 95.6802C20.5894 94.1802 24.4294 91.7402 25.8394 90.8002C27.2494 89.8602 36.1594 84.2302 36.1594 84.2302C36.1594 84.2302 36.2494 83.2002 36.8194 80.5702C37.3894 77.9402 37.5694 76.3502 37.5694 76.3502L31.7394 76.6302C31.7394 76.6302 28.2794 79.9102 27.3394 80.9502C26.3994 81.9802 24.2394 84.7002 23.3994 83.3002C22.5594 81.8902 26.3994 77.6702 26.3994 77.6702C26.3994 77.6702 23.5794 77.4802 22.1794 77.5802C20.7694 77.6702 19.0794 77.7702 18.9894 76.4502C18.8994 75.1402 24.0594 74.0702 26.5894 73.5202C29.1194 72.9702 37.8494 71.1002 37.8494 71.1002L45.4494 64.0202C45.4494 64.0202 40.1894 58.5202 39.3494 58.4302C38.5094 58.3402 28.3694 58.9902 28.3694 58.9902C28.3694 58.9902 26.3094 60.8702 25.3694 61.8102C24.4294 62.7502 22.8394 65.1102 21.6194 64.0202C20.3994 62.9302 21.8094 61.4302 22.5594 60.4002L24.1594 57.6902" fill="#FEE5C3"/>
<path d="M48.4609 57.2599C50.2409 56.25 59.6809 46.02 59.6809 46.02L59.5509 8.28995C59.5509 8.28995 61.2209 7.62995 63.5709 7.53995C65.9209 7.44995 67.9809 8.28995 67.9809 8.28995L68.3609 46.2C68.3609 46.2 77.3709 56.9 79.3409 57.27C81.3109 57.6399 80.5609 63.48 80.4709 63.99C80.3809 64.5 78.5009 70.32 76.7209 68.91C74.9409 67.5 64.0009 57.2799 64.0009 57.2799C64.0009 57.2799 52.6809 67.42 50.3409 69.3C47.9909 71.18 45.4609 64 45.4609 64C45.4609 64 46.6809 58.2699 48.4609 57.2599Z" fill="url(#paint3_linear_440_503)"/>
<path d="M58.1485 34.9196C58.1585 37.1696 60.1985 36.9596 63.9985 36.9596C67.7985 36.9596 69.6885 37.1796 69.6985 34.9196C69.7085 32.3196 67.4485 32.8096 63.9285 32.8096C60.3985 32.8096 58.1385 32.4596 58.1485 34.9196ZM58.2285 28.2396C58.2385 30.4896 60.2785 30.2796 64.0785 30.2796C67.8785 30.2796 69.7685 30.4996 69.7785 28.2396C69.7885 25.6396 67.5285 26.1296 64.0085 26.1296C60.4785 26.1196 58.2185 25.7696 58.2285 28.2396ZM58.2285 21.5496C58.2385 23.7996 60.2785 23.5896 64.0785 23.5896C67.8785 23.5896 69.7685 23.8096 69.7785 21.5496C69.7885 18.9496 67.5285 19.4396 64.0085 19.4396C60.4785 19.4396 58.2185 19.0796 58.2285 21.5496ZM58.2285 15.0696C58.2385 17.3196 60.2785 17.1096 64.0785 17.1096C67.8785 17.1096 69.7685 17.3296 69.7785 15.0696C69.7885 12.4696 67.5285 12.9596 64.0085 12.9596C60.4785 12.9596 58.2185 12.6096 58.2285 15.0696Z" fill="#F2A159"/>
<defs>
<linearGradient id="paint0_linear_440_503" x1="38.2841" y1="33.9447" x2="32.9371" y2="71.9837" gradientUnits="userSpaceOnUse">
<stop offset="0.294" stop-color="#FEA8A7"/>
<stop offset="0.548" stop-color="#FEA4A2"/>
<stop offset="0.827" stop-color="#FE9895"/>
</linearGradient>
<linearGradient id="paint1_linear_440_503" x1="43.7336" y1="72.5908" x2="15.5996" y2="96.1988" gradientUnits="userSpaceOnUse">
<stop offset="0.404" stop-color="#FEA8A7"/>
<stop offset="0.609" stop-color="#FEA3A1"/>
<stop offset="0.824" stop-color="#FE9895"/>
</linearGradient>
<linearGradient id="paint2_linear_440_503" x1="85.2972" y1="61.8071" x2="106.484" y2="94.4321" gradientUnits="userSpaceOnUse">
<stop offset="0.352" stop-color="#FEA8A7"/>
<stop offset="0.794" stop-color="#FE9B99"/>
<stop offset="0.893" stop-color="#FE9895"/>
</linearGradient>
<linearGradient id="paint3_linear_440_503" x1="63.0709" y1="7.53695" x2="63.0709" y2="69.609" gradientUnits="userSpaceOnUse">
<stop offset="0.31" stop-color="#FED3B3"/>
<stop offset="0.647" stop-color="#FED5B5"/>
<stop offset="0.769" stop-color="#FEDCBB"/>
<stop offset="0.841" stop-color="#FEE5C3"/>
</linearGradient>
</defs>
</svg>
