<svg width="128" height="128" viewBox="0 0 128 128" fill="none" xmlns="http://www.w3.org/2000/svg">
<g clip-path="url(#clip0_427_934)">
<path d="M65.8202 111.42L52.4402 111.96C47.9102 111.86 46.4302 110.51 44.8202 106.43L41.4102 97.8299L47.6902 96.5199L50.6402 103.97C50.7946 104.364 51.0708 104.699 51.4287 104.926C51.7866 105.153 52.2075 105.259 52.6302 105.23L63.1302 104.47C66.0602 104.16 66.5402 102.47 65.9102 100.88L62.7502 92.9099L70.7302 90.1299L74.2002 98.8999C75.2902 101.66 76.0302 104.72 74.7702 107.21C73.3202 110.08 71.0002 111.2 65.8202 111.42Z" fill="#82AEC0"/>
<path d="M41.6289 98.3801L43.4489 102.97C43.4489 102.97 44.1589 101.91 46.4689 101.71C49.0989 101.48 50.1289 102.67 50.1289 102.67L48.2589 97.9501L41.6289 98.3801ZM64.3489 96.9201L73.1989 96.3301C74.3989 98.9201 74.9289 100.96 74.9289 100.96C74.9289 100.96 73.0789 99.4101 69.6389 99.6401C67.1789 99.8001 66.1489 101.51 66.1489 101.51L64.3489 96.9201Z" fill="#2F7889"/>
<path d="M21.9406 102.886C27.019 100.875 28.1769 91.7727 24.5268 82.5557C20.8768 73.3386 13.801 67.4969 8.72258 69.508C3.64419 71.5191 2.48629 80.6213 6.13634 89.8384C9.78639 99.0555 16.8622 104.897 21.9406 102.886Z" fill="#B8DADE"/>
<path d="M26.5789 94.5004C24.6189 93.0204 19.3089 97.0804 19.3089 97.0804C18.6289 101.83 13.3789 100.46 13.3789 100.46C16.2689 102.9 19.3589 103.9 21.9389 102.88C24.6789 101.8 26.2689 98.6304 26.5789 94.5004Z" fill="#82AEC0"/>
<path d="M80.9599 14.5898L13.3699 69.6198C10.6899 71.4598 9.41992 78.8398 12.7399 87.2198C16.0599 95.5998 22.1399 100.46 25.3199 99.3998L112.18 93.4598C121.61 89.7298 122.26 69.0398 113.64 47.2598C105.02 25.4798 90.3899 10.8598 80.9599 14.5898Z" fill="#F44336"/>
<path d="M95.1691 80.52C98.3591 85.23 93.2591 85.44 72.7491 88.86C67.1391 89.8 19.3091 97.09 19.3091 97.09C20.5991 98.28 23.1791 100.13 25.3791 99.42C25.3791 99.42 110.589 94.1 112.189 93.47L95.1691 80.52ZM73.3891 27.74C74.7891 26.73 76.7991 25.17 77.2791 22.47C77.5291 21.06 77.7091 19.45 78.0391 18.76C78.6891 17.39 81.1791 14.25 81.1791 14.25L13.3791 69.62C11.5491 70.87 11.2891 72.96 11.2891 72.96C21.6691 65.18 63.0691 35.21 73.3891 27.74Z" fill="#C62828"/>
<path d="M116.946 94.1106C126.229 90.4341 126.375 68.8176 117.272 45.8288C108.168 22.84 93.2617 7.18423 83.9779 10.8607C74.694 14.5372 74.548 36.1537 83.6518 59.1425C92.7556 82.1313 107.662 97.7871 116.946 94.1106Z" fill="#B8DADE"/>
<path d="M116.297 86.1679C122.387 83.7562 121.2 66.3369 113.646 47.2609C106.092 28.1848 95.0309 14.6757 88.9409 17.0874C82.8509 19.4991 84.038 36.9183 91.5923 55.9943C99.1466 75.0704 110.207 88.5795 116.297 86.1679Z" fill="#2F7889"/>
<path d="M116.302 86.1698C122.392 83.7598 121.202 66.3398 113.652 47.2598L91.6016 55.9998C99.1516 75.0698 110.212 88.5798 116.302 86.1698Z" fill="url(#paint0_linear_427_934)"/>
<path d="M79.7084 37.6396C78.4184 31.9596 78.5284 26.7796 79.3484 22.7296C79.5784 21.6296 80.3384 20.3096 81.4684 20.4396C82.5884 20.5696 82.9184 21.6296 82.7884 22.7496C82.3484 26.5696 82.6884 31.8296 83.7084 36.8196C83.9384 37.9296 83.9184 39.3796 82.3484 39.9396C80.9884 40.4396 79.9384 38.6396 79.7084 37.6396Z" fill="white"/>
<path opacity="0.45" d="M15.0006 75.47L70.7306 37.95C72.4306 36.82 74.5406 34.95 74.9606 38.71C75.2206 41.05 75.5206 43.07 75.3106 46.11C75.1806 48 71.4706 49.46 70.3106 50.05L14.9306 78.84C14.0906 79.2599 12.5306 79.65 12.7906 78.14C13.0806 76.51 14.5506 75.77 15.0006 75.47Z" fill="#FFCA28"/>
</g>
<defs>
<linearGradient id="paint0_linear_427_934" x1="115.71" y1="83.0588" x2="103.152" y2="52.9198" gradientUnits="userSpaceOnUse">
<stop stop-color="#353738"/>
<stop offset="1" stop-color="#353738" stop-opacity="0"/>
</linearGradient>
<clipPath id="clip0_427_934">
<rect width="128" height="128" fill="white"/>
</clipPath>
</defs>
</svg>
