<svg width="128" height="128" viewBox="0 0 128 128" fill="none" xmlns="http://www.w3.org/2000/svg">
<path d="M110.28 61.3203L112.91 70.1603C112.91 70.1603 120.15 68.5603 120.53 73.3603C120.91 78.1603 113.76 81.3603 113.76 81.3603L116.02 91.9903C116.02 91.9903 123.92 85.5903 124.02 76.3803C124.02 76.3803 124.68 65.0903 117.91 62.4603C113.67 60.8503 110.28 61.3203 110.28 61.3203ZM68.7095 94.9903C68.7095 94.9903 57.6095 90.2903 52.2495 96.9703C51.4995 97.9103 50.8395 98.8503 50.0895 99.7903C49.5295 100.54 48.9595 101.29 48.3995 101.95C47.9295 102.51 47.3695 103.08 46.7095 103.45C46.0495 103.83 45.3895 104.11 44.6395 104.3C43.6995 104.49 42.7595 104.49 41.8195 104.39C40.4995 104.3 39.1895 104.01 37.8695 103.73C37.3995 103.64 37.0195 103.54 36.6495 103.45C36.5595 103.45 36.4595 103.36 36.3695 103.36C36.2795 103.36 36.1795 103.27 36.0895 103.27C35.7095 103.36 36.2795 104.02 36.4695 104.21C36.7495 104.49 37.0295 104.87 37.3195 105.15C38.1695 105.9 39.0095 106.65 40.0495 107.13C41.3695 107.79 42.7795 108.16 44.1895 108.26C44.2795 108.26 44.5695 108.26 44.6595 108.35C44.8495 108.54 44.3795 108.82 44.1895 108.91C43.9095 109.1 43.7195 109.19 43.4395 109.29C42.5895 109.67 41.6495 109.85 40.8095 110.04C39.9595 110.23 39.1195 110.32 38.3595 110.32C37.8895 110.32 37.5095 110.41 37.1395 110.41C36.8595 110.41 36.5795 110.32 36.2895 110.41C35.9995 110.5 36.3795 110.88 36.5695 110.97C36.9495 111.16 37.3195 111.44 37.6995 111.63C38.8295 112.19 39.9595 112.66 41.0895 112.95C42.5895 113.33 44.1895 113.51 45.6995 113.33C47.0195 113.14 48.3295 112.77 49.5595 112.3C56.3295 109.2 55.7695 102.71 61.9795 102.14C66.5895 101.76 73.0795 104.21 73.0795 104.21L68.7095 94.9903ZM19.7895 38.2803C19.7895 38.2803 7.6595 40.2603 4.5495 51.0703C0.609503 64.9003 20.2595 69.5003 20.2595 69.5003L21.4795 60.0903C21.4795 60.0903 8.4095 58.7703 9.1595 53.7903C10.0995 47.5803 21.0095 48.1503 21.0095 48.1503L19.7895 38.2803ZM20.7295 70.9203C20.7295 70.9203 18.8495 71.4803 16.1195 73.4603C14.2395 74.7803 11.6995 76.4703 9.2495 79.3903C8.0295 80.8003 7.0895 82.4903 6.4295 84.2803C5.9595 85.5003 5.7695 86.7303 5.7695 88.0403V88.8903C5.7695 88.9803 5.7695 89.7403 6.0495 89.5503C6.1395 89.4603 6.2395 89.1703 6.3295 89.0803C6.5195 88.6103 6.7995 88.2303 7.0795 87.8603C7.9295 86.7303 8.9595 85.7003 10.0895 84.8503C10.4695 84.5703 10.8395 84.3803 11.2195 84.1903C11.4995 83.9103 11.9695 83.5303 12.1595 83.9103C12.2495 84.1003 12.0695 84.3803 11.9695 84.5703C11.8795 84.8503 11.7795 85.2303 11.7795 85.5103C11.3995 87.0103 11.2195 88.5203 11.0295 90.0203C10.9395 90.8703 10.9395 91.7103 11.0295 92.4703C11.0295 92.8503 11.1195 93.3203 11.1195 93.6903C11.1195 93.8803 11.2095 94.0703 11.2095 94.2503C11.2095 94.4403 11.3995 94.7203 11.5895 94.4403C11.6795 94.3503 11.6795 94.2503 11.7795 94.0603C11.9695 93.7803 12.0595 93.4003 12.2495 93.1203C12.7195 92.2703 13.1895 91.4303 13.7495 90.4903C14.4095 89.3603 15.1595 88.3303 15.9095 87.3903C16.7595 86.2603 17.7895 85.1303 18.8295 84.1903C19.9595 83.1603 21.1795 82.1203 22.4995 81.2703C23.2495 80.8003 24.0995 80.3303 24.9495 79.9503L20.7295 70.9203Z" fill="#F45125"/>
<path d="M116.401 79.2899C115.271 73.7399 113.671 68.2799 111.891 62.8299C110.391 58.2199 108.791 53.5199 106.061 49.4699C104.841 47.6799 103.051 46.4599 100.791 45.6099C96.4609 43.9199 90.8209 43.6299 87.0609 43.6299C81.4209 43.6299 75.5809 44.8499 70.3209 47.2999C68.4409 52.9399 63.2709 67.2399 55.4609 73.6399C55.9309 76.2699 56.4909 78.9999 57.2509 81.6399C58.5709 86.2499 60.2609 90.8599 61.8609 95.4699C63.3609 99.8899 65.1509 104.31 68.4409 107.7C69.2909 108.64 70.3209 109.39 71.2609 110.15C73.5209 112.03 76.2509 113.16 78.9709 114.1C81.5109 114.95 84.1409 115.6 86.7809 116.17C91.4809 117.2 98.2609 118.99 102.861 116.83C105.401 115.7 107.471 113.91 109.161 111.75C110.951 109.49 112.361 106.95 113.581 104.32C115.461 100.37 117.441 95.9499 117.721 91.4299C117.991 87.3799 117.241 83.2399 116.401 79.2899Z" fill="#FCC21B"/>
<path d="M77.6417 33.57C77.3617 32.54 76.6117 31.5 76.0417 30.56C69.7417 19.55 56.0017 14.29 43.7817 15.04C40.0217 15.32 34.4717 15.89 30.2417 17.77C28.1717 18.71 26.3817 20.12 25.2517 21.91C22.7117 26.14 21.4917 30.85 20.1717 35.55C18.6717 41 17.3517 46.55 16.5017 52.2C15.7517 57.09 15.0917 62.45 16.4117 67.34C17.4417 71.2 19.7017 76.56 22.1517 79.66C24.8817 83.05 28.7317 87 32.8717 88.5C33.6217 88.78 34.4717 88.97 35.3217 89.16C36.9217 89.44 38.6117 89.63 40.2117 89.35C41.1517 89.16 42.1917 89.07 43.1317 88.79C45.0117 88.32 46.8017 87.66 48.5917 87C56.1117 83.99 62.2317 79.57 66.2717 72.42C67.9617 69.32 69.3717 66.02 70.6917 62.73C70.7817 62.54 70.8817 62.35 70.8817 62.17C72.8617 56.71 74.1717 50.98 75.4917 45.33C76.1517 42.6 76.9017 39.78 77.2817 36.96C77.5517 35.92 77.9217 34.7 77.6417 33.57Z" fill="#429ADF"/>
<path d="M23.0909 40.5296C24.7809 37.4296 28.8309 34.9796 32.4009 35.4496C32.9609 35.5396 33.6209 35.6396 34.1909 35.9196C37.7609 37.4196 39.9309 40.9096 39.0809 44.4796C38.8909 45.2296 38.4209 45.3296 37.8609 44.8596C35.8809 43.1696 34.2909 41.8496 31.6509 41.1896C29.4909 40.6296 27.0409 40.9096 24.9709 41.4696C24.5009 41.5596 23.7509 42.0296 23.2809 41.8496C22.6109 41.5696 22.9009 40.9096 23.0909 40.5296ZM62.2109 64.8996C61.1809 66.4996 59.7609 67.9096 58.3509 69.2296C57.9709 69.5096 57.6909 69.8896 57.3209 70.1696C51.6809 74.8696 44.0609 77.2196 36.8109 75.4396C34.8309 74.9696 32.6709 73.9396 31.0709 72.7096C29.8509 71.7696 28.6209 70.5496 27.5909 69.3196C25.7109 67.0596 24.3009 64.4296 23.3609 61.6996C22.8909 60.2896 22.6109 58.9696 22.4209 57.4696C22.4209 56.9996 21.7609 52.0096 23.2709 52.6696C23.6509 52.8596 23.9309 53.1396 24.2109 53.4196C24.4909 53.7996 24.6809 54.1696 24.9609 54.4496C25.6209 55.2996 26.2809 56.1396 27.0309 56.8996C29.3809 59.6296 32.3009 61.7896 35.5909 63.2996C37.8509 64.3296 40.2909 64.8996 42.7409 65.0896C44.1509 65.1796 45.4709 65.2796 46.8809 65.1796C51.9609 64.8996 57.1309 63.3896 61.7409 61.4196C62.1209 61.2296 62.5909 60.9496 63.0609 60.9496C64.6609 61.0396 62.5009 64.5196 62.2109 64.8996ZM67.5809 51.1596C67.5809 51.6296 67.3909 52.2896 66.8309 52.1896C66.3609 52.0996 65.9809 51.2496 65.7009 50.9696C64.3809 49.2796 61.8409 47.3996 59.3009 46.8296C56.2909 46.0796 54.0309 47.3896 51.0209 47.6796C50.1709 47.7696 49.7009 47.3996 50.0809 46.6496C51.6809 43.1696 55.9109 40.4396 60.3309 41.1896C61.0809 41.2796 61.7409 41.4696 62.4009 41.7496C66.2609 43.3596 67.8609 47.5896 67.5809 51.1596Z" fill="#193D51"/>
<path d="M91.8381 63.8603C96.0681 66.5903 101.528 67.3403 106.418 67.0603C107.828 66.9703 108.678 67.1503 108.298 68.7503C107.548 72.0403 104.438 73.9203 101.428 74.5803C100.678 74.7703 99.9281 74.7703 99.1681 74.7703C97.7581 74.6803 96.3481 74.1103 95.1281 73.2703C92.4981 71.4803 90.5181 68.3803 89.9581 65.2703C89.6781 63.6703 90.2481 62.8303 91.8381 63.8603ZM65.2181 80.7903C63.9981 79.5703 64.6581 79.0003 65.9781 78.2503C70.4881 75.9003 75.0081 72.3203 77.3581 67.6203C78.2081 65.8303 79.1481 66.2103 79.8081 67.9003C80.9381 71.0003 80.8381 74.7703 79.4281 77.7803C78.7681 79.1903 77.8281 80.4103 76.6081 81.3503C75.9481 81.8203 75.2881 82.1003 74.5381 82.3803C71.4281 83.3303 67.5781 83.2403 65.2181 80.7903ZM109.998 96.4103C109.618 96.4103 109.058 96.0303 108.588 95.7503C108.118 95.4703 107.648 95.0903 107.368 94.9003C106.238 94.3403 104.918 93.7703 103.698 93.4003C99.9381 92.1803 95.7981 92.1803 92.1281 93.4003C89.4981 94.2503 86.9581 95.8503 84.8881 97.7303C82.6281 99.8903 80.9381 102.53 78.7781 104.78C78.4981 105.06 78.2181 105.34 77.9281 105.53C77.3681 105.81 76.7981 105.44 76.6081 104.87C75.6681 100.92 78.2981 95.3703 80.2781 91.9803C82.5381 88.2203 85.8281 85.2103 90.0581 83.9803C92.1281 83.3203 94.3881 83.3203 96.5481 83.6003C102.848 84.5403 109.338 89.5303 110.568 95.2603C110.558 95.7503 110.468 96.5003 109.998 96.4103Z" fill="#9B7515"/>
</svg>
