<svg width="128" height="128" viewBox="0 0 128 128" fill="none" xmlns="http://www.w3.org/2000/svg">
<path d="M63.6016 118.8C35.7016 118.8 5.60156 101.3 5.60156 62.9C5.60156 24.5 35.7016 7 63.6016 7C79.1016 7 93.4016 12.1 104.002 21.4C115.502 31.6 121.602 46 121.602 62.9C121.602 79.8 115.502 94.1 104.002 104.3C93.4016 113.6 79.0016 118.8 63.6016 118.8Z" fill="url(#paint0_radial_427_914)"/>
<path d="M111.492 29.6699C116.822 38.2699 119.602 48.5099 119.602 59.8999C119.602 76.7999 113.502 91.0999 102.002 101.3C91.4019 110.6 77.0019 115.8 61.6019 115.8C43.5419 115.8 24.6019 108.45 13.4219 92.8599C24.1819 110.52 44.4219 118.8 63.6019 118.8C79.0019 118.8 93.4019 113.6 104.002 104.3C115.502 94.0999 121.602 79.7999 121.602 62.8999C121.602 50.1599 118.132 38.8399 111.492 29.6699Z" fill="#EB8F00"/>
<path d="M82.5611 71.1896C92.1929 71.1896 100.001 63.3814 100.001 53.7496C100.001 44.1177 92.1929 36.3096 82.5611 36.3096C72.9292 36.3096 65.1211 44.1177 65.1211 53.7496C65.1211 63.3814 72.9292 71.1896 82.5611 71.1896Z" fill="white"/>
<path d="M83.3081 61.3504C87.4392 61.3504 90.7881 57.9478 90.7881 53.7504C90.7881 49.553 87.4392 46.1504 83.3081 46.1504C79.177 46.1504 75.8281 49.553 75.8281 53.7504C75.8281 57.9478 79.177 61.3504 83.3081 61.3504Z" fill="#422B0D"/>
<path d="M52.5594 56.8899L52.4094 56.6399C52.2394 56.3699 52.0594 56.0999 51.8694 55.8499C51.2115 54.9806 50.4895 54.1616 49.7094 53.3999C48.6468 52.3772 47.5213 51.422 46.3394 50.5399C45.6894 50.0799 45.0194 49.5399 44.3394 49.1399C43.6594 48.7399 42.9394 48.2599 42.1594 47.8099C41.3794 47.3599 40.6894 47.0099 39.9394 46.6399C39.1894 46.2699 38.4294 45.9399 37.6994 45.6399C36.3394 45.0699 34.9394 44.5899 33.5094 44.2099C32.4594 43.9299 31.3894 43.7299 30.3094 43.6199C29.9794 43.5799 29.6394 43.5599 29.3094 43.5599H28.9994C28.6763 43.5545 28.3553 43.6128 28.0548 43.7315C27.7542 43.8502 27.48 44.027 27.2478 44.2518C27.0157 44.4765 26.8301 44.7448 26.7016 45.0413C26.5732 45.3379 26.5045 45.6568 26.4994 45.9799C26.4794 47.0499 27.1594 48.0099 28.1694 48.3499L28.4294 48.4399L29.2994 48.7199C29.8694 48.9099 30.6894 49.2199 31.7094 49.6399C32.7294 50.0599 33.8994 50.6399 35.1594 51.2399L37.0894 52.2399C37.7494 52.5799 38.3694 52.9299 39.0894 53.3499L39.4994 53.5799C39.0494 53.5799 38.5994 53.6599 38.1494 53.7199C37.6994 53.7799 37.3894 53.8399 36.8894 53.9399C36.3894 54.0399 35.9794 54.1299 35.5694 54.2299C34.7394 54.4399 33.9194 54.6999 33.1194 54.9999C31.6694 55.5399 30.2894 56.2499 28.9994 57.1099C28.4694 57.4699 27.9694 57.8599 27.4994 58.2899C27.1194 58.6199 26.7694 58.9699 26.4394 59.3499C26.2094 59.5999 25.9994 59.8599 25.8094 60.1299L25.5994 60.4099C24.8394 61.5299 25.1294 63.0599 26.2494 63.8299C27.0794 64.3899 28.1694 64.3999 28.9994 63.8399L29.2694 63.6299L29.4394 63.4999L29.9394 63.1499C30.5794 62.7199 31.2494 62.3399 31.9394 62.0099C32.9594 61.5199 34.0194 61.1199 35.0994 60.7999C35.7094 60.6099 36.3494 60.4599 36.9994 60.3099C37.3294 60.2299 37.6494 60.1699 37.9494 60.1199C38.2494 60.0699 38.7394 59.9999 38.9994 59.9999C40.3294 59.8199 41.6594 59.7299 42.9994 59.7399C44.1294 59.7599 45.2594 59.8599 46.3794 60.0399C46.8494 60.1299 47.2894 60.2199 47.6494 60.3199C48.0094 60.4199 48.3594 60.5199 48.5694 60.5799L48.8594 60.6699L49.1694 60.7999L49.4294 60.9199C50.4494 61.3599 51.6494 61.0699 52.3494 60.1999C52.6794 59.7899 52.8694 59.2899 52.8894 58.7699C53.0394 58.1199 52.9194 57.4499 52.5594 56.8899Z" fill="#422B0D"/>
<path d="M62.8216 80.4298C51.3216 80.4898 39.8416 79.5298 28.5116 77.5398C27.598 77.367 26.6532 77.5637 25.8845 78.0868C25.1158 78.6099 24.5861 79.4166 24.4116 80.3298C24.3316 80.7698 24.3316 81.2298 24.4116 81.6698C27.6716 97.6698 43.4116 110.8 62.8116 110.8C84.0216 110.8 98.2916 97.2298 101.262 81.6098C101.602 79.6998 100.342 77.8798 98.4316 77.5298C98.0116 77.4498 97.5716 77.4598 97.1516 77.5398C85.8175 79.5266 74.3282 80.4938 62.8216 80.4298Z" fill="#422B0D"/>
<path d="M65.5383 85.0004H61.5483C55.8183 85.0004 50.1683 84.7304 44.7383 84.2804V108.85C44.7483 118.32 52.4383 126 61.9083 126H65.1783C74.6583 126 82.3483 118.31 82.3483 108.83V84.1504C76.9283 84.6404 71.2883 84.9304 65.5383 85.0004Z" fill="#FF4081"/>
<path opacity="0.3" d="M63.5509 106.25C64.6509 106.25 65.5509 105.35 65.5509 104.25V85H61.5509V104.24C61.5409 105.34 62.4409 106.24 63.5409 106.25H63.5509Z" fill="#AB3F2E"/>
<path opacity="0.3" d="M65.5405 85.0004H61.5405C55.8105 85.0004 50.1605 84.7304 44.7305 84.2804V87.8304C49.4705 88.9004 63.5305 91.3104 82.3405 87.6104V84.1504C76.9305 84.6404 71.2905 84.9304 65.5405 85.0004Z" fill="#AB3F2E"/>
<defs>
<radialGradient id="paint0_radial_427_914" cx="0" cy="0" r="1" gradientUnits="userSpaceOnUse" gradientTransform="translate(63.6016 62.9) scale(56.96 56.96)">
<stop offset="0.5" stop-color="#FDE030"/>
<stop offset="0.92" stop-color="#F7C02B"/>
<stop offset="1" stop-color="#F4A223"/>
</radialGradient>
</defs>
</svg>
