<svg width="104" height="106" viewBox="0 0 104 106" fill="none" xmlns="http://www.w3.org/2000/svg">
<path d="M83.655 56.8342H21.9979C15.3534 56.8342 9.91406 62.0845 9.91406 68.5108C9.91406 74.9288 15.3534 80.1874 21.9979 80.1874H83.655C90.2995 80.1874 95.7388 74.937 95.7388 68.5108C95.7471 62.0845 90.3077 56.8342 83.655 56.8342Z" fill="#E59600"/>
<path d="M85.644 27.1459C77.7119 15.0388 67.4852 10.8981 52.6281 10.8981C37.771 10.8981 27.5443 15.0305 19.6122 27.1459C13.8014 36.0234 12.3983 49.9774 14.1894 64.3536C15.9145 78.175 17.3424 85.7606 25.8935 93.5036C33.3221 100.228 43.4084 101.677 52.0586 101.677H53.1976C61.8478 101.677 71.9424 100.228 79.3627 93.5036C87.9138 85.7606 89.3418 78.175 91.0668 64.3536C92.8579 49.9774 91.4548 36.0152 85.644 27.1459Z" fill="#FFCA28"/>
<path d="M64.9167 28.471C65.0323 28.3467 65.1478 28.2308 65.2634 28.1066C65.3459 28.0155 65.4285 27.9161 65.511 27.825C65.7008 27.6014 65.8824 27.3778 66.0558 27.146L66.13 27.0466C66.2951 26.823 66.4437 26.5911 66.5923 26.351C66.6335 26.2847 66.6748 26.2102 66.7161 26.1439C66.8564 25.9038 66.9967 25.6636 67.1288 25.4069C67.1535 25.3655 67.17 25.3324 67.1866 25.291C67.5002 24.6699 67.7726 23.9991 67.9954 23.2952L68.0202 23.2206C68.4742 21.7549 68.7383 20.1235 68.7383 18.285C68.7383 14.6081 67.4177 11.7014 65.4037 9.50689C65.3789 9.48204 65.3624 9.46548 65.3459 9.44064C65.1891 9.27501 65.024 9.10939 64.8589 8.94376L64.7599 8.84439C64.5678 8.66109 64.3696 8.48432 64.1656 8.31439C64.0005 8.17361 63.8354 8.04111 63.6704 7.90861C63.6291 7.87548 63.5878 7.85064 63.5548 7.81751L63.01 7.42001C62.977 7.40345 62.9523 7.37861 62.9193 7.36204C62.2589 6.91486 61.5739 6.51736 60.864 6.17783C60.8392 6.16126 60.8062 6.15298 60.7815 6.13642C60.5751 6.03704 60.3688 5.94595 60.1624 5.85486L59.9726 5.77204C59.791 5.69751 59.6094 5.62298 59.4278 5.55673C59.3618 5.53189 59.2875 5.50704 59.2215 5.4822C59.0481 5.41595 58.8748 5.35798 58.7097 5.30001L58.4869 5.22548C58.3135 5.16751 58.1485 5.11783 57.9751 5.06814C57.9008 5.04329 57.8266 5.02673 57.744 5.00189C57.5707 4.9522 57.3973 4.91079 57.224 4.86939L57.0094 4.8197C56.8196 4.77829 56.6297 4.73689 56.4481 4.69548C56.3904 4.6872 56.3326 4.67064 56.2748 4.66236C55.7878 4.5547 55.3008 4.48017 54.8139 4.4222C54.7478 4.41392 54.6818 4.41392 54.6158 4.40564C54.4424 4.38908 54.2773 4.37251 54.104 4.36423C54.005 4.35595 53.9142 4.35595 53.8151 4.34767C53.6748 4.33939 53.5427 4.33111 53.4107 4.33111C53.3034 4.33111 53.1961 4.32283 53.0805 4.32283C53.0062 4.32283 52.932 4.31454 52.8659 4.31454H52.7834C52.4285 4.31454 52.0735 4.33111 51.7269 4.35595C51.6608 4.36423 51.5948 4.36423 51.5288 4.37251C51.1739 4.40564 50.8272 4.43876 50.497 4.49673C46.4443 5.15923 43.1675 7.29579 41.1205 9.38267C39.8907 10.6331 39.1066 11.867 38.8672 12.7531H38.8754C41.5002 12.0824 44.8926 11.4944 48.6729 11.2956C53.7904 10.9395 58.0659 13.8628 57.8596 18.3513C57.8348 18.8895 57.7688 19.3947 57.678 19.8667L57.6532 20.0075C57.6119 20.1897 57.5624 20.3719 57.5129 20.5458C57.4881 20.6286 57.4634 20.7114 57.4469 20.7859C57.3973 20.935 57.3478 21.0841 57.29 21.2331C57.257 21.3242 57.2158 21.4153 57.1745 21.5064C57.1167 21.6389 57.0589 21.7631 57.0012 21.8791C56.9516 21.9785 56.9021 22.0695 56.8443 22.1606C56.7866 22.2683 56.7205 22.376 56.6545 22.4753C56.5885 22.5747 56.5142 22.6741 56.4481 22.7735C56.3904 22.8563 56.3326 22.9391 56.2666 23.0219C56.1593 23.1544 56.0437 23.2786 55.9281 23.3945C55.8951 23.4277 55.8621 23.4691 55.8291 23.5022C55.6723 23.6595 55.5072 23.8003 55.3339 23.9411C55.3008 23.966 55.2596 23.9908 55.2266 24.0156C55.0861 24.1252 54.94 24.2275 54.7891 24.322C54.7396 24.3469 54.6983 24.38 54.6488 24.4049C54.5002 24.4959 54.3516 24.5788 54.2031 24.6533C54.1535 24.6781 54.1123 24.703 54.0627 24.7195C53.9059 24.7941 53.7408 24.8686 53.5675 24.9349C53.5345 24.9514 53.4932 24.968 53.452 24.9763C53.2621 25.0508 53.0723 25.117 52.8742 25.175C52.8577 25.1833 52.8412 25.1833 52.8246 25.1916C51.9332 25.4566 50.9758 25.5725 50.0018 25.5725C47.0634 25.5725 44.0177 24.4794 42.2678 22.9142C42.1232 22.7822 41.9351 22.7085 41.7396 22.7072C41.6983 22.7072 41.657 22.7238 41.624 22.732C41.591 22.7403 41.5497 22.7403 41.5167 22.7569C41.4672 22.7735 41.4177 22.79 41.3681 22.8149C41.2856 22.8563 41.2196 22.906 41.1535 22.9639C41.137 22.9805 41.1288 22.997 41.1123 23.0136C41.0545 23.0799 41.005 23.1627 40.9637 23.2455C40.9554 23.262 40.9554 23.2703 40.9472 23.2869C40.9059 23.3945 40.8812 23.5188 40.8977 23.6513C41.1453 26.1522 42.7135 29.2825 46.4443 31.6344C49.9935 33.8786 57.4634 33.9035 62.7789 30.2514L62.9275 30.152C63.0843 30.0361 63.2494 29.9202 63.4062 29.8042C63.4723 29.7545 63.5466 29.6966 63.6126 29.6386C63.8437 29.4564 64.0666 29.266 64.2812 29.0672L64.6031 28.7691C64.7186 28.678 64.8177 28.5703 64.9167 28.471Z" fill="#543930"/>
<path d="M64.9167 28.471C65.0323 28.3467 65.1478 28.2308 65.2634 28.1066C65.3459 28.0155 65.4285 27.9161 65.511 27.825C65.7008 27.6014 65.8824 27.3778 66.0558 27.146L66.13 27.0466C66.2951 26.823 66.4437 26.5911 66.5923 26.351C66.6335 26.2847 66.6748 26.2102 66.7161 26.1439C66.8564 25.9038 66.9967 25.6636 67.1288 25.4069C67.1535 25.3655 67.17 25.3324 67.1866 25.291C67.5002 24.6699 67.7726 23.9991 67.9954 23.2952L68.0202 23.2206C68.4742 21.7549 68.7383 20.1235 68.7383 18.285C68.7383 14.6081 67.4177 11.7014 65.4037 9.50689C65.3789 9.48204 65.3624 9.46548 65.3459 9.44064C65.1891 9.27501 65.024 9.10939 64.8589 8.94376L64.7599 8.84439C64.5678 8.66109 64.3696 8.48432 64.1656 8.31439C64.0005 8.17361 63.8354 8.04111 63.6704 7.90861C63.6291 7.87548 63.5878 7.85064 63.5548 7.81751L63.01 7.42001C62.977 7.40345 62.9523 7.37861 62.9193 7.36204C62.2589 6.91486 61.5739 6.51736 60.864 6.17783C60.8392 6.16126 60.8062 6.15298 60.7815 6.13642C60.5751 6.03704 60.3688 5.94595 60.1624 5.85486L59.9726 5.77204C59.791 5.69751 59.6094 5.62298 59.4278 5.55673C59.3618 5.53189 59.2875 5.50704 59.2215 5.4822C59.0481 5.41595 58.8748 5.35798 58.7097 5.30001L58.4869 5.22548C58.3135 5.16751 58.1485 5.11783 57.9751 5.06814C57.9008 5.04329 57.8266 5.02673 57.744 5.00189C57.5707 4.9522 57.3973 4.91079 57.224 4.86939L57.0094 4.8197C56.8196 4.77829 56.6297 4.73689 56.4481 4.69548C56.3904 4.6872 56.3326 4.67064 56.2748 4.66236C55.7878 4.5547 55.3008 4.48017 54.8139 4.4222C54.7478 4.41392 54.6818 4.41392 54.6158 4.40564C54.4424 4.38908 54.2773 4.37251 54.104 4.36423C54.005 4.35595 53.9142 4.35595 53.8151 4.34767C53.6748 4.33939 53.5427 4.33111 53.4107 4.33111C53.3034 4.33111 53.1961 4.32283 53.0805 4.32283C53.0062 4.32283 52.932 4.31454 52.8659 4.31454H52.7834C52.4285 4.31454 52.0735 4.33111 51.7269 4.35595C51.6608 4.36423 51.5948 4.36423 51.5288 4.37251C51.1739 4.40564 50.8272 4.43876 50.497 4.49673C46.4443 5.15923 43.1675 7.29579 41.1205 9.38267C39.8907 10.6331 39.1066 11.867 38.8672 12.7531H38.8754C41.5002 12.0824 44.8926 11.4944 48.6729 11.2956C53.7904 10.9395 58.0659 13.8628 57.8596 18.3513C57.8348 18.8895 57.7688 19.3947 57.678 19.8667L57.6532 20.0075C57.6119 20.1897 57.5624 20.3719 57.5129 20.5458C57.4881 20.6286 57.4634 20.7114 57.4469 20.7859C57.3973 20.935 57.3478 21.0841 57.29 21.2331C57.257 21.3242 57.2158 21.4153 57.1745 21.5064C57.1167 21.6389 57.0589 21.7631 57.0012 21.8791C56.9516 21.9785 56.9021 22.0695 56.8443 22.1606C56.7866 22.2683 56.7205 22.376 56.6545 22.4753C56.5885 22.5747 56.5142 22.6741 56.4481 22.7735C56.3904 22.8563 56.3326 22.9391 56.2666 23.0219C56.1593 23.1544 56.0437 23.2786 55.9281 23.3945C55.8951 23.4277 55.8621 23.4691 55.8291 23.5022C55.6723 23.6595 55.5072 23.8003 55.3339 23.9411C55.3008 23.966 55.2596 23.9908 55.2266 24.0156C55.0861 24.1252 54.94 24.2275 54.7891 24.322C54.7396 24.3469 54.6983 24.38 54.6488 24.4049C54.5002 24.4959 54.3516 24.5788 54.2031 24.6533C54.1535 24.6781 54.1123 24.703 54.0627 24.7195C53.9059 24.7941 53.7408 24.8686 53.5675 24.9349C53.5345 24.9514 53.4932 24.968 53.452 24.9763C53.2621 25.0508 53.0723 25.117 52.8742 25.175C52.8577 25.1833 52.8412 25.1833 52.8246 25.1916C51.9332 25.4566 50.9758 25.5725 50.0018 25.5725C47.0634 25.5725 44.0177 24.4794 42.2678 22.9142C42.1232 22.7822 41.9351 22.7085 41.7396 22.7072C41.6983 22.7072 41.657 22.7238 41.624 22.732C41.591 22.7403 41.5497 22.7403 41.5167 22.7569C41.4672 22.7735 41.4177 22.79 41.3681 22.8149C41.2856 22.8563 41.2196 22.906 41.1535 22.9639C41.137 22.9805 41.1288 22.997 41.1123 23.0136C41.0545 23.0799 41.005 23.1627 40.9637 23.2455C40.9554 23.262 40.9554 23.2703 40.9472 23.2869C40.9059 23.3945 40.8812 23.5188 40.8977 23.6513C41.1453 26.1522 42.7135 29.2825 46.4443 31.6344C49.9935 33.8786 57.4634 33.9035 62.7789 30.2514L62.9275 30.152C63.0843 30.0361 63.2494 29.9202 63.4062 29.8042C63.4723 29.7545 63.5466 29.6966 63.6126 29.6386C63.8437 29.4564 64.0666 29.266 64.2812 29.0672L64.6031 28.7691C64.7186 28.678 64.8177 28.5703 64.9167 28.471Z" fill="url(#paint0_radial_447_494)"/>
<path d="M57.1268 68.4942C57.0158 68.4484 56.8992 68.4178 56.7801 68.4031H49.1039C48.9884 68.4196 48.8728 68.4445 48.7573 68.4942C48.0639 68.7757 47.676 69.5045 48.0062 70.2664C48.3363 71.0365 49.8633 73.1979 52.942 73.1979C56.0208 73.1979 57.5477 71.0365 57.8779 70.2664C58.1998 69.4962 57.8201 68.7757 57.1268 68.4942Z" fill="#E59600"/>
<path d="M34.8876 69.2561C37.8416 69.2561 40.2362 66.7683 40.2362 63.6994C40.2362 60.6305 37.8416 58.1427 34.8876 58.1427C31.9337 58.1427 29.5391 60.6305 29.5391 63.6994C29.5391 66.7683 31.9337 69.2561 34.8876 69.2561Z" fill="#404040"/>
<path d="M70.9736 69.2561C73.9275 69.2561 76.3221 66.7683 76.3221 63.6994C76.3221 60.6305 73.9275 58.1427 70.9736 58.1427C68.0196 58.1427 65.625 60.6305 65.625 63.6994C65.625 66.7683 68.0196 69.2561 70.9736 69.2561Z" fill="#404040"/>
<path d="M60.632 80.03C57.6605 81.8022 47.9209 81.8022 44.9577 80.03C43.2491 79.0114 41.5075 80.5683 42.2174 82.1252C42.9107 83.6572 48.2262 87.2016 52.8237 87.2016C57.4129 87.2016 62.6624 83.6572 63.3558 82.1252C64.0574 80.5683 62.3323 79.0114 60.632 80.03Z" fill="#795548"/>
<defs>
<radialGradient id="paint0_radial_447_494" cx="0" cy="0" r="1" gradientUnits="userSpaceOnUse" gradientTransform="translate(52.3525 33.2053) scale(29.3305 29.4274)">
<stop offset="0.699" stop-color="#6D4C41" stop-opacity="0"/>
<stop offset="1" stop-color="#6D4C41"/>
</radialGradient>
</defs>
</svg>
