<svg width="128" height="128" viewBox="0 0 128 128" fill="none" xmlns="http://www.w3.org/2000/svg">
<path d="M63.6016 118.8C35.7016 118.8 5.60156 101.3 5.60156 62.9C5.60156 24.5 35.7016 7 63.6016 7C79.1016 7 93.4016 12.1 104.002 21.4C115.502 31.6 121.602 46 121.602 62.9C121.602 79.8 115.502 94.1 104.002 104.3C93.4016 113.6 79.0016 118.8 63.6016 118.8Z" fill="url(#paint0_radial_419_773)"/>
<path d="M111.492 29.67C116.822 38.27 119.602 48.51 119.602 59.9C119.602 76.8 113.502 91.1 102.002 101.3C91.4019 110.6 77.0019 115.8 61.6019 115.8C43.5419 115.8 24.5619 108.45 13.4219 92.86C24.1819 110.52 44.4119 118.8 63.6019 118.8C79.0019 118.8 93.4019 113.6 104.002 104.3C115.502 94.1001 121.602 79.8 121.602 62.9C121.602 50.16 118.132 38.84 111.492 29.67Z" fill="#EB8F00"/>
<path d="M74.3009 24.4999C75.2009 23.6999 76.1009 22.9999 77.1009 22.2999C78.1009 21.5999 79.2009 21.0999 80.2009 20.4999C82.4009 19.4999 84.8009 18.4999 87.7009 18.3999C88.4009 18.2999 89.1009 18.4999 89.9009 18.4999C90.6009 18.4999 91.4009 18.7999 92.1009 18.9999C92.3009 19.0999 92.5009 19.0999 92.6009 19.1999L93.1009 19.4999L94.1009 19.9999C94.7009 20.3999 95.3009 20.8999 95.9009 21.3999C97.0009 22.3999 97.7009 23.6999 98.3009 24.8999C98.6009 25.4999 98.8009 26.0999 99.0009 26.6999C99.2009 27.2999 99.3009 27.8999 99.4009 28.2999L99.5009 28.5999C99.7009 29.7999 98.9009 30.9999 97.7009 31.1999C96.7009 31.3999 95.8009 30.8999 95.3009 30.0999C95.0009 29.4999 94.7009 28.9999 94.5009 28.5999C94.3009 28.1999 94.0009 27.7999 93.8009 27.3999C93.3009 26.6999 92.7009 26.0999 92.1009 25.5999C92.0009 25.4999 91.8009 25.3999 91.6009 25.2999C91.4009 25.1999 91.3009 25.0999 91.2009 24.9999C91.0009 24.8999 90.9009 24.8999 90.7009 24.7999L90.5009 24.6999H90.2009C89.5009 24.4999 88.8009 24.3999 88.0009 24.4999C86.4009 24.4999 84.5009 25.0999 82.6009 25.7999C81.7009 26.1999 80.7009 26.5999 79.8009 26.9999C78.9009 27.4999 77.9009 27.8999 76.9009 28.2999L76.7009 28.3999C75.5009 28.8999 74.2009 28.2999 73.8009 27.1999C73.3009 26.1999 73.6009 25.0999 74.3009 24.4999ZM45.6009 38.4999C44.8009 38.6999 44.3009 38.7999 43.6009 38.7999C43.0009 38.7999 42.3009 38.8999 41.7009 38.7999C40.4009 38.7999 39.1009 38.5999 37.9009 38.1999C35.9009 37.6999 33.9009 37.4 32.2009 37.4C31.4009 37.4 30.6009 37.4999 30.0009 37.6999C29.4009 37.9 28.9009 38.1999 28.4009 38.6999C27.4009 39.6999 26.4009 41.4999 25.4009 43.2999C24.8009 44.3999 23.4009 44.7999 22.3009 44.1999C21.4009 43.6999 21.0009 42.6999 21.1009 41.7999C21.3009 40.6999 21.6009 39.4999 22.0009 38.2999C22.5009 37.0999 23.0009 35.9 24.0009 34.6999C25.0009 33.4999 26.3009 32.4999 27.8009 31.9999C29.3009 31.4999 30.7009 31.2999 32.1009 31.2999C34.8009 31.3999 37.1009 32.0999 39.3009 32.9C40.2009 33.2 41.1009 33.4999 42.0009 33.6999C42.5009 33.7999 42.9009 33.9 43.4009 33.9C43.8009 33.9 44.4009 33.9999 44.7009 33.9999H45.1009C46.3009 33.9999 47.3009 35.0999 47.2009 36.2999C47.3009 37.4999 46.6009 38.2999 45.6009 38.4999ZM44.0009 91.2999C45.8009 89.2999 50.6009 86.9999 57.3009 87.0999C66.2009 87.2999 71.0009 91.2999 71.0009 91.2999C73.9009 93.7 72.6009 97.3999 69.5009 97.0999C64.5009 96.4999 64.8009 95.5999 55.8009 95.3999C49.3009 95.2999 46.2009 96.2999 45.9009 96.2999C44.1009 96.3999 43.4009 95.6999 43.1009 94.4999C42.8009 93.4999 43.1009 92.2 44.0009 91.2999ZM82.3009 43.7999C86.7009 43.7999 90.7009 47.5 90.7009 53.7C90.7009 59.9 86.7009 63.5999 82.3009 63.5999C77.9009 63.5999 73.9009 59.9 73.9009 53.7C73.9009 47.5 77.9009 43.7999 82.3009 43.7999ZM37.2009 45.4999C33.0009 45.4999 29.2009 49 29.2009 54.9C29.2009 60.8 33.0009 64.3 37.2009 64.3C41.4009 64.3 45.2009 60.8 45.2009 54.9C45.2009 49 41.4009 45.4999 37.2009 45.4999Z" fill="#422B0D"/>
<path d="M81.3704 48.35C80.3404 47.63 78.7904 47.86 77.7904 49.3C76.7904 50.75 77.1204 52.27 78.1504 52.99C79.1804 53.71 80.7304 53.48 81.7304 52.04C82.7404 50.59 82.4004 49.06 81.3704 48.35Z" fill="#896024"/>
<path d="M106.498 49.9H100.898V58.9H106.498C109.198 58.9 111.898 57.2 111.898 54.6V54.2C111.898 51.5 109.198 49.9 106.498 49.9ZM105.998 57.6C104.098 57.6 102.598 56.1 102.598 54.3C102.598 52.5 104.098 51 105.998 51C107.898 51 109.398 52.5 109.398 54.3C109.398 56.1 107.898 57.6 105.998 57.6ZM106.098 70.8C105.798 70.8 105.498 70.6 105.498 70.3V65.7C105.498 65.4 105.698 65.2 105.998 65.2H106.098C106.398 65.2 106.598 65.4 106.598 65.7V70.3C106.598 70.5 106.398 70.8 106.098 70.8ZM106.098 78.4C105.798 78.4 105.498 78.2 105.498 77.9V73.3C105.498 73 105.698 72.8 105.998 72.8H106.098C106.398 72.8 106.598 73 106.598 73.3V77.9C106.598 78.2 106.398 78.4 106.098 78.4ZM106.098 86.1C105.798 86.1 105.498 85.9 105.498 85.6V81C105.498 80.7 105.698 80.5 105.998 80.5H106.098C106.398 80.5 106.598 80.7 106.598 81V85.6C106.598 85.9 106.398 86.1 106.098 86.1ZM106.098 93.8C105.798 93.8 105.498 93.6 105.498 93.3V88.7C105.498 88.4 105.698 88.2 105.998 88.2H106.098C106.398 88.2 106.598 88.4 106.598 88.7V93.3C106.598 93.6 106.398 93.8 106.098 93.8ZM106.098 101.5C105.798 101.5 105.498 101.3 105.498 101V96.4C105.498 96.1 105.698 95.9 105.998 95.9H106.098C106.398 95.9 106.598 96.1 106.598 96.4V101C106.598 101.3 106.398 101.5 106.098 101.5ZM106.098 109.2C105.798 109.2 105.498 109 105.498 108.7V104.1C105.498 103.8 105.698 103.6 105.998 103.6H106.098C106.398 103.6 106.598 103.8 106.598 104.1V108.7C106.598 109 106.398 109.2 106.098 109.2ZM106.098 116.9C105.798 116.9 105.498 116.7 105.498 116.4V111.8C105.498 111.5 105.698 111.3 105.998 111.3H106.098C106.398 111.3 106.598 111.5 106.598 111.8V116.4C106.598 116.7 106.398 116.9 106.098 116.9Z" fill="#404040"/>
<path d="M106.1 62.7C105.8 62.7 105.5 62.5 105.5 62.2V57.6C105.5 57.3 105.7 57.1 106 57.1H106.1C106.4 57.1 106.6 57.3 106.6 57.6V62.2C106.6 62.4 106.4 62.7 106.1 62.7Z" fill="#404040"/>
<path d="M106.1 66.7C107.536 66.7 108.7 65.5359 108.7 64.1C108.7 62.6641 107.536 61.5 106.1 61.5C104.664 61.5 103.5 62.6641 103.5 64.1C103.5 65.5359 104.664 66.7 106.1 66.7Z" stroke="#404040" stroke-miterlimit="10"/>
<path d="M106.1 74.4C107.536 74.4 108.7 73.2359 108.7 71.8C108.7 70.364 107.536 69.2 106.1 69.2C104.664 69.2 103.5 70.364 103.5 71.8C103.5 73.2359 104.664 74.4 106.1 74.4Z" stroke="#404040" stroke-miterlimit="10"/>
<path d="M106.1 82C107.536 82 108.7 80.836 108.7 79.4C108.7 77.9641 107.536 76.8 106.1 76.8C104.664 76.8 103.5 77.9641 103.5 79.4C103.5 80.836 104.664 82 106.1 82Z" stroke="#404040" stroke-miterlimit="10"/>
<path d="M106.1 89.7C107.536 89.7 108.7 88.5359 108.7 87.1C108.7 85.6641 107.536 84.5 106.1 84.5C104.664 84.5 103.5 85.6641 103.5 87.1C103.5 88.5359 104.664 89.7 106.1 89.7Z" stroke="#404040" stroke-miterlimit="10"/>
<path d="M106.1 97.3C107.536 97.3 108.7 96.1359 108.7 94.7C108.7 93.264 107.536 92.1 106.1 92.1C104.664 92.1 103.5 93.264 103.5 94.7C103.5 96.1359 104.664 97.3 106.1 97.3Z" stroke="#404040" stroke-miterlimit="10"/>
<path d="M106.1 105C107.536 105 108.7 103.836 108.7 102.4C108.7 100.964 107.536 99.8 106.1 99.8C104.664 99.8 103.5 100.964 103.5 102.4C103.5 103.836 104.664 105 106.1 105Z" stroke="#404040" stroke-miterlimit="10"/>
<path d="M106.1 112.6C107.536 112.6 108.7 111.436 108.7 110C108.7 108.564 107.536 107.4 106.1 107.4C104.664 107.4 103.5 108.564 103.5 110C103.5 111.436 104.664 112.6 106.1 112.6Z" stroke="#404040" stroke-miterlimit="10"/>
<path d="M106.1 120.3C107.536 120.3 108.7 119.136 108.7 117.7C108.7 116.264 107.536 115.1 106.1 115.1C104.664 115.1 103.5 116.264 103.5 117.7C103.5 119.136 104.664 120.3 106.1 120.3Z" stroke="#404040" stroke-miterlimit="10"/>
<path d="M79.6 74.3C90.9771 74.3 100.2 65.077 100.2 53.7C100.2 42.3229 90.9771 33.1 79.6 33.1C68.2229 33.1 59 42.3229 59 53.7C59 65.077 68.2229 74.3 79.6 74.3Z" fill="#CCCCCC" fill-opacity="0.5" stroke="#404040" stroke-width="3.5" stroke-miterlimit="10"/>
<path d="M94.7995 52.5C94.3995 48.7 92.6995 45.1999 89.8995 42.7999C87.0995 40.3999 83.4995 39.0999 79.8995 39.0999C76.1995 39.0999 72.5995 40.2999 69.7995 42.5999C66.9995 44.8999 65.1995 48.4 64.8995 52.2C64.8995 52.5 64.5995 52.6999 64.3995 52.5999C64.1995 52.5999 63.9995 52.3999 63.9995 52.0999C63.8995 50.0999 64.2995 47.9999 65.0995 46.0999C65.8995 44.1999 67.0995 42.5 68.5995 41C71.5995 38.1 75.8995 36.7 79.9995 36.7C84.1995 36.7 88.2995 38.3 91.2995 41.2C92.7995 42.7 93.9995 44.3999 94.7995 46.2999C95.5995 48.1999 95.8995 50.2999 95.7995 52.2999C95.7995 52.5999 95.5995 52.7999 95.2995 52.7999C94.9995 52.9 94.7995 52.7 94.7995 52.5Z" fill="white"/>
<path d="M37.011 49.35C35.981 48.63 34.431 48.86 33.431 50.3C32.431 51.74 32.761 53.27 33.791 53.99C34.821 54.71 36.371 54.48 37.371 53.04C38.381 51.59 38.051 50.06 37.011 49.35Z" fill="#896024"/>
<defs>
<radialGradient id="paint0_radial_419_773" cx="0" cy="0" r="1" gradientUnits="userSpaceOnUse" gradientTransform="translate(63.6016 62.9) scale(56.96 56.96)">
<stop offset="0.5" stop-color="#FDE030"/>
<stop offset="0.919" stop-color="#F7C02B"/>
<stop offset="1" stop-color="#F4A223"/>
</radialGradient>
</defs>
</svg>
