<svg width="39" height="39" viewBox="0 0 39 39" fill="none" xmlns="http://www.w3.org/2000/svg">
<path d="M38.5347 11.2785C38.5134 9.67431 38.2131 8.0861 37.6473 6.58487C37.1566 5.31859 36.4072 4.16859 35.447 3.20833C34.4867 2.24807 33.3367 1.49868 32.0704 1.00803C30.5885 0.451737 29.0229 0.15094 27.4403 0.118446C25.4028 0.0273699 24.7568 0.00195312 19.5845 0.00195312C14.4122 0.00195312 13.7492 0.00195327 11.7265 0.118446C10.1446 0.151179 8.5798 0.451972 7.09854 1.00803C5.83207 1.49834 4.68188 2.24761 3.72158 3.20791C2.76128 4.16821 2.01201 5.3184 1.5217 6.58487C0.964295 8.06567 0.66415 9.63087 0.634236 11.2128C0.54316 13.2525 0.515625 13.8985 0.515625 19.0708C0.515625 24.2431 0.515625 24.9039 0.634236 26.9288C0.666007 28.5131 0.964653 30.0762 1.5217 31.561C2.01283 32.8271 2.76266 33.9768 3.72328 34.9367C4.68391 35.8966 5.8342 36.6455 7.10066 37.1357C8.57786 37.7144 10.143 38.0367 11.7286 38.0888C13.7683 38.1799 14.4143 38.2074 19.5866 38.2074C24.7589 38.2074 25.4218 38.2074 27.4446 38.0888C29.0271 38.0577 30.5928 37.7576 32.0746 37.2014C33.3406 36.7101 34.4903 35.9606 35.4505 35.0004C36.4107 34.0402 37.1603 32.8905 37.6515 31.6245C38.2085 30.1419 38.5072 28.5788 38.539 26.9923C38.63 24.9548 38.6576 24.3088 38.6576 19.1343C38.6533 13.9621 38.6533 13.3055 38.5347 11.2785ZM19.5718 28.852C14.1623 28.852 9.78 24.4697 9.78 19.0602C9.78 13.6507 14.1623 9.26845 19.5718 9.26845C22.1687 9.26845 24.6593 10.3001 26.4956 12.1364C28.3319 13.9727 29.3635 16.4633 29.3635 19.0602C29.3635 21.6572 28.3319 24.1477 26.4956 25.984C24.6593 27.8204 22.1687 28.852 19.5718 28.852ZM29.7533 11.1895C29.4533 11.1898 29.1563 11.1309 28.8792 11.0163C28.602 10.9016 28.3502 10.7335 28.1381 10.5214C27.9261 10.3093 27.7579 10.0575 27.6432 9.78036C27.5286 9.50321 27.4697 9.20618 27.47 8.90626C27.47 8.60655 27.529 8.30979 27.6437 8.0329C27.7584 7.75601 27.9265 7.50442 28.1384 7.2925C28.3504 7.08057 28.602 6.91247 28.8788 6.79778C29.1557 6.68308 29.4525 6.62405 29.7522 6.62405C30.0519 6.62405 30.3487 6.68308 30.6256 6.79778C30.9025 6.91247 31.154 7.08057 31.366 7.2925C31.5779 7.50442 31.746 7.75601 31.8607 8.0329C31.9754 8.30979 32.0344 8.60655 32.0344 8.90626C32.0344 10.1686 31.0135 11.1895 29.7533 11.1895Z" fill="#230000"/>
<path d="M19.5715 25.4207C23.0843 25.4207 25.932 22.573 25.932 19.0602C25.932 15.5474 23.0843 12.6997 19.5715 12.6997C16.0586 12.6997 13.2109 15.5474 13.2109 19.0602C13.2109 22.573 16.0586 25.4207 19.5715 25.4207Z" fill="#230000"/>
</svg>
