<svg width="39" height="39" viewBox="0 0 39 39" fill="none" xmlns="http://www.w3.org/2000/svg">
<path d="M38.5347 11.279C38.5134 9.6748 38.2131 8.08658 37.6473 6.58536C37.1566 5.31908 36.4072 4.16908 35.447 3.20882C34.4867 2.24856 33.3367 1.49917 32.0704 1.00852C30.5885 0.452226 29.0229 0.151428 27.4403 0.118935C25.4028 0.0278582 24.7568 0.00244141 19.5845 0.00244141C14.4122 0.00244141 13.7492 0.00244155 11.7265 0.118935C10.1446 0.151667 8.5798 0.452461 7.09854 1.00852C5.83207 1.49883 4.68188 2.2481 3.72158 3.2084C2.76128 4.1687 2.01201 5.31888 1.5217 6.58536C0.964295 8.06616 0.66415 9.63136 0.634236 11.2133C0.54316 13.253 0.515625 13.899 0.515625 19.0713C0.515625 24.2436 0.515625 24.9044 0.634236 26.9293C0.666007 28.5136 0.964653 30.0767 1.5217 31.5615C2.01283 32.8276 2.76266 33.9773 3.72328 34.9372C4.68391 35.8971 5.8342 36.646 7.10066 37.1362C8.57786 37.7148 10.143 38.0372 11.7286 38.0893C13.7683 38.1804 14.4143 38.2079 19.5866 38.2079C24.7589 38.2079 25.4218 38.2079 27.4446 38.0893C29.0271 38.0582 30.5928 37.7581 32.0746 37.2019C33.3406 36.7106 34.4903 35.961 35.4505 35.0009C36.4107 34.0407 37.1603 32.891 37.6515 31.625C38.2085 30.1424 38.5072 28.5792 38.539 26.9928C38.63 24.9553 38.6576 24.3092 38.6576 19.1348C38.6533 13.9625 38.6533 13.3059 38.5347 11.279ZM19.5718 28.8525C14.1623 28.8525 9.78 24.4702 9.78 19.0607C9.78 13.6512 14.1623 9.26893 19.5718 9.26893C22.1687 9.26893 24.6593 10.3006 26.4956 12.1369C28.3319 13.9732 29.3635 16.4638 29.3635 19.0607C29.3635 21.6576 28.3319 24.1482 26.4956 25.9845C24.6593 27.8208 22.1687 28.8525 19.5718 28.8525ZM29.7533 11.19C29.4533 11.1903 29.1563 11.1314 28.8792 11.0168C28.602 10.9021 28.3502 10.734 28.1381 10.5219C27.9261 10.3098 27.7579 10.058 27.6432 9.78084C27.5286 9.5037 27.4697 9.20667 27.47 8.90675C27.47 8.60704 27.529 8.31028 27.6437 8.03339C27.7584 7.7565 27.9265 7.50491 28.1384 7.29298C28.3504 7.08106 28.602 6.91296 28.8788 6.79826C29.1557 6.68357 29.4525 6.62454 29.7522 6.62454C30.0519 6.62454 30.3487 6.68357 30.6256 6.79826C30.9025 6.91296 31.154 7.08106 31.366 7.29298C31.5779 7.50491 31.746 7.7565 31.8607 8.03339C31.9754 8.31028 32.0344 8.60704 32.0344 8.90675C32.0344 10.1691 31.0135 11.19 29.7533 11.19Z" fill="#230000"/>
<path d="M19.5715 25.4212C23.0843 25.4212 25.932 22.5735 25.932 19.0607C25.932 15.5479 23.0843 12.7002 19.5715 12.7002C16.0586 12.7002 13.2109 15.5479 13.2109 19.0607C13.2109 22.5735 16.0586 25.4212 19.5715 25.4212Z" fill="#230000"/>
</svg>
