<svg width="125" height="66" viewBox="0 0 125 66" fill="none" xmlns="http://www.w3.org/2000/svg">
<path d="M42.8589 34.776C42.8281 34.776 42.7357 34.745 42.7049 34.7139C42.6433 34.6829 42.5816 34.6519 42.5816 34.6519C42.4276 34.4967 42.2735 34.3416 42.2119 34.2175C41.8422 33.69 41.6265 33.1315 41.4108 32.573C40.9486 31.1767 40.6405 29.7494 40.3632 28.3221C39.8394 25.9019 38.9767 22.8301 36.6042 21.9613C38.2064 19.6962 39.1308 17.0588 39.8086 14.3283C40.1475 12.9941 38.0524 12.4045 37.7443 13.7698C37.2205 15.9108 36.5734 18.0207 35.4334 19.8824V14.049C35.4334 12.6528 33.2766 12.6528 33.2766 14.049V31.7662C33.2766 33.1005 35.4334 33.1005 35.4334 31.7662V23.9161C37.8059 24.2574 38.1448 28.229 38.5454 30.1217C38.8843 31.5801 39.254 32.9764 39.8394 34.3416C40.3016 35.4276 41.1027 36.5446 42.2735 36.8549C43.6292 37.1962 44.1838 35.1173 42.8589 34.776Z" fill="#5B3006"/>
<path d="M48.4955 26.6776C48.2798 25.9019 47.7868 25.3434 47.1706 24.94C48.9885 23.2645 48.9576 19.8514 48.8652 17.4932C48.8036 15.8177 48.8344 14.049 47.263 13.0251C46.3079 12.4045 45.0138 12.3735 43.9354 12.5597C43.5349 12.6217 43.2884 12.87 43.1959 13.1492C43.0727 13.3044 43.0111 13.5216 43.0111 13.7698V31.3629C43.0111 31.7352 43.1651 31.9834 43.3808 32.1696C43.504 32.3248 43.6889 32.4178 43.9354 32.4799C45.7533 32.7592 47.8484 32.3868 48.5879 30.4631C48.8036 29.8425 48.742 29.0978 48.742 28.4462C48.7112 27.8567 48.6803 27.2361 48.4955 26.6776ZM46.6776 15.9108C46.6776 16.4693 46.7392 17.0588 46.7392 17.6483C46.8009 18.9515 46.8317 20.2857 46.5852 21.5889C46.3695 22.5508 45.9998 23.5437 45.137 23.7609V14.6076C45.476 14.6076 45.7841 14.6696 46.0922 14.7937C46.4619 15.0109 46.6468 15.3522 46.6776 15.9108ZM46.5852 29.7804C46.5236 30.0287 46.4003 30.1217 46.1538 30.2459C46.0306 30.3079 45.5992 30.401 45.5068 30.432C45.3835 30.432 45.2603 30.432 45.137 30.432V26.2432C45.7533 26.4914 46.3387 26.8017 46.4927 27.3602C46.7084 28.0118 46.7392 29.0668 46.5852 29.7804Z" fill="#5B3006"/>
<path d="M58.6009 31.5801L56.8446 13.8008C56.783 13.2423 56.4133 12.7459 55.7662 12.7459H54.2873C53.7635 12.7459 53.4246 13.0872 53.2397 13.5216C51.7916 16.9967 51.1753 20.8442 50.5899 24.5677C50.2202 26.8948 49.9121 29.2219 49.6656 31.5801C49.5423 32.8833 51.6683 32.8833 51.8224 31.5801C51.9764 29.9666 52.1921 28.3221 52.4386 26.6776H55.9819C56.136 28.3221 56.3208 29.9666 56.4749 31.5801C56.5981 32.8833 58.7549 32.8833 58.6009 31.5801ZM52.7467 24.5987C53.2397 21.4958 53.7943 18.2689 54.8419 15.2592C55.15 18.393 55.4581 21.4958 55.7662 24.5987H52.7467Z" fill="#5B3006"/>
<path d="M69.633 30.9595C69.4789 30.7423 69.294 30.5872 69.0167 30.5561C68.9551 30.5561 68.8935 30.5251 68.8319 30.5251H67.9692C67.507 25.0021 67.0756 19.448 66.6135 13.8939C66.5827 13.3354 66.1821 12.8389 65.5659 12.8389H64.3951C63.9329 12.8389 63.5632 13.1803 63.4091 13.6146C62.2383 17.0588 61.7761 20.7822 61.3139 24.3505C61.0674 26.3983 60.8209 28.4772 60.6361 30.5251H60.0815C59.9582 30.5251 59.8658 30.5561 59.7426 30.5872C59.1571 30.6182 58.6333 31.1146 58.849 31.8593C59.188 32.9453 59.5577 34.0623 59.9274 35.2104C60.328 36.4826 62.3307 35.924 61.9302 34.6519C61.7145 33.9693 61.468 33.2866 61.2523 32.604H66.7675C66.4902 32.9763 66.2129 33.3487 65.9664 33.721C65.6275 34.1865 65.874 34.9001 66.3362 35.1483C66.86 35.4586 67.4146 35.2414 67.7535 34.776C68.4005 33.8762 69.0476 32.9764 69.7254 32.1076C69.9719 31.7662 69.8795 31.2698 69.633 30.9595ZM63.3783 24.5366C63.7172 21.8372 64.087 19.0757 64.734 16.4382C65.1345 21.1546 65.5043 25.8398 65.874 30.5251H62.7313C62.8853 28.5393 63.1318 26.5224 63.3783 24.5366Z" fill="#5B3006"/>
<path d="M76.5655 17.8035C76.5039 16.6554 76.4731 15.3212 75.826 14.3283C74.9325 12.932 73.2071 12.6838 71.6973 12.7769C71.5125 12.7769 71.3584 12.8389 71.2352 12.901C70.8962 13.0561 70.6497 13.3664 70.6497 13.8318C70.6497 19.7272 70.6497 25.5916 70.6497 31.487C70.6497 32.8212 72.7449 32.8212 72.7449 31.487C72.7449 29.284 72.7449 27.112 72.7449 24.909C73.392 24.971 74.039 24.94 74.6244 24.6297C75.4255 24.2263 75.8568 23.5127 76.165 22.7059C76.7504 21.2166 76.6271 19.3549 76.5655 17.8035ZM74.3779 21.1856C74.2855 21.682 74.193 22.2405 73.8541 22.6129C73.6076 22.8921 73.1455 22.8611 72.7757 22.799C72.7757 22.799 72.7757 22.799 72.7449 22.799C72.7449 20.1616 72.7449 17.5242 72.7449 14.9178C72.9606 14.9178 73.1763 14.9489 73.3919 15.0109C73.7309 15.104 73.9466 15.3212 74.0698 15.4764C74.2239 15.7246 74.2855 16.0659 74.3471 16.4693C74.3779 16.6865 74.4395 17.276 74.4395 17.6483C74.532 18.8274 74.532 20.0375 74.3779 21.1856Z" fill="#5B3006"/>
<path d="M86.3298 31.5801L84.5736 13.8008C84.5119 13.2423 84.1422 12.7459 83.4952 12.7459H82.0162C81.4924 12.7459 81.1535 13.0872 80.9686 13.5216C79.5205 16.9967 78.9043 20.8442 78.3189 24.5677C77.9491 26.8948 77.641 29.2219 77.3945 31.5801C77.2713 32.8833 79.3973 32.8833 79.5513 31.5801C79.7054 29.9666 79.9211 28.3221 80.1675 26.6776H83.7108C83.8649 28.3221 84.0498 29.9666 84.2038 31.5801C84.3271 32.8833 86.4838 32.8833 86.3298 31.5801ZM80.4757 24.5987C80.9686 21.4958 81.5232 18.2689 82.5708 15.2592C82.8789 18.393 83.187 21.4958 83.4952 24.5987H80.4757Z" fill="#5B3006"/>
<path d="M94.2192 13.1492C92.0624 13.1492 89.8748 13.1492 87.6872 13.1492C86.3623 13.1492 86.3623 15.2592 87.6872 15.2592C88.5191 15.2592 89.3202 15.2592 90.1521 15.2592C90.1521 20.7202 90.1521 26.2122 90.1521 31.6732C90.1521 33.0074 92.2473 33.0074 92.2473 31.6732C92.2473 26.2122 92.2473 20.7202 92.2473 15.2592C92.8943 15.2592 93.5721 15.2592 94.2192 15.2592C95.5749 15.2592 95.5749 13.1492 94.2192 13.1492Z" fill="#5B3006"/>
<path d="M100.168 13.987C100.168 16.5623 100.168 19.1377 100.168 21.713C99.4597 21.7441 98.5662 21.713 97.7959 21.5889C97.7959 19.0446 97.7959 16.5313 97.7959 13.987C97.7959 12.6217 95.7008 12.6217 95.7008 13.987C95.7008 19.8514 95.7008 25.7157 95.7008 31.549C95.7008 32.8833 97.7959 32.8833 97.7959 31.549C97.7959 28.9427 97.7959 26.3363 97.7959 23.7299C98.5662 23.823 99.3673 23.854 100.168 23.823C100.168 26.3983 100.168 28.9737 100.168 31.549C100.168 32.8833 102.264 32.8833 102.264 31.549C102.264 25.7157 102.264 19.8514 102.264 13.987C102.264 12.6217 100.168 12.6217 100.168 13.987Z" fill="#5B3006"/>
<path d="M108.655 13.4285C107.638 16.9657 106.591 20.4719 105.574 24.0091C105.574 20.565 105.574 17.1519 105.574 13.7077C105.574 12.3735 103.509 12.3735 103.509 13.7077C103.509 19.5721 103.509 25.4054 103.509 31.2698C103.509 32.4489 105.204 32.635 105.543 31.549C106.56 28.0118 107.577 24.5056 108.624 20.9684C108.624 24.5056 108.624 28.0118 108.624 31.549C108.624 32.8522 110.689 32.8522 110.689 31.549C110.689 25.5916 110.689 19.6652 110.689 13.7077C110.689 12.5287 108.963 12.3115 108.655 13.4285Z" fill="#5B3006"/>
<path d="M117.25 13.3664C116.172 16.9037 115.124 20.4719 114.046 24.0091V13.6146C114.046 12.3115 111.92 12.3115 111.92 13.6146V31.3318C111.92 32.5109 113.676 32.6971 114.015 31.6111C115.094 28.0428 116.141 24.5056 117.189 20.9373V31.6111C117.189 32.8833 119.346 32.8833 119.346 31.6111V13.6146C119.346 12.4666 117.558 12.2494 117.25 13.3664Z" fill="#5B3006"/>
<path d="M41.8637 38.2077C40.9201 41.2485 39.9765 44.2893 39.0329 47.3301C38.0139 44.2893 36.9948 41.2485 36.0134 38.2077C35.5605 36.8394 33.4846 37.0294 33.4846 38.5498C33.4846 45.9617 33.4846 53.3736 33.4846 60.7475C33.4846 62.382 36.0512 62.382 36.0512 60.7475C36.0512 56.0343 36.0512 51.2831 36.0512 46.5319C36.6551 48.3183 37.2212 50.1048 37.8251 51.8912C38.2026 53.1076 39.9011 53.1456 40.2785 51.8912C40.8069 50.2568 41.2976 48.6604 41.7882 47.026C41.7882 51.5492 41.7882 56.0723 41.7882 60.6335C41.7882 62.2679 44.3548 62.2679 44.3548 60.6335C44.3548 53.2596 44.3548 45.9237 44.3548 38.5498C44.3548 37.0674 42.2789 36.8394 41.8637 38.2077Z" fill="#5B3006"/>
<path d="M56.2312 60.6715L54.0798 38.8919C54.0043 38.2077 53.5513 37.5996 52.7587 37.5996H50.947C50.3054 37.5996 49.8902 38.0177 49.6637 38.5498C47.8898 42.8069 47.1349 47.5201 46.4178 52.0813C45.9648 54.932 45.5874 57.7828 45.2854 60.6715C45.1345 62.2679 47.7388 62.2679 47.9275 60.6715C48.1162 58.695 48.3804 56.6805 48.6824 54.666H53.0229C53.2116 56.6805 53.4381 58.695 53.6268 60.6715C53.7778 62.2679 56.4199 62.2679 56.2312 60.6715ZM49.0598 52.1193C49.6637 48.3183 50.3431 44.3653 51.6264 40.6784C52.0038 44.5173 52.3813 48.3183 52.7587 52.1193H49.0598Z" fill="#5B3006"/>
<path d="M63.0648 39.12C63.0648 42.2748 63.0648 45.4296 63.0648 48.5844C62.1967 48.6224 61.1022 48.5844 60.1586 48.4324C60.1586 45.3156 60.1586 42.2368 60.1586 39.12C60.1586 37.4475 57.592 37.4475 57.592 39.12C57.592 46.3038 57.592 53.4877 57.592 60.6335C57.592 62.2679 60.1586 62.2679 60.1586 60.6335C60.1586 57.4407 60.1586 54.2479 60.1586 51.055C61.1022 51.1691 62.0835 51.2071 63.0648 51.1691C63.0648 54.3239 63.0648 57.4787 63.0648 60.6335C63.0648 62.2679 65.6314 62.2679 65.6314 60.6335C65.6314 53.4877 65.6314 46.3038 65.6314 39.12C65.6314 37.4475 63.0648 37.4475 63.0648 39.12Z" fill="#5B3006"/>
<path d="M79.3112 59.9113C79.1225 59.6452 78.896 59.4552 78.5563 59.4172C78.4808 59.4172 78.4053 59.3792 78.3299 59.3792H77.273C76.7069 52.6134 76.1785 45.8097 75.6123 39.0059C75.5746 38.3218 75.0839 37.7136 74.329 37.7136H72.8948C72.3286 37.7136 71.8757 38.1317 71.687 38.6638C70.2527 42.8829 69.6865 47.4441 69.1204 51.8152C68.8184 54.3239 68.5165 56.8705 68.29 59.3792H67.6106C67.4596 59.3792 67.3464 59.4172 67.1954 59.4552C66.4783 59.4932 65.8367 60.1014 66.1009 61.0136C66.5161 62.3439 66.969 63.7123 67.4219 65.1187C67.9126 66.6771 70.3659 65.9929 69.8752 64.4345C69.611 63.5983 69.3091 62.7621 69.0449 61.9258H75.801C75.4613 62.382 75.1216 62.8381 74.8197 63.2942C74.4045 63.8643 74.7065 64.7386 75.2726 65.0426C75.9143 65.4227 76.5937 65.1567 77.0088 64.5865C77.8015 63.4842 78.5941 62.382 79.4244 61.3177C79.7264 60.8996 79.6132 60.2914 79.3112 59.9113ZM71.6492 52.0433C72.0644 48.7364 72.5173 45.3536 73.3099 42.1227C73.8006 47.9002 74.2535 53.6397 74.7065 59.3792H70.8566C71.0453 56.9466 71.3473 54.4759 71.6492 52.0433Z" fill="#5B3006"/>
<path d="M90.9363 60.6715L88.7849 38.8919C88.7094 38.2077 88.2565 37.5996 87.4639 37.5996H85.6522C85.0105 37.5996 84.5953 38.0177 84.3689 38.5498C82.5949 42.8069 81.84 47.5201 81.1229 52.0813C80.67 54.932 80.2925 57.7828 79.9906 60.6715C79.8396 62.2679 82.4439 62.2679 82.6327 60.6715C82.8214 58.695 83.0856 56.6805 83.3875 54.666H87.7281C87.9168 56.6805 88.1432 58.695 88.332 60.6715C88.4829 62.2679 91.125 62.2679 90.9363 60.6715ZM83.765 52.1193C84.3689 48.3183 85.0483 44.3653 86.3316 40.6784C86.709 44.5173 87.0864 48.3183 87.4639 52.1193H83.765Z" fill="#5B3006"/>
<path d="M99.544 43.7952C99.4685 42.3888 99.4307 40.7544 98.6381 39.5381C97.5435 37.8276 95.4299 37.5235 93.5804 37.6376C93.354 37.6376 93.1652 37.7136 93.0143 37.7896C92.5991 37.9797 92.2971 38.3598 92.2971 38.9299C92.2971 46.1518 92.2971 53.3356 92.2971 60.5575C92.2971 62.1919 94.8637 62.1919 94.8637 60.5575C94.8637 57.8588 94.8637 55.1981 94.8637 52.4994C95.6563 52.5754 96.449 52.5374 97.1661 52.1573C98.1474 51.6632 98.6758 50.789 99.0533 49.8007C99.7704 47.9762 99.6194 45.6957 99.544 43.7952ZM96.8641 47.9382C96.7509 48.5464 96.6377 49.2306 96.2225 49.6867C95.9205 50.0288 95.3544 49.9908 94.9015 49.9147C94.9015 49.9147 94.9015 49.9147 94.8637 49.9147C94.8637 46.6839 94.8637 43.4531 94.8637 40.2602C95.1279 40.2602 95.3921 40.2983 95.6563 40.3743C96.0715 40.4883 96.3357 40.7544 96.4867 40.9444C96.6754 41.2485 96.7509 41.6666 96.8264 42.1607C96.8641 42.4268 96.9396 43.149 96.9396 43.6051C97.0528 45.0495 97.0529 46.5319 96.8641 47.9382Z" fill="#5B3006"/>
<path d="M107.429 38.4358C106.183 42.7689 104.9 47.064 103.654 51.3971C103.654 47.178 103.654 42.997 103.654 38.7779C103.654 37.1434 101.126 37.1434 101.126 38.7779C101.126 45.9617 101.126 53.1076 101.126 60.2914C101.126 61.7358 103.202 61.9638 103.617 60.6335C104.862 56.3004 106.108 52.0053 107.391 47.6722C107.391 52.0053 107.391 56.3004 107.391 60.6335C107.391 62.2299 109.92 62.2299 109.92 60.6335C109.92 53.3356 109.92 46.0757 109.92 38.7779C109.92 37.3335 107.806 37.0674 107.429 38.4358Z" fill="#5B3006"/>
<path d="M116.901 39.12C116.901 42.2748 116.901 45.4296 116.901 48.5844C116.033 48.6224 114.939 48.5844 113.995 48.4324C113.995 45.3156 113.995 42.2368 113.995 39.12C113.995 37.4475 111.429 37.4475 111.429 39.12C111.429 46.3038 111.429 53.4877 111.429 60.6335C111.429 62.2679 113.995 62.2679 113.995 60.6335C113.995 57.4407 113.995 54.2479 113.995 51.055C114.939 51.1691 115.92 51.2071 116.901 51.1691C116.901 54.3239 116.901 57.4787 116.901 60.6335C116.901 62.2679 119.468 62.2679 119.468 60.6335C119.468 53.4877 119.468 46.3038 119.468 39.12C119.468 37.4475 116.901 37.4475 116.901 39.12Z" fill="#5B3006"/>
<path d="M125 0C116.016 1.31235 115.12 8.27221 115.795 11.5881C118.634 11.1001 121.704 9.92424 122.917 7.99835C124.13 6.07246 123.486 2.35437 125 0Z" fill="#1B7A32"/>
<path d="M29.5089 59.9071C29.6475 61.3268 28.5358 62.558 27.1168 62.5519C23.4913 62.5362 23.925 62.491 21.5695 62.5071C19.7935 62.5193 18.5987 60.6717 19.3528 59.0553L24.609 47.7897C25.6455 45.5682 29.3973 46.1371 29.6356 48.5791L29.5089 59.9071Z" fill="#FF7F00"/>
<path d="M1.83994 51.3228C0.952352 51.7018 0.304546 52.4905 0.285427 53.4597C0.235486 55.9913 0.710395 60.0019 1.16921 60.7583C2.39286 62.4474 12.9008 62.9294 15.8638 61.4258C16.2078 61.2512 16.4333 60.9219 16.6003 60.5723L22.4873 48.2472C23.6854 45.7389 21.1552 43.0757 18.6074 44.1635L1.83994 51.3228Z" fill="#FF7F00"/>
<path d="M29.4109 14.5829C29.5641 13.1452 28.4297 11.8962 26.9913 11.9093C23.3013 11.9428 23.494 11.9222 19.9841 11.8992C18.2929 11.8881 17.1221 13.5943 17.7324 15.18L23.9794 31.4103C24.8881 33.7713 29.2632 33.3135 29.5315 30.7964L29.4109 14.5829Z" fill="#FF7F00"/>
<path d="M13.9996 13.7889C13.4738 12.7317 12.382 12.0872 11.2065 12.0625C6.97637 11.974 2.68491 11.3095 1.27957 12.6536C-0.148014 14.019 0.145133 19.3658 0.0603901 24.3712C0.0398401 25.585 0.708627 26.7135 1.79838 27.2366L18.7259 35.363C21.3045 36.6009 23.9827 33.8595 22.7047 31.2903L13.9996 13.7889Z" fill="#FF7F00"/>
<path d="M4.07699 30.0218C2.12451 29.2132 -8.10612e-07 30.6711 0 32.7938C1.73815e-06 37.3455 5.83033e-06 40.9495 7.77414e-06 45.5651C8.67924e-06 47.7143 2.17141 49.1748 4.1476 48.3547L18.7136 42.3097C20.9608 41.3771 21.2126 38.3182 19.0834 37.1386C15.3289 35.0588 10.4704 32.6696 4.07699 30.0218Z" fill="#FF7F00"/>
</svg>
