<svg width="128" height="128" viewBox="0 0 128 128" fill="none" xmlns="http://www.w3.org/2000/svg">
<path d="M103.212 74.61C103.062 68.39 90.6917 25.21 87.8417 18.52C84.4417 10.53 80.7417 3.31998 64.0017 4.05998C49.2917 4.69998 36.4917 6.93998 27.5117 21.94C20.6617 33.38 39.7117 88.46 44.8317 93.32C46.7117 95.11 50.8017 95.94 55.6117 96.24C57.9117 103.15 61.1517 112.61 62.6417 115.62C62.6417 115.62 80.8517 114.06 84.8217 113.5C91.5117 112.55 92.0017 106.6 90.4917 101.11C89.8717 98.86 88.9017 96.04 87.9817 93.48C95.2117 91.64 99.0617 88.87 101.072 85.25C102.862 82.03 103.302 78.18 103.212 74.61Z" fill="#B9E4EA"/>
<path d="M89.0992 84.63C79.6792 85.63 75.4592 84.57 72.5892 82.11C71.5292 81.2 70.8992 79.89 71.0692 78.51C71.6292 73.9 72.0992 71.16 70.0292 63.73L60.4792 27.22C56.9392 11.82 44.2092 10.09 33.8292 16.08C26.7492 20.17 23.3192 27.43 25.3392 36.4L37.9192 84.51C39.4892 90.52 42.0292 93.76 45.4592 95.01C46.5392 95.76 48.0992 96.28 49.9792 96.64C51.1992 99.88 52.9092 104.39 54.4092 108.19C56.5392 113.57 58.6292 115.61 62.6392 115.61C66.6492 115.61 71.0192 112.63 69.4792 106.59C68.7192 103.58 67.7592 100.17 66.8592 97.07C71.8192 96.78 76.2392 96.33 78.4892 96.22C96.6992 95.36 102.319 87.18 103.069 79.14C103.069 79.16 99.6092 83.51 89.0992 84.63Z" fill="#82AEC0"/>
<path d="M62.6313 112.136C64.9384 111.704 66.3461 108.881 65.7753 105.83C65.2045 102.779 62.8714 100.656 60.5642 101.088C58.2571 101.519 56.8494 104.343 57.4202 107.393C57.991 110.444 60.3241 112.568 62.6313 112.136Z" fill="#2F7889"/>
<path d="M35.4292 35.63C35.9141 35.3238 36.2599 34.8398 36.3924 34.2819C36.5249 33.7239 36.4337 33.1362 36.1382 32.6446C35.8428 32.153 35.3666 31.7967 34.8117 31.6519C34.2567 31.5072 33.6672 31.5854 33.1692 31.87L25.6992 36.36L26.8292 40.8L35.4292 35.63ZM38.9592 43.18C38.6594 42.6815 38.1739 42.3224 37.6095 42.1818C37.0451 42.0412 36.4479 42.1304 35.9492 42.43L28.3892 46.97L29.5192 51.41L38.2092 46.19C39.2392 45.57 39.5792 44.22 38.9592 43.18ZM41.7392 53.75C41.4394 53.2515 40.9539 52.8924 40.3895 52.7518C39.8251 52.6112 39.2279 52.7004 38.7292 53L31.0892 57.59L32.2192 62.03L40.9892 56.76C42.0192 56.13 42.3592 54.78 41.7392 53.75ZM44.5192 64.31C44.2194 63.8115 43.7339 63.4524 43.1695 63.3118C42.6051 63.1712 42.0079 63.2604 41.5092 63.56L33.7892 68.2L34.9192 72.64L43.7692 67.32C44.8092 66.7 45.1392 65.35 44.5192 64.31ZM47.2992 74.87C46.9994 74.3715 46.5139 74.0124 45.9495 73.8718C45.3851 73.7312 44.7879 73.8204 44.2892 74.12L36.4892 78.81L37.6192 83.25L46.5592 77.88C47.5892 77.26 47.9192 75.91 47.2992 74.87Z" fill="#424242"/>
<path d="M57.1309 19.11C52.6709 20.69 43.4109 26.6 43.4109 26.6C42.9124 26.8998 42.5534 27.3853 42.4128 27.9498C42.2721 28.5142 42.3614 29.1114 42.6609 29.61C42.9618 30.1073 43.4473 30.4653 44.0113 30.6058C44.5752 30.7463 45.1719 30.658 45.6709 30.36C45.6709 30.36 54.4009 24.35 59.1509 23.33C62.7409 22.56 71.1009 22.37 71.1009 22.37L69.9209 18.11C69.9109 18.1 59.2309 18.36 57.1309 19.11ZM60.3309 30.1C55.8409 31.6 46.4809 37.33 46.4809 37.33C46.2312 37.473 46.0123 37.664 45.8368 37.892C45.6612 38.12 45.5326 38.3805 45.4582 38.6584C45.3838 38.9364 45.3652 39.2263 45.4035 39.5115C45.4417 39.7967 45.536 40.0715 45.6809 40.32C46.0809 41.01 46.8009 41.4 47.5409 41.42C47.9209 41.43 48.3209 41.33 48.6709 41.13C48.6709 41.13 57.5109 35.29 62.2709 34.35C65.8709 33.64 74.2409 33.42 74.2409 33.42L73.1409 29.14C73.1409 29.14 62.4509 29.39 60.3309 30.1ZM63.5409 41.09C59.0209 42.51 49.5609 48.06 49.5609 48.06C49.0531 48.3425 48.6776 48.8144 48.5165 49.3727C48.3553 49.931 48.4216 50.5304 48.7009 51.04C48.9838 51.5475 49.4557 51.9226 50.0138 52.0837C50.572 52.2448 51.1712 52.1788 51.6809 51.9C51.6809 51.9 60.6209 46.22 65.4009 45.38C69.0209 44.74 77.3909 44.48 77.3909 44.48L76.3709 40.18C76.3709 40.18 65.6709 40.42 63.5409 41.09ZM66.7509 52.08C62.2109 53.41 52.6409 58.79 52.6409 58.79C52.3865 58.9243 52.161 59.1074 51.9775 59.329C51.794 59.5505 51.656 59.8061 51.5714 60.0811C51.4869 60.3561 51.4574 60.6451 51.4848 60.9315C51.5122 61.2179 51.5958 61.496 51.7309 61.75C52.1009 62.46 52.8109 62.87 53.5509 62.92C53.9309 62.94 54.3309 62.86 54.6909 62.67C54.6909 62.67 63.7309 57.16 68.5309 56.4C72.1609 55.83 80.5509 55.53 80.5509 55.53L79.6109 51.21C79.6009 51.21 68.8909 51.45 66.7509 52.08ZM69.9609 63.07C65.3909 64.32 55.7209 69.53 55.7209 69.53C55.4634 69.6599 55.2339 69.8392 55.0458 70.0578C54.8576 70.2764 54.7143 70.5299 54.6242 70.8039C54.5341 71.0779 54.499 71.367 54.5207 71.6546C54.5424 71.9422 54.6207 72.2227 54.7509 72.48C55.1109 73.19 55.8109 73.62 56.5509 73.68C56.9309 73.71 57.3309 73.64 57.7009 73.45C57.7009 73.45 66.8509 68.1 71.6609 67.43C75.3009 66.92 83.7009 66.59 83.7009 66.59L82.8309 62.25C82.8309 62.25 72.1109 62.48 69.9609 63.07ZM87.6709 18.1H80.7209L81.8909 22.36H89.2209C88.8709 21.15 87.8309 18.64 87.6709 18.1ZM85.0509 33.42L92.7409 33.57C92.3109 32.08 91.8709 30.69 91.4609 29.34L83.8909 29.14L85.0509 33.42ZM88.2209 44.47L95.8909 44.39C95.4909 42.95 95.0909 41.59 94.6909 40.18H87.0609L88.2209 44.47ZM91.3809 55.52H98.9409C98.5709 54.11 98.1709 52.67 97.7809 51.21H90.2209L91.3809 55.52ZM94.5409 66.58H101.721C101.401 65.24 101.061 63.79 100.671 62.25H93.3809L94.5409 66.58ZM60.8709 13.59C58.9809 11.68 58.8209 9.50003 54.9809 7.55003C50.7209 5.38003 45.9009 6.86003 45.9009 6.86003C45.9009 6.86003 53.7809 3.77003 57.8709 5.13003C61.3409 6.28003 63.4009 9.00003 64.2409 11.23C64.7809 12.66 64.4209 13.63 63.3509 14.2C63.0209 14.38 61.8709 14.61 60.8709 13.59ZM67.7709 9.18003C65.3609 4.04003 60.5609 4.23003 60.5609 4.23003C60.5609 4.23003 65.5809 3.54003 67.7809 4.54003C70.2709 5.67003 71.4709 7.01003 72.4809 9.80003C72.8909 10.94 73.1009 12.77 71.0909 13.01C69.3409 13.23 68.4209 10.56 67.7709 9.18003ZM75.6909 8.90003C73.5809 4.30003 69.0809 4.12003 69.0809 4.12003C69.0809 4.12003 77.5109 3.70003 80.0609 10.02C80.5109 11.14 80.4109 12.53 79.2109 12.64C77.4109 12.81 76.3309 10.28 75.6909 8.90003ZM66.7609 97.12C69.2009 95.87 71.1709 93.85 72.8309 91.66C74.6909 89.22 75.9109 87.51 76.7809 84.57C77.4409 82.33 77.6409 78.59 77.4009 76.26C77.1309 73.68 77.4009 72.32 79.3509 72.04C80.5509 71.87 82.0209 72.77 82.4009 75.94C82.8309 79.54 82.6009 81.81 81.2009 85.68C79.9609 89.1 77.9009 91.58 75.1509 93.93C71.4209 97.12 67.1209 96.93 66.7609 97.12ZM78.4909 96.23C78.4909 96.23 89.4109 89.83 87.9609 77.65C87.7009 75.46 86.6909 71.51 89.3909 71.18C90.5909 71.03 92.4909 72.22 92.6509 77.22C92.9809 87.7 87.6409 92.4 85.4109 93.87C82.2809 95.91 78.4909 96.23 78.4909 96.23Z" fill="#2F7889"/>
<path d="M88.4609 94.84C88.4609 94.84 93.5409 91.68 95.4809 86.4C96.4609 83.75 96.9809 81.51 96.8409 77.37C96.7609 75.17 95.1609 71.18 97.8909 71.15C100.141 71.13 100.901 74.78 101.041 76.83C101.321 80.87 99.8209 84.76 97.4609 88.45C94.2809 93.4 88.4609 94.84 88.4609 94.84Z" fill="#2F7889"/>
<path d="M69.0403 124L67.3203 115.23L75.3803 114.49C75.3803 114.49 77.5203 111.82 77.3803 109.53C77.2403 107.24 76.2303 104.09 76.2303 104.09L84.5303 103.09C84.5303 103.09 85.8203 107.5 85.5403 109.54C85.2503 111.69 83.2903 113.7 83.2903 113.7L85.7703 124H69.0403Z" fill="#82AEC0"/>
<path d="M42.66 29.61C42.9609 30.1073 43.4464 30.4653 44.0103 30.6058C44.5743 30.7463 45.171 30.658 45.67 30.36C45.67 30.36 54.4 24.35 59.15 23.33C59.19 23.32 59.25 23.31 59.29 23.3C58.66 21.72 57.91 20.34 57.06 19.14C52.57 20.76 43.41 26.6 43.41 26.6C43.1624 26.7477 42.9464 26.9429 42.7746 27.1744C42.6027 27.4059 42.4783 27.6692 42.4086 27.9489C42.3389 28.2287 42.3252 28.5195 42.3684 28.8046C42.4115 29.0897 42.5106 29.3634 42.66 29.61ZM46.48 37.33C46.2303 37.473 46.0114 37.664 45.8359 37.892C45.6603 38.12 45.5317 38.3804 45.4573 38.6584C45.3829 38.9364 45.3643 39.2263 45.4025 39.5115C45.4408 39.7967 45.5351 40.0715 45.68 40.32C46.08 41.01 46.8 41.4 47.54 41.42C47.92 41.43 48.32 41.33 48.67 41.13C48.67 41.13 57.5 35.29 62.27 34.35C62.3 34.34 62.33 34.34 62.35 34.33L61.19 29.88C60.83 29.95 60.54 30.02 60.33 30.09C55.84 31.6 46.48 37.33 46.48 37.33ZM49.56 48.06C49.0522 48.3425 48.6767 48.8144 48.5155 49.3727C48.3544 49.931 48.4207 50.5304 48.7 51.04C48.9828 51.5475 49.4547 51.9226 50.0129 52.0837C50.5711 52.2448 51.1703 52.1788 51.68 51.9C51.68 51.9 60.44 46.34 65.25 45.41L64.09 40.96C63.87 41 63.69 41.05 63.55 41.09C59.02 42.5 49.56 48.06 49.56 48.06ZM52.64 58.79C52.3856 58.9243 52.1601 59.1074 51.9766 59.3289C51.793 59.5505 51.655 59.8061 51.5705 60.0811C51.486 60.3561 51.4565 60.6451 51.4839 60.9315C51.5113 61.2178 51.5949 61.496 51.73 61.75C52.1 62.46 52.81 62.87 53.55 62.92C53.93 62.94 54.33 62.86 54.69 62.67C54.69 62.67 63.27 57.45 68.15 56.48L66.98 52.02C66.9 52.04 66.82 52.06 66.75 52.08C62.21 53.41 52.64 58.79 52.64 58.79ZM69.87 63.09C65.27 64.38 55.72 69.52 55.72 69.52C55.4625 69.6498 55.233 69.8292 55.0448 70.0478C54.8567 70.2663 54.7134 70.5199 54.6233 70.7939C54.5332 71.0679 54.498 71.357 54.5198 71.6446C54.5415 71.9322 54.6198 72.2127 54.75 72.47C55.11 73.18 55.81 73.61 56.55 73.67C56.93 73.7 57.33 73.63 57.7 73.44C57.7 73.44 65.73 68.75 70.7 67.6C70.51 66.31 70.29 65.02 70.05 63.73L69.87 63.09Z" fill="#424242"/>
<path d="M56.0904 18.55C52.5604 13.82 50.8104 14.79 48.4104 13.71C46.2904 12.75 47.4304 11.54 48.4104 11.03C49.8204 10.29 52.4904 10.22 54.2804 11.22C55.9604 12.16 57.7804 13.04 58.5404 17.25C58.8604 18.96 56.8504 19.56 56.0904 18.55ZM64.1004 25.24C63.4304 23.25 61.8904 22.64 60.0104 23.22C59.1404 23.49 59.0004 24.13 59.5704 25.92C60.6104 29.19 60.9204 30.17 62.7404 29.67C64.2904 29.25 64.8504 27.46 64.1004 25.24ZM63.6504 34.11C62.3804 34.43 62.0604 35.07 62.7204 37.16C63.5004 39.62 64.9204 39.27 65.5404 39.07C66.4904 38.76 67.3204 37.68 67.0804 36.07C66.9404 35.19 66.4104 33.41 63.6504 34.11Z" fill="white"/>
<path d="M66.7617 97.12C66.7917 97.1 66.8617 97.09 66.9417 97.08C66.9017 97.08 66.8617 97.08 66.8217 97.09C66.8017 97.09 66.7917 97.11 66.7617 97.12Z" fill="#2F7889"/>
<path d="M81.2081 85.68C81.2981 85.43 81.3681 85.21 81.4481 84.97C79.6281 84.89 78.1281 84.67 76.8481 84.32L76.7881 84.57C75.9181 87.52 74.6981 89.22 72.8381 91.66C71.1881 93.83 69.2381 95.83 66.8281 97.09C66.8681 97.09 66.9081 97.09 66.9481 97.08C67.8481 96.95 71.7381 96.85 75.1581 93.93C77.9081 91.58 79.9681 89.1 81.2081 85.68ZM91.9081 84.22C91.0281 84.38 90.1081 84.52 89.1081 84.63C88.5081 84.69 87.9381 84.75 87.3781 84.79C85.1581 92.32 78.4881 96.23 78.4881 96.23C78.4881 96.23 82.2781 95.91 85.4081 93.86C87.0581 92.77 90.4081 89.9 91.9081 84.22Z" fill="#424242"/>
<path d="M88.4609 94.84C88.4609 94.84 89.2109 94.65 90.3009 94.19C89.7709 94.37 89.2309 94.55 88.6609 94.71C88.5309 94.79 88.4609 94.84 88.4609 94.84Z" fill="#2F7889"/>
<path d="M97.4501 88.45C98.9701 86.07 100.13 83.61 100.69 81.07C99.6702 81.71 98.2802 82.41 96.4602 83.04C96.2202 84.2 95.9002 85.26 95.4802 86.39C93.7602 91.06 89.5902 94.06 88.6602 94.7C89.2302 94.54 89.7702 94.36 90.3002 94.18C92.2802 93.37 95.4101 91.64 97.4501 88.45Z" fill="#424242"/>
</svg>
