<svg width="106" height="106" viewBox="0 0 106 106" fill="none" xmlns="http://www.w3.org/2000/svg">
<path d="M82.7462 53.472H23.2537C16.8441 53.472 11.5938 59.2192 11.5938 66.2417C11.5938 73.2642 16.8441 79.0114 23.2537 79.0114H82.7462C89.1642 79.0114 94.4062 73.2642 94.4062 66.2417C94.4062 59.2192 89.1559 53.472 82.7462 53.472Z" fill="#E59600"/>
<path d="M53.0028 10.3847C24.2917 10.3847 16.5156 30.533 16.5156 59.5339C16.5156 88.3775 30.6434 102.63 53.0028 102.63C75.3622 102.63 89.49 88.3692 89.49 59.5339C89.49 30.533 81.7139 10.3847 53.0028 10.3847V10.3847Z" fill="#FFCA28"/>
<path d="M35.5924 47.5095C35.0955 47.5095 34.6318 47.2114 34.433 46.7228C34.3725 46.5711 34.3425 46.409 34.3447 46.2457C34.347 46.0824 34.3814 45.9211 34.446 45.7711C34.5106 45.6211 34.6041 45.4854 34.7213 45.3716C34.8384 45.2578 34.9769 45.1682 35.1287 45.108C35.4351 44.9838 42.6646 42.1764 52.718 42.1764C62.7632 42.1764 70.5144 44.9837 70.8374 45.0997C71.4833 45.3398 71.8146 46.052 71.5744 46.6897C71.5181 46.8432 71.4321 46.9841 71.3212 47.1043C71.2104 47.2245 71.0768 47.3216 70.9283 47.3901C70.7799 47.4586 70.6193 47.4971 70.4559 47.5033C70.2925 47.5096 70.1295 47.4836 69.9762 47.4267C69.9016 47.4019 62.2912 44.6525 52.718 44.6525C43.1283 44.6525 36.1141 47.3853 36.0396 47.4102C35.8988 47.4847 35.7415 47.5095 35.5924 47.5095V47.5095ZM65.3966 40.545C65.2724 40.545 65.1482 40.5284 65.024 40.487C64.966 40.4705 59.343 38.7148 52.9996 38.7148C46.6562 38.7148 41.0332 40.4705 40.9752 40.487C40.8197 40.536 40.6561 40.5538 40.4937 40.5395C40.3313 40.5252 40.1733 40.479 40.0287 40.4037C39.8841 40.3283 39.7558 40.2252 39.6511 40.1003C39.5464 39.9753 39.4673 39.831 39.4183 39.6755C39.3694 39.52 39.3516 39.3563 39.3659 39.1939C39.3802 39.0315 39.4263 38.8735 39.5017 38.729C39.577 38.5844 39.6801 38.4561 39.8051 38.3513C39.93 38.2466 40.0744 38.1675 40.2299 38.1186C40.4701 38.0441 46.2587 36.2305 52.9996 36.2305C59.7405 36.2305 65.5291 38.0441 65.7693 38.1186C66.054 38.206 66.2978 38.3929 66.4561 38.6453C66.6144 38.8976 66.6766 39.1984 66.6314 39.4928C66.5861 39.7872 66.4365 40.0555 66.2098 40.2487C65.9831 40.4419 65.6945 40.5471 65.3966 40.545ZM35.5344 74.9453C33.3565 74.9453 31.1702 74.2414 29.5057 72.8419C28.984 72.403 28.9177 71.6162 29.3566 71.0945C29.7955 70.5728 30.5823 70.5066 31.104 70.9455C33.5469 73.0075 37.5137 73.0075 39.9566 70.9455C40.4783 70.4983 41.2651 70.5645 41.704 71.0945C42.1429 71.6162 42.0849 72.403 41.5549 72.8419C39.8987 74.2414 37.7207 74.9453 35.5344 74.9453ZM70.4647 74.9453C68.2785 74.9453 66.1005 74.2414 64.436 72.8419C63.9143 72.403 63.848 71.6162 64.2869 71.0945C64.7258 70.5728 65.5126 70.5066 66.0343 70.9455C68.4772 73.0075 72.444 73.0075 74.8869 70.9455C75.4087 70.4983 76.1954 70.5645 76.6343 71.0945C77.0815 71.6162 77.0152 72.403 76.4852 72.8419C74.829 74.2414 72.651 74.9453 70.4647 74.9453V74.9453ZM33.6463 87.2098C33.3316 87.2098 33.0087 87.0856 32.7685 86.8455C32.6523 86.7307 32.5601 86.594 32.4971 86.4433C32.4342 86.2926 32.4018 86.131 32.4018 85.9677C32.4018 85.8043 32.4342 85.6427 32.4971 85.492C32.5601 85.3413 32.6523 85.2046 32.7685 85.0898L40.6605 77.1978C41.1491 76.7092 41.9276 76.7092 42.4162 77.1978C42.9048 77.6864 42.9048 78.4731 42.4162 78.9534L34.5241 86.8455C34.284 87.0856 33.961 87.2098 33.6463 87.2098V87.2098ZM72.3529 87.2098C72.0382 87.2098 71.7152 87.0856 71.4751 86.8455L63.583 78.9534C63.0944 78.4648 63.0944 77.6781 63.583 77.1978C64.0716 76.7175 64.8583 76.7092 65.3387 77.1978L73.2307 85.0898C73.7193 85.5784 73.7193 86.3652 73.2307 86.8455C72.9905 87.0856 72.6676 87.2098 72.3529 87.2098Z" fill="#EDA600"/>
<path d="M52.8575 3.39529C40.1707 3.39529 29.8854 9.34123 29.8854 16.6784C29.8854 24.0156 40.1707 27.4772 52.8575 27.4772C65.5444 27.4772 75.8297 24.0156 75.8297 16.6784C75.838 9.34123 65.5527 3.39529 52.8575 3.39529ZM79.2913 54.0683C78.2727 52.7184 75.9043 50.7475 71.3247 50.7475C66.7452 50.7475 64.3768 52.7184 63.3582 54.0683C62.9027 54.6645 63.0186 55.3601 63.3333 55.7742C63.6232 56.1634 64.4844 56.5195 65.4285 56.1965C66.3725 55.8736 68.2275 54.9212 71.3247 54.8964C74.4219 54.9212 76.2769 55.8736 77.221 56.1965C78.165 56.5195 79.0263 56.1551 79.3161 55.7742C79.6225 55.3601 79.7385 54.6645 79.2913 54.0683ZM42.9697 54.0683C41.9511 52.7184 39.5827 50.7475 35.0032 50.7475C30.4236 50.7475 28.0552 52.7184 27.0366 54.0683C26.5811 54.6645 26.6971 55.3601 27.0118 55.7742C27.3016 56.1634 28.1629 56.5195 29.1069 56.1965C30.051 55.8736 31.906 54.9212 35.0032 54.8964C38.1004 54.9212 39.9554 55.8736 40.8994 56.1965C41.8435 56.5195 42.7047 56.1551 42.9946 55.7742C43.301 55.3601 43.4169 54.6645 42.9697 54.0683Z" fill="#9E9E9E"/>
<path d="M83.3261 22.5416C75.9806 14.4839 57.149 9.64766 53.0001 13.9291C48.8512 9.64766 30.0197 14.4839 22.6742 22.5416C14.5586 31.4356 12.7118 46.905 15.8504 59.9314C16.1403 61.1322 19.1215 61.1488 19.1215 59.9148C19.1215 51.3438 25.8873 38.5244 35.4025 35.833C39.9903 34.5328 50.052 34.1933 53.0001 28.3136C55.9483 34.2016 66.01 34.5411 70.5978 35.833C80.1129 38.5244 86.8787 51.1367 86.8787 59.9148C86.8787 61.1488 89.86 61.1322 90.1498 59.9314C93.2884 46.905 91.4417 31.4356 83.3261 22.5416V22.5416Z" fill="url(#paint0_radial_419_854)"/>
<path d="M34.9991 69.6039C37.9628 69.6039 40.3653 67.1161 40.3653 64.0472C40.3653 60.9783 37.9628 58.4905 34.9991 58.4905C32.0354 58.4905 29.6328 60.9783 29.6328 64.0472C29.6328 67.1161 32.0354 69.6039 34.9991 69.6039Z" fill="#404040"/>
<path d="M71.3194 69.6039C74.2831 69.6039 76.6856 67.1161 76.6856 64.0472C76.6856 60.9783 74.2831 58.4905 71.3194 58.4905C68.3557 58.4905 65.9531 60.9783 65.9531 64.0472C65.9531 67.1161 68.3557 69.6039 71.3194 69.6039Z" fill="#404040"/>
<path d="M57.2003 74.1669C57.0889 74.1212 56.972 74.0905 56.8525 74.0758H49.1509C49.035 74.0924 48.919 74.1172 48.8031 74.1669C48.1075 74.4485 47.7183 75.1772 48.0495 75.9391C48.3808 76.7092 49.9128 78.8707 53.0017 78.8707C56.0906 78.8707 57.6226 76.7092 57.9539 75.9391C58.2851 75.1689 57.9042 74.4485 57.2003 74.1669V74.1669Z" fill="#E59600"/>
<path d="M62.1173 82.7876C58.6474 84.8497 47.2855 84.8497 43.8157 82.7876C41.8282 81.6034 39.791 83.417 40.6191 85.2223C41.4307 87.0028 47.6334 91.1268 52.9996 91.1268C58.3576 91.1268 64.4857 87.0028 65.2973 85.2223C66.1171 83.4087 64.113 81.6034 62.1173 82.7876V82.7876Z" fill="#795548"/>
<defs>
<radialGradient id="paint0_radial_419_854" cx="0" cy="0" r="1" gradientUnits="userSpaceOnUse" gradientTransform="translate(52.5694 49.9771) rotate(0.389032) scale(52.8745 45.8263)">
<stop offset="0.44" stop-color="#9E9E9E"/>
<stop offset="1" stop-color="#E0E0E0"/>
</radialGradient>
</defs>
</svg>
