<svg width="128" height="128" viewBox="0 0 128 128" fill="none" xmlns="http://www.w3.org/2000/svg">
<path d="M86.5998 26.4998L114.69 19.0298L112.91 15.4698L63.8398 3.02979L31.8398 9.77979V12.2698L86.5998 26.4998Z" fill="#ED6C30"/>
<path d="M86.6016 26.5001L112.562 19.3901L117.892 24.7201L116.832 79.4801L86.6016 95.1201V26.5001Z" fill="#ED6C30"/>
<path d="M26.5008 12.98L87.6708 27.21L85.8908 94.05L30.4208 84.45L23.3008 78.77L26.5008 12.98Z" fill="#ED6C30"/>
<path d="M45 26.8501L10.5 52.1001L12.64 57.4301L45.7 75.2101L70.96 39.6501V34.3201L45 26.8501Z" fill="#FCC21B"/>
<path d="M120.859 43.8101C120.759 37.0301 121.759 29.4101 120.269 22.5801C119.979 21.2501 119.589 19.9501 119.089 18.6801C116.509 12.2601 110.059 11.0001 104.069 9.27011C92.2088 5.85011 79.6788 3.23011 67.4688 1.38011C55.4988 -0.429892 44.7988 2.58011 33.1688 5.19011C25.0788 7.00011 21.2888 11.1601 20.5688 19.4801C19.9688 26.4101 19.9888 33.4701 20.0788 40.5101C17.0488 42.7801 14.0488 45.0901 11.0088 47.3501C9.51447 48.4524 8.25634 49.8432 7.30879 51.4401C6.34879 53.0501 7.22879 55.0201 8.49879 56.2001C10.6188 58.1801 12.6188 60.2301 15.2688 61.5301C17.0088 62.4001 18.7088 63.4301 20.3788 64.5101C20.4488 67.3201 20.5188 70.1301 20.5788 72.9401C20.6088 74.4501 20.6388 75.9601 20.6588 77.4701C20.6688 77.8201 21.1388 82.1901 23.7188 83.7001C29.6888 87.1801 37.2188 88.7801 43.7788 90.7101C46.7288 91.5801 49.6888 92.4301 52.6588 93.2501C53.8888 93.5901 55.1888 93.8201 56.3888 94.2201C57.3788 94.5401 59.3888 94.9601 59.0088 96.4101C58.7888 97.2401 57.8288 97.2601 57.1088 97.4101C56.0088 97.6301 54.8988 97.7701 53.8088 97.9701C52.2288 98.2501 50.6788 98.6101 49.1688 99.1001C46.7288 99.8901 44.1788 101.01 42.4288 102.95C40.6988 104.88 40.5088 107.11 40.5088 109.55V112.22C40.5088 112.92 40.5688 113.67 40.7488 114.38C40.7088 117.59 43.4088 120.61 48.4188 122.88C52.9488 124.94 59.0188 126.29 65.4988 126.69C66.8288 126.77 68.1288 126.81 69.3888 126.81C74.8888 126.81 80.5988 126.25 85.6288 123.91C87.3788 123.1 89.4088 122.13 90.5288 120.49C91.8988 118.49 91.6788 115.88 91.6988 113.58C91.7288 111.14 91.9688 108.43 90.6188 106.26C89.1188 103.85 86.4688 102.28 83.9388 101.13C81.7088 100.12 79.1088 99.2801 76.2788 98.6401V98.5001C80.1488 98.9701 84.0388 99.0101 87.8588 98.0101L88.0388 97.9401C88.8788 97.8201 89.6988 97.4301 90.4588 97.1101C92.9788 96.0701 95.5388 95.1901 98.1088 94.2801C102.189 92.8301 106.179 91.0901 109.989 89.0301C112.709 87.5501 116.539 85.8601 118.409 83.3201C121.709 78.8301 120.549 72.0301 120.729 66.8101C120.989 59.1301 120.969 51.4901 120.859 43.8101ZM16.0988 51.5801C15.7088 51.5301 15.3288 51.3601 14.9388 51.3701C14.4188 49.9501 18.6188 47.9101 19.5288 47.3101C19.7488 47.1701 19.9488 47.0101 20.1588 46.8601C20.4788 46.6301 20.7988 46.4001 21.1288 46.1701C22.8088 44.9701 24.4488 43.7201 26.1488 42.5401C26.2788 42.4501 26.4088 42.3501 26.5388 42.2601C28.0588 41.2001 29.5588 40.1101 31.0588 39.0301C34.4488 36.5901 37.7988 34.1001 41.0788 31.4901L41.2588 31.3401C42.3588 30.4601 43.3888 29.3801 44.7488 28.9201C46.1588 28.4401 48.5688 29.1201 49.9288 29.5701C50.5488 29.7801 51.3688 29.9701 51.8788 30.3601C52.9588 31.2101 53.1888 32.6701 53.4688 33.9201C53.8788 35.7301 54.0088 37.4301 54.0088 39.3101C54.0088 41.9801 54.8088 44.0701 51.8988 45.2201C49.8688 46.0201 47.5888 45.9201 45.4688 46.4001C45.4488 46.4001 45.4288 46.4101 45.3988 46.4101C42.9488 46.9601 40.4788 47.4501 37.9888 47.7901C34.1388 48.3201 30.3388 49.0201 26.5288 49.8101C26.3288 49.8501 26.1388 49.8801 25.9488 49.9201C24.3588 50.2501 22.7488 50.4501 21.1488 50.6901C20.8288 50.7401 20.4988 50.7901 20.1788 50.8501C19.6488 50.9401 19.1288 51.0401 18.6088 51.1601C17.8088 51.3701 16.9588 51.6701 16.0988 51.5801ZM57.7588 43.5801C57.7488 42.7601 57.7088 41.9501 57.7088 41.1301L57.5888 38.9501C58.7788 38.2501 60.6588 38.6001 61.9788 38.6001C63.1488 38.6001 64.2588 38.6801 65.3988 38.7801C65.9788 38.8301 66.9988 38.5301 67.4888 38.9501C68.3188 39.6501 67.0688 40.6001 66.6288 41.1601C65.4688 42.6201 64.6888 44.3901 63.5988 45.9201C62.7188 47.1701 61.9788 48.5401 61.0988 49.7801C61.0388 49.8601 60.9788 49.9401 60.9088 50.0201C60.0788 51.1601 59.0988 52.2201 58.2588 53.3501C56.6788 55.4701 55.1188 57.6101 53.6388 59.8001C51.0688 63.6201 49.1088 67.8601 46.0188 71.3101C45.5388 71.8501 44.7288 72.4301 44.2788 71.8401C43.9288 71.3901 43.8388 70.2601 43.7088 69.7001C43.1888 67.5001 43.3188 65.0301 43.1788 62.7601C43.0188 60.3401 42.7488 57.9301 42.7488 55.5101C42.7488 54.2501 42.1288 52.9601 42.4288 51.6901C42.8088 50.1201 44.7288 50.4501 45.9688 50.1001C47.1888 49.7501 48.4088 49.5401 49.6288 49.2101C50.9688 48.8401 52.3988 48.6301 53.7588 48.2801C54.4088 48.1101 55.0388 47.9301 55.6288 47.6601C57.4188 46.8701 57.7588 45.4201 57.7588 43.5801ZM56.5388 32.5801C59.2988 32.2301 64.1588 34.0001 66.3088 35.4101C67.5888 36.2601 66.9488 36.3201 65.6388 36.3601C64.2188 36.4101 62.7788 36.2701 61.3588 36.4701C60.2788 36.6201 58.8088 36.7801 57.7788 36.3101C57.3788 36.1301 57.1888 35.9201 57.0688 35.6401C56.9988 35.4501 56.9588 35.2401 56.9288 34.9701C56.8488 34.3201 56.3188 33.2001 56.5388 32.5801ZM21.2788 59.6801C21.0388 59.5201 20.7788 59.3701 20.5488 59.1801C20.4688 59.1101 20.3788 59.0501 20.2988 58.9801C19.3988 58.2601 18.5088 57.5501 17.5788 56.8701C16.6388 56.1801 16.7788 55.7801 17.7588 55.4901C18.5688 55.2601 19.3988 55.0601 20.2288 54.8601C20.5588 54.7801 20.8688 54.6801 21.2088 54.6101C22.9788 54.2001 24.7588 53.8501 26.5588 53.5401C28.8388 53.1401 31.1388 52.7801 33.3588 52.4501C34.7288 52.2501 36.0888 51.9301 37.4888 51.9301H37.7288C38.3588 51.9001 38.8788 51.8001 39.0888 52.4601C39.4788 53.7101 38.8788 55.0701 39.0588 56.3401C39.2988 58.1301 39.0888 60.0801 39.0888 61.8901C39.0888 63.6201 39.0088 65.3601 38.9588 67.0901C38.9388 67.5901 39.1888 69.2701 38.8788 69.6401C38.4688 70.1301 37.5788 69.4001 37.1388 69.1401C35.6788 68.2701 34.2288 67.2001 32.7088 66.4601C30.8188 65.5401 28.9888 64.5101 27.1388 63.4901C26.9388 63.3701 26.7588 63.2501 26.5588 63.1301C25.6288 62.5701 24.7588 61.9901 23.8488 61.3501C23.0188 60.7801 22.1188 60.2501 21.2788 59.6801ZM82.8688 86.5201C82.9088 88.5801 82.5188 90.0901 81.7188 91.0701C80.6388 92.3901 78.7988 92.7601 76.2888 92.2901C76.2088 92.2801 76.1388 92.2801 76.0588 92.2601C75.8588 92.2201 75.6488 92.1901 75.4488 92.1401C75.1688 92.0901 74.8788 92.0401 74.5988 91.9801C70.8688 91.2501 67.1088 90.6201 63.3888 89.7801C61.5188 89.3601 59.6588 88.9301 57.7788 88.4801L56.9288 88.2801C56.6488 88.2101 56.3588 88.1501 56.0888 88.0801C48.6588 86.2901 41.2688 84.2301 34.2388 81.3501C32.2788 80.5501 27.3988 78.9801 26.9988 76.3401C26.9288 75.8401 26.4788 72.7901 26.4988 71.2501C26.5088 70.3701 26.5188 69.4401 26.5188 68.4901C27.4188 68.9701 28.3688 69.4001 29.2688 69.8801C31.8488 71.2301 34.2988 72.8401 36.8188 74.3001C37.8488 74.9001 39.0388 75.2801 40.1188 75.8001C41.0988 76.2701 41.9488 76.7401 42.9988 77.0001C44.6888 77.4001 46.3888 77.7301 47.8388 76.4801C49.7144 74.8566 51.3209 72.9463 52.5988 70.8201C53.8888 68.6601 55.4388 66.6301 56.6988 64.4201C57.9288 62.2801 59.5488 60.3301 60.8188 58.1601C61.9988 56.1401 63.4588 54.3301 64.5488 52.3001C64.7788 51.8601 65.0488 51.4301 65.2888 51.0001C65.9588 51.1101 66.6188 51.2001 67.2788 51.2501C70.7788 51.5101 73.3988 51.3701 74.8188 47.8201C75.4788 46.1701 75.1988 44.1901 75.1988 42.4301C75.1988 40.0701 75.3688 37.4301 74.6288 35.2201C73.4888 31.8401 69.7588 30.8601 66.6888 30.1701C62.0588 29.1201 57.3788 28.3801 52.7688 27.1801C48.4588 26.0601 43.9788 24.8001 39.6088 23.9601C38.4088 23.7301 37.1888 23.5701 35.9688 23.5101C34.7088 23.4401 33.3688 23.5301 32.4488 24.2301C30.4688 25.7501 30.9288 29.1601 30.6688 31.3101C30.5888 31.9601 30.5888 32.6301 30.5988 33.2901C29.2188 34.1201 27.8488 34.9501 26.5188 35.8601C26.5188 28.7601 26.5488 23.4401 26.6788 22.5201C27.0088 20.2101 27.4788 17.9601 28.0088 17.3301C28.9388 16.2001 30.0388 15.7701 31.2288 15.6801C36.3688 15.9701 42.0688 17.5801 47.4088 19.0301C53.5888 20.7201 60.0288 21.3801 66.1488 23.3001C67.4988 23.7201 68.8988 23.8201 70.2488 24.2401C71.3288 24.5701 72.4188 24.8401 73.5188 25.0901C74.9988 25.4301 76.5588 26.0201 78.0388 26.5501C83.8988 28.6501 82.7288 35.9101 82.9188 41.0101C83.1488 46.9301 83.3288 52.8601 83.3288 58.7901C83.3388 68.3401 82.6588 76.9701 82.8688 86.5201ZM63.8888 16.9001C56.7688 15.6001 49.7088 14.0201 42.6088 12.6201C40.9288 12.2901 39.2688 11.8001 37.5888 11.4501C33.2188 10.5401 38.4088 9.27011 39.8788 9.02011C41.8288 8.69011 54.3188 6.52011 58.4288 6.50011C63.0688 6.47011 67.6888 7.01011 72.7588 7.95011C79.0888 9.12011 85.2888 10.7901 91.6288 11.9201C95.3088 12.5701 98.8888 13.7601 102.509 14.6501C103.469 14.8901 106.269 15.2301 106.709 16.2001C107.529 17.9801 92.1088 21.2901 89.7488 21.3601C81.0188 21.6101 72.7088 18.5101 63.8888 16.9001ZM115.209 70.3701C115.019 74.1601 115.089 76.5601 114.449 78.2801C113.249 81.5301 108.059 83.6001 108.059 83.6001C108.059 83.6001 99.0388 88.0101 93.3588 89.7901C87.6688 91.5701 89.4388 82.6801 89.4388 82.6801C89.4388 82.6801 89.5988 44.6401 89.4388 37.8801C89.2088 27.8001 94.3188 27.2201 94.3188 27.2201L108.189 23.6601C115.819 21.2601 115.069 28.7101 115.069 28.7101C115.069 28.7101 115.819 58.0501 115.209 70.3701Z" fill="#855C52"/>
<path d="M45 107.03V114.1C45 114.1 45.62 116.9 47.89 117.97C50.16 119.04 55.49 122.5 66.69 122.77C77.89 123.04 84.82 119.17 84.82 119.17C84.82 119.17 87.09 118.24 87.22 115.84C87.35 113.44 87.38 109.65 87.38 109.65L45 107.03Z" fill="#855C52"/>
<path d="M77.6386 103.25C79.2186 103.75 80.7686 104.37 82.1886 105.01C86.1186 106.79 87.4386 108.62 87.3786 109.65C87.3586 109.84 87.2986 110.03 87.1986 110.23C86.9586 110.73 86.4386 111.26 85.6786 111.78C85.0886 112.18 84.3486 112.58 83.4586 112.95C80.4086 114.22 75.6486 115.22 69.4086 115.22C68.2286 115.22 67.0186 115.18 65.7786 115.11C59.7986 114.74 54.2686 113.52 50.1986 111.67C49.7386 111.46 49.3186 111.25 48.9286 111.05C48.0586 110.59 47.3486 110.13 46.7986 109.69C46.0586 109.1 45.5786 108.54 45.3086 108.06C45.0786 107.67 44.9786 107.32 44.9986 107.04C45.0886 105.54 47.1786 104.54 48.3286 104.01C49.5786 103.43 50.9086 103.01 52.2386 102.67C53.8086 102.27 55.5086 101.84 57.1186 101.71C62.2986 101.29 67.7086 101.62 72.8786 102.2C74.4186 102.36 76.0486 102.75 77.6386 103.25Z" fill="#78A3AD"/>
<path d="M74.33 105.74V96.2599L57.94 92.6899V105.23C57.83 106.96 61.42 108.58 65.95 108.86C70.47 109.14 74.23 107.97 74.33 106.24C74.35 106.07 74.29 105.9 74.23 105.73L74.33 105.74Z" fill="#855C52"/>
<path d="M67.2582 111.04C66.7882 111.04 66.3082 111.03 65.8182 111C63.3682 110.85 61.0682 110.33 59.3182 109.54C56.1082 108.09 55.7382 106.14 55.8082 105.11V92.7C55.8082 92.05 56.0982 91.44 56.6082 91.04C56.8578 90.8433 57.1471 90.703 57.4561 90.6287C57.7651 90.5545 58.0865 90.5481 58.3982 90.61L74.7982 94.18C75.7782 94.39 76.4782 95.26 76.4782 96.27V105.75C76.4782 105.81 76.4682 105.88 76.4682 105.94C76.4782 106.1 76.4882 106.27 76.4682 106.46C76.2782 109.26 72.7582 111.04 67.2582 111.04ZM60.0682 105.05C60.6082 105.58 62.7582 106.53 66.0782 106.74C69.2682 106.95 71.4482 106.29 72.1282 105.87C72.0482 105.52 72.0682 105.19 72.1982 104.87V97.99L60.0682 95.35V105.05Z" fill="#855C52"/>
</svg>
