<svg width="51" height="51" viewBox="0 0 51 51" fill="none" xmlns="http://www.w3.org/2000/svg">
<g clip-path="url(#clip0_419_771)">
<path d="M39.8438 31.875C37.6373 31.875 35.4803 31.2207 33.6457 29.9948C31.811 28.769 30.3811 27.0266 29.5367 24.9881C28.6923 22.9495 28.4714 20.7064 28.9019 18.5423C29.3323 16.3782 30.3949 14.3903 31.9551 12.8301C33.5153 11.2699 35.5032 10.2073 37.6673 9.77687C39.8314 9.3464 42.0745 9.56733 44.1131 10.4117C46.1516 11.2561 47.894 12.686 49.1198 14.5207C50.3457 16.3553 51 18.5123 51 20.7188L51.051 22.3125C51.051 25.2426 50.4739 28.1441 49.3526 30.8511C48.2313 33.5582 46.5877 36.0179 44.5158 38.0898C42.4439 40.1617 39.9842 41.8053 37.2771 42.9266C34.57 44.0479 31.6686 44.625 28.7385 44.625V38.25C30.8324 38.2556 32.9066 37.8461 34.8412 37.0451C36.7758 36.2442 38.5324 35.0676 40.0095 33.5835C40.5836 33.0105 41.1132 32.3946 41.5937 31.7411C41.0148 31.8321 40.4297 31.8779 39.8438 31.8782V31.875ZM11.1563 31.875C8.94976 31.875 6.79281 31.2207 4.95817 29.9948C3.12354 28.769 1.69361 27.0266 0.849224 24.9881C0.00483391 22.9495 -0.216097 20.7064 0.214369 18.5423C0.644836 16.3782 1.70737 14.3903 3.26759 12.8301C4.82782 11.2699 6.81568 10.2073 8.97978 9.77687C11.1439 9.3464 13.387 9.56733 15.4256 10.4117C17.4641 11.2561 19.2065 12.686 20.4323 14.5207C21.6582 16.3553 22.3125 18.5123 22.3125 20.7188L22.3635 22.3125C22.3635 28.2301 20.0127 33.9054 15.8283 38.0898C11.6439 42.2742 5.96865 44.625 0.051005 44.625V38.25C2.14487 38.2556 4.21907 37.8461 6.15368 37.0451C8.0883 36.2442 9.84493 35.0676 11.322 33.5835C11.8961 33.0105 12.4257 32.3946 12.9062 31.7411C12.3273 31.8321 11.7422 31.8779 11.1563 31.8782V31.875Z" fill="#230000"/>
</g>
<defs>
<clipPath id="clip0_419_771">
<rect width="51" height="51" fill="white"/>
</clipPath>
</defs>
</svg>
