<svg width="128" height="128" viewBox="0 0 128 128" fill="none" xmlns="http://www.w3.org/2000/svg">
<path d="M3.76953 71.73L20.1095 55.63L47.9295 50.7L45.1795 65.26L7.56953 76.82L5.13953 75.77L3.76953 71.73Z" fill="#CA2C31"/>
<path d="M22.9392 59.76L5.19922 75.88L18.2492 82.24L38.0592 72.13V67.36L42.1092 56.44L22.9392 59.76ZM64.9192 88.15L56.3492 91.87L48.2592 109.02C48.2592 109.02 55.3792 124.79 55.6992 124.79C56.0192 124.79 60.0692 125.11 60.0692 125.11L74.4692 109.01L78.1092 81.51L64.9192 88.15Z" fill="#A02422"/>
<path d="M56.5002 100.84C56.5002 100.84 61.2702 99.87 64.6702 98.25C68.0702 96.63 72.2702 94.21 72.2702 94.21L70.7302 107.64L55.6802 124.77C55.6802 124.77 55.0902 124.04 52.5902 118.6C50.6002 114.26 49.9102 112.71 49.9102 112.71L56.5002 100.84Z" fill="#CA2C31"/>
<path d="M31.5813 80.66C31.5813 80.66 25.8413 80.18 19.5513 88.13C13.8113 95.39 11.1213 107.21 10.0813 110.25C9.04133 113.29 6.55133 113.91 7.38133 115.3C8.21133 116.69 11.8013 116.61 16.2313 116.06C20.6613 115.51 24.4613 114.12 24.4613 114.12C24.4613 114.12 24.2713 114.6 23.6313 115.64C23.4013 116.01 22.6013 116.54 22.6613 117.09C22.8013 118.4 34.0213 118.43 42.9813 109.21C52.6613 99.26 47.9613 91.1 47.9613 91.1L31.5813 80.66Z" fill="#F7D74D"/>
<path d="M33.3086 85.29C33.3086 85.29 27.1186 85.62 21.9986 93.57C16.8786 101.52 14.4986 110.73 14.9886 111.35C15.4686 111.97 25.0086 108.52 27.2986 109.21C28.8686 109.69 28.0586 111.28 28.4786 111.7C28.8286 112.05 32.9686 112.64 39.6686 105.38C46.3786 98.12 44.7886 87.92 44.7886 87.92L33.3086 85.29Z" fill="#FBF0B4"/>
<path d="M36.3517 74.44C36.3517 74.44 33.2417 77.21 32.1317 78.8C31.0217 80.39 31.0217 80.53 31.0917 81.01C31.1617 81.49 32.3117 86.76 37.1017 91.38C42.9817 97.05 48.2317 97.81 48.9917 97.81C49.7517 97.81 54.8017 92.14 54.8017 92.14L36.3517 74.44Z" fill="#858585"/>
<path d="M50.1016 91.24C50.1016 91.24 55.1416 94.55 63.5916 91.71C75.1416 87.83 83.6116 79.15 94.1016 68.19C104.222 57.61 112.712 44.48 112.712 44.48L106.762 24.55L50.1016 91.24Z" fill="#437687"/>
<path d="M67.9883 80.33L69.3783 76.01L72.8583 76.5C72.8583 76.5 75.5083 77.75 77.4583 78.66C79.4083 79.57 81.9183 80.26 81.9183 80.26L76.9683 84.44C76.9683 84.44 74.2683 83.42 72.2983 82.56C70.0783 81.59 67.9883 80.33 67.9883 80.33Z" fill="#3F545F"/>
<path d="M84.3218 16.14C84.3218 16.14 74.7018 21.72 60.9118 34.77C48.4818 46.53 39.2718 57.17 37.0418 66.22C35.1818 73.8 36.1718 78.4 40.4018 83.37C44.8718 88.63 50.1118 91.24 50.1118 91.24C50.1118 91.24 54.0518 91.3 70.4918 78.65C91.0018 62.86 107.432 36.42 107.432 36.42L84.3218 16.14Z" fill="#8DAFBF"/>
<path d="M104.18 41.84C104.18 41.84 95.8099 38.27 89.8399 29.94C83.9099 21.67 84.3799 16.08 84.3799 16.08C84.3799 16.08 89.3399 12.19 100.49 7.74001C107.99 4.75001 118.2 3.22001 121.56 5.71001C124.92 8.20001 119.26 20.69 119.26 20.69L108.95 40.65L104.18 41.84Z" fill="#D83F22"/>
<path d="M68.1698 80.4C68.1698 80.4 60.9398 76.71 56.3398 71.46C47.6398 61.55 45.8398 50.67 45.8398 50.67L50.2098 45.54C50.2098 45.54 51.2998 57.1 60.6298 67.09C66.7098 73.6 73.0598 76.58 73.0598 76.58C73.0598 76.58 71.7898 77.65 70.4298 78.69C69.5598 79.36 68.1698 80.4 68.1698 80.4Z" fill="#6896A5"/>
<path d="M112.71 44.48C112.71 44.48 117.05 39.25 121.16 27.46C126.9 11.02 121.9 6.03998 121.9 6.03998C121.9 6.03998 120.21 13.86 114.34 24.73C109.63 33.44 103.93 41.73 103.93 41.73C103.93 41.73 107.07 43.14 108.77 43.63C110.91 44.25 112.71 44.48 112.71 44.48Z" fill="#A02422"/>
<path d="M39.8107 69.66C41.1107 70.9 43.0807 69.6 44.3707 66.56C45.6707 63.52 45.6507 61.82 44.6507 61.1C43.4107 60.2 41.3307 62.17 40.4207 63.92C39.4207 65.86 38.8307 68.72 39.8107 69.66ZM84.9507 20.13C84.9507 20.13 77.3407 25.6 69.2207 33.04C61.7707 39.87 56.8307 45.21 56.1507 46.45C55.4307 47.78 55.4207 49.66 55.9807 50.62C56.5407 51.58 57.7807 52.08 58.9107 51.24C60.0407 50.39 68.0907 41.49 75.3607 35.13C82.0107 29.31 87.1407 25.62 87.1407 25.62C87.1407 25.62 89.2207 21.94 88.8807 21.1C88.5407 20.25 84.9507 20.13 84.9507 20.13Z" fill="#B3E1EE"/>
<path d="M84.9492 20.13C84.9492 20.13 90.5692 15.82 96.6892 12.79C102.379 9.96999 108.039 7.61999 109.059 9.65999C110.029 11.6 103.689 14.24 98.1092 17.8C92.5292 21.36 87.1592 25.61 87.1592 25.61C87.1592 25.61 86.3392 24.11 85.8092 22.72C85.473 21.8739 85.1859 21.0091 84.9492 20.13Z" fill="#ED6A65"/>
<path d="M89.5911 39.25C84.0211 34.12 76.2711 35.5 72.4511 40.06C68.5311 44.76 68.8211 51.94 73.4511 56.26C77.6611 60.18 85.4911 61.07 90.2111 55.57C94.4111 50.69 94.1511 43.44 89.5911 39.25Z" fill="#E1E1E1"/>
<path d="M75.3303 41.87C72.0203 45.12 72.2003 51.56 76.1403 54.5C79.5803 57.07 84.4603 56.94 87.5203 53.81C90.5803 50.68 90.5803 44.99 87.7103 42.05C84.4103 38.68 79.1203 38.15 75.3303 41.87Z" fill="#3F545F"/>
<path d="M50.0015 76.89C50.0015 76.89 56.1915 70.61 56.8715 71.29C57.5515 71.97 57.4615 75.78 54.5015 80.02C51.5315 84.26 45.0015 91.81 39.8315 96.9C34.7315 101.91 27.5415 107.64 26.8615 107.54C26.3315 107.46 24.1815 106.39 23.3215 105.35C22.4815 104.32 24.9915 99.45 26.0015 97.84C27.0215 96.23 50.0015 76.89 50.0015 76.89Z" fill="#A02524"/>
<path d="M21.2287 101.85C21.1487 103.29 23.3487 105.39 23.3487 105.39L56.8687 71.3C56.8687 71.3 55.2987 69.53 50.6787 72.4C46.0187 75.3 41.9387 78.78 35.9187 84.61C27.5287 92.75 21.3087 100.41 21.2287 101.85Z" fill="#CA2C31"/>
<path d="M19.06 36.95C17.95 38.06 17.9 39.84 19.14 40.86C20.24 41.77 22.03 41.18 22.7 40.36C23.37 39.54 23.29 37.76 22.4 36.88C21.51 35.99 19.74 36.28 19.06 36.95Z" fill="white"/>
<path opacity="0.5" d="M41.0195 35.65C40.1795 36.58 40.4495 37.96 41.2295 38.47C42.0095 38.98 43.1795 38.93 43.7495 38.23C44.2595 37.6 44.3195 36.34 43.5395 35.56C42.8595 34.89 41.5595 35.05 41.0195 35.65Z" fill="white"/>
<path d="M55.5495 11.89C55.5495 11.89 56.7695 8.41003 57.4895 8.37003C58.2195 8.33003 59.2695 11.85 59.2695 11.85C59.2695 11.85 62.8795 11.89 63.1195 12.42C63.4295 13.1 60.8095 15.38 60.8095 15.38C60.8095 15.38 61.6595 18.78 61.2595 19.19C60.8095 19.64 57.6995 17.85 57.6995 17.85C57.6995 17.85 54.4995 20.08 53.8095 19.47C53.2095 18.94 54.4595 15.34 54.4595 15.34C54.4595 15.34 51.4595 13.15 51.6195 12.54C51.8495 11.68 55.5495 11.89 55.5495 11.89ZM97.0095 95.33C98.2195 96 99.7395 95.62 100.299 94.33C100.809 93.18 99.8695 91.81 99.0195 91.44C98.1695 91.07 96.6795 91.56 96.1395 92.53C95.6095 93.49 96.2795 94.93 97.0095 95.33ZM114.189 65.84C113.499 64.77 112.009 64.42 111.039 65.28C110.099 66.12 110.329 67.44 110.859 68.11C111.389 68.78 112.809 69.03 113.669 68.48C114.529 67.93 114.609 66.48 114.189 65.84Z" fill="white"/>
</svg>
