<svg width="128" height="128" viewBox="0 0 128 128" fill="none" xmlns="http://www.w3.org/2000/svg">
<path d="M98.8985 79.85C97.6485 77.58 99.2385 75.27 101.958 72.41C106.268 67.87 110.958 57.34 106.598 46.65C106.628 46.59 105.738 44.79 105.768 44.73L103.978 44.64C103.408 44.56 83.7185 44.52 64.0085 44.52C44.2985 44.52 24.6085 44.56 24.0385 44.64C24.0385 44.64 21.3885 46.59 21.4085 46.65C17.0585 57.34 21.7385 67.86 26.0485 72.41C28.7585 75.27 30.3485 77.58 29.1085 79.85C27.8985 82.06 26.2985 82.38 26.2985 82.38C26.2985 82.38 25.1285 84.64 27.1285 85.86C28.9785 86.99 31.2585 87.25 32.8285 87.29C32.8285 87.29 38.9785 95.8 55.0585 95.8H72.9585C89.0385 95.8 95.1885 87.29 95.1885 87.29C96.7585 87.25 99.0385 86.99 100.888 85.86C102.888 84.64 103.718 82.38 103.718 82.38C103.718 82.38 100.108 82.06 98.8985 79.85Z" fill="#543930"/>
<path d="M63.9883 95.79V86.35L92.5583 84.09L95.1583 87.29C95.1583 87.29 89.0083 95.8 72.9283 95.8L63.9883 95.79Z" fill="url(#paint0_radial_409_1088)"/>
<path d="M95.1011 83.16C90.8211 76.66 100.311 74.23 100.311 74.23L100.321 74.24C98.6711 76.29 97.9211 78.08 98.8911 79.85C100.101 82.06 103.701 82.38 103.701 82.38C103.701 82.38 98.7911 86.74 95.1011 83.16Z" fill="url(#paint1_radial_409_1088)"/>
<path d="M106.622 46.65C110.872 57 106.402 67.66 102.212 72.16C101.642 72.78 99.2017 75.17 98.6417 77.08C98.6417 77.08 89.1017 63.77 86.2517 55.95C85.6817 54.37 85.1517 52.75 85.0817 51.07C85.0317 49.81 85.2217 48.31 85.9517 47.24C86.8417 45.93 106.112 45.54 106.112 45.54C106.112 45.55 106.622 46.65 106.622 46.65Z" fill="url(#paint2_radial_409_1088)"/>
<path d="M21.3986 46.65C17.1586 57 21.6286 67.66 25.8086 72.15C26.3886 72.77 28.8186 75.16 29.3786 77.07C29.3786 77.07 38.9186 63.76 41.7686 55.94C42.3486 54.36 42.8686 52.74 42.9386 51.06C42.9886 49.8 42.7986 48.3 42.0686 47.23C41.1786 45.92 40.1386 46.27 38.6286 46.27C35.7486 46.27 23.1386 45.53 22.1586 45.53C22.1686 45.55 21.3986 46.65 21.3986 46.65Z" fill="url(#paint3_radial_409_1088)"/>
<path d="M64.0294 95.79V86.35L35.4594 84.09L32.8594 87.29C32.8594 87.29 39.0094 95.8 55.0894 95.8L64.0294 95.79Z" fill="url(#paint4_radial_409_1088)"/>
<path d="M32.9203 83.16C37.2003 76.66 27.7103 74.23 27.7103 74.23L27.7003 74.24C29.3503 76.29 30.1003 78.08 29.1303 79.85C27.9203 82.06 26.3203 82.38 26.3203 82.38C26.3203 82.38 29.2303 86.74 32.9203 83.16Z" fill="url(#paint5_radial_409_1088)"/>
<path d="M112.181 123.94V119.63C112.181 106.19 88.4208 99.73 64.9908 99.76C41.7108 99.78 17.8008 105.4 17.8008 119.63V123.94H112.181Z" fill="black"/>
<path d="M64.0009 90.08H54.9209V100.06C54.9209 104.57 58.6209 108.23 63.1809 108.23H64.8309C69.3909 108.23 73.0909 104.57 73.0909 100.06V90.08H64.0009ZM91.3309 50.43H36.6709C30.7809 50.43 25.9609 55.57 25.9609 61.84C25.9609 68.11 30.7809 73.25 36.6709 73.25H91.3209C97.2109 73.25 102.031 68.11 102.031 61.84C102.031 55.57 97.2209 50.43 91.3309 50.43Z" fill="#E59600"/>
<path d="M64.0005 11.07C46.6005 11.07 30.4805 29.68 30.4805 56.47C30.4805 83.11 47.0905 96.28 64.0005 96.28C80.9105 96.28 97.5205 83.1 97.5205 56.46C97.5205 29.68 81.4005 11.07 64.0005 11.07Z" fill="#FFCA28"/>
<path d="M42.7784 41.56L73.5884 27.89L58.2784 47.99L68.3684 45.87L38.1284 82.28L40.0084 67.03L32.3984 70.15L42.7784 41.56Z" fill="url(#paint6_linear_409_1088)"/>
<path d="M47.5589 63.91C50.2817 63.91 52.4889 61.6267 52.4889 58.81C52.4889 55.9934 50.2817 53.71 47.5589 53.71C44.8361 53.71 42.6289 55.9934 42.6289 58.81C42.6289 61.6267 44.8361 63.91 47.5589 63.91Z" fill="#404040"/>
<path d="M80.4378 63.91C83.1606 63.91 85.3678 61.6267 85.3678 58.81C85.3678 55.9934 83.1606 53.71 80.4378 53.71C77.715 53.71 75.5078 55.9934 75.5078 58.81C75.5078 61.6267 77.715 63.91 80.4378 63.91Z" fill="#404040"/>
<path d="M54.9912 50.32C54.0612 49.09 51.9212 47.31 47.7612 47.31C43.6012 47.31 41.4512 49.1 40.5312 50.32C40.1212 50.86 40.2212 51.49 40.5112 51.87C40.7712 52.22 41.5512 52.55 42.4112 52.26C43.2712 51.97 44.9512 51.1 47.7612 51.08C50.5712 51.1 52.2512 51.97 53.1112 52.26C53.9712 52.55 54.7512 52.23 55.0112 51.87C55.2912 51.49 55.3912 50.86 54.9912 50.32ZM87.4812 50.32C86.5512 49.09 84.4112 47.31 80.2512 47.31C76.0912 47.31 73.9412 49.1 73.0212 50.32C72.6112 50.86 72.7112 51.49 73.0012 51.87C73.2612 52.22 74.0412 52.55 74.9012 52.26C75.7612 51.97 77.4412 51.1 80.2512 51.08C83.0612 51.1 84.7412 51.97 85.6012 52.26C86.4612 52.55 87.2412 52.23 87.5012 51.87C87.7912 51.49 87.8912 50.86 87.4812 50.32Z" fill="#6D4C41"/>
<path d="M67.8586 68.06C67.7486 68.02 67.6486 67.99 67.5386 67.98H60.4586C60.3486 67.99 60.2386 68.02 60.1386 68.06C59.4986 68.32 59.1486 68.98 59.4486 69.69C59.7486 70.4 61.1586 72.38 63.9986 72.38C66.8386 72.38 68.2486 70.39 68.5486 69.69C68.8486 68.98 68.4986 68.32 67.8586 68.06Z" fill="#E59600"/>
<path d="M72.4199 76.14C69.2399 78.03 58.7899 78.03 55.6099 76.14C53.7799 75.05 51.9099 76.72 52.6699 78.38C53.4199 80.01 59.1099 83.8 64.0399 83.8C68.9699 83.8 74.5899 80.01 75.3399 78.38C76.0899 76.72 74.2499 75.05 72.4199 76.14Z" fill="#795548"/>
<path d="M113.839 86.8L113.929 86.79C115.649 86.97 117.199 85.92 117.399 84.43L118.229 78.41C118.429 76.92 117.189 75.56 115.479 75.38C113.759 75.2 112.209 76.25 112.009 77.74L111.179 83.76C110.979 85.25 112.119 86.62 113.839 86.8Z" fill="url(#paint7_linear_409_1088)"/>
<path d="M112.178 100.06C107.208 100.21 101.748 99.15 100.098 94.12C99.2182 91.43 99.4382 88.67 99.9982 86.09C100.618 83.23 100.668 81.78 100.468 79.52C100.328 77.86 99.2782 64.9 99.2782 64.9C99.2782 64.9 98.6382 62.54 100.758 61.86C103.088 60.97 103.948 63.54 103.948 63.54L106.468 81.38L117.448 82.63C117.448 82.63 117.878 81.92 118.118 80.14C118.228 79.38 118.088 77.97 118.208 77.07C118.778 72.91 119.478 67.88 119.548 67.46C119.668 66.74 120.448 65.68 121.938 65.89C123.438 66.09 123.828 67.2 123.758 67.92C123.688 68.65 123.148 74.48 123.148 74.48C122.988 77.28 122.828 80.37 123.088 83.16L123.298 85.4C123.638 89.01 123.108 92.8 121.538 95.62C119.928 98.57 117.148 99.91 112.178 100.06Z" fill="url(#paint8_linear_409_1088)"/>
<path d="M108.599 87.02C110.329 87.06 111.789 85.88 111.869 84.38L112.209 77.47C112.279 75.97 110.949 74.72 109.219 74.67C107.489 74.63 106.029 75.81 105.949 77.31L105.609 84.22C105.529 85.73 106.869 86.98 108.599 87.02Z" fill="url(#paint9_linear_409_1088)"/>
<path d="M113.84 82.79C111.91 82.45 109.52 82.02 107.23 81.9C106.91 81.88 106.59 81.87 106.27 81.86C103.26 81.81 101.07 83.49 99.9798 87.26C99.9398 87.38 99.9098 87.5 99.8698 87.63C99.8098 87.85 99.7498 88.09 99.6998 88.35V88.38C99.6298 88.72 99.5598 89.07 99.5098 89.45C99.3198 90.7 99.4398 91.9 99.7298 92.87C100.52 96.33 102.95 97.97 102.95 97.97C102.95 97.97 109.24 101.12 110.68 97.97C112.12 94.82 110.03 90.42 110.03 90.42L107.11 88.69C107.72 87.94 108.61 87.62 110.36 87.72C110.91 87.75 111.58 87.82 112.4 87.9C112.48 87.91 113.48 88.02 113.55 88.02C114.66 88.08 115.53 87.74 116.21 86.98C117.09 85.99 116.98 84.31 117.05 83.51C116.25 83.43 114.9 82.98 113.84 82.79Z" fill="url(#paint10_linear_409_1088)"/>
<path d="M54.3783 123.94L53.5083 102.35C50.0983 103.76 46.6583 104.45 43.0483 104.45C37.1483 104.45 31.9683 102.55 27.8183 101.02C24.9783 99.98 22.5183 99.07 20.6683 99.07C18.4083 99.07 17.4883 101.04 17.4883 105.88V123.94H54.3783Z" fill="url(#paint11_linear_409_1088)"/>
<path d="M111.802 123.94V105.88C111.802 101.05 110.882 99.07 108.622 99.07C106.792 99.07 104.232 99.95 101.282 100.98C96.8716 102.51 91.3816 104.41 85.2416 104.41C81.5216 104.41 78.0216 103.73 74.6016 102.34L74.7216 123.94H111.802Z" fill="url(#paint12_linear_409_1088)"/>
<path d="M57.9511 123.94L56.2111 112L23.1211 118.22L27.2311 123.94H57.9511Z" fill="url(#paint13_linear_409_1088)"/>
<path d="M39.6103 123.94H57.8803L54.9203 96.91L25.3203 104.11L38.1403 121.83L39.6103 123.94Z" fill="url(#paint14_linear_409_1088)"/>
<path d="M100.851 123.94L104.871 118.34L71.3314 112L69.6914 123.94H100.851Z" fill="url(#paint15_linear_409_1088)"/>
<path d="M87.0717 123.94L89.6117 120.29L102.432 102.57L73.0817 96.91L69.7617 123.94H87.0717Z" fill="url(#paint16_linear_409_1088)"/>
<path d="M121.731 123.94L121.581 97.94L98.8711 98.02L98.8811 123.94H121.731Z" fill="url(#paint17_linear_409_1088)"/>
<path d="M99.6881 112.06C101.958 112.06 103.798 110.22 103.798 107.95C103.798 105.68 101.958 103.84 99.6881 103.84C97.4182 103.84 95.5781 105.68 95.5781 107.95C95.5781 110.22 97.4182 112.06 99.6881 112.06Z" fill="#E6E7E8"/>
<path d="M110.301 112.03C112.571 112.03 114.411 110.19 114.411 107.92C114.411 105.65 112.571 103.81 110.301 103.81C108.032 103.81 106.191 105.65 106.191 107.92C106.191 110.19 108.032 112.03 110.301 112.03Z" fill="#FF3D00"/>
<path d="M120.899 111.99C123.169 111.99 125.009 110.15 125.009 107.88C125.009 105.61 123.169 103.77 120.899 103.77C118.629 103.77 116.789 105.61 116.789 107.88C116.789 110.15 118.629 111.99 120.899 111.99Z" fill="#808285"/>
<path d="M34.2093 87.9L11.4893 97.29L11.1493 96.63C11.0793 96.69 11.0093 96.75 10.9193 96.8L9.66934 97.53V123.94H6.53934V99.33C6.12116 99.5186 5.64663 99.5398 5.21328 99.3894C4.77992 99.2389 4.42069 98.9281 4.20941 98.5209C3.99813 98.1137 3.95087 97.641 4.07733 97.2001C4.20379 96.7591 4.49437 96.3834 4.88934 96.15L9.10934 93.69C9.25934 93.6 9.41934 93.55 9.57934 93.51L8.94934 92.25L30.1393 79.52C30.0993 79.89 30.0893 80.26 30.0993 80.64C30.1462 82.0923 30.5447 83.5115 31.2605 84.776C31.9764 86.0405 32.9882 87.1125 34.2093 87.9Z" fill="#5D5F61"/>
<path d="M42.6781 86.85C42.4581 86.96 42.2381 87.06 42.0081 87.14C41.5781 87.31 41.1381 87.44 40.6981 87.52C39.1981 87.8 37.6681 87.62 36.3081 87.03L35.3881 87.41C34.1328 86.7606 33.0735 85.7881 32.3194 84.5927C31.5653 83.3974 31.1437 82.0226 31.0981 80.61C31.0781 80.02 31.1281 79.43 31.2381 78.87L31.9781 78.42C32.3181 76.98 33.0781 75.64 34.1881 74.63C34.5181 74.3 34.8681 74.03 35.2581 73.79C35.4681 73.65 35.6881 73.52 35.9181 73.41C39.6381 71.54 44.1581 73.04 46.0181 76.75C47.8881 80.46 46.3981 84.98 42.6781 86.85Z" fill="#5D5F61"/>
<path opacity="0.3" d="M17.5 112.52H121.73V123.94H17.5V112.52Z" fill="url(#paint18_linear_409_1088)"/>
<path d="M104.07 25.11C101.63 21.42 96.1601 16.47 91.2501 16.14C90.4601 11.42 85.4101 7.42001 80.5201 5.87001C67.2901 1.68001 58.6801 6.38001 54.0601 8.90001C53.1001 9.42001 46.8901 12.87 42.5501 10.4C39.8301 8.85001 39.8801 4.66001 39.8801 4.66001C39.8801 4.66001 31.3601 7.91001 34.2701 16.96C31.3401 17.08 27.5001 18.32 25.4701 22.43C23.0501 27.33 23.9101 31.42 24.6101 33.38C22.0901 35.52 18.9201 40.07 21.0901 45.98C22.7301 50.43 29.2601 52.48 29.2601 52.48C28.8001 60.49 30.2901 65.42 31.0801 67.41C31.2201 67.76 31.7101 67.73 31.8001 67.37C32.7901 63.4 36.1701 49.57 35.8301 47.16C35.8301 47.16 47.1801 44.91 58.0001 36.94C60.2001 35.32 62.5901 33.94 65.1301 32.93C78.7201 27.52 81.5601 36.75 81.5601 36.75C81.5601 36.75 90.9801 34.94 93.8201 48.02C94.8901 52.92 95.6101 60.77 96.2201 66.26C96.2601 66.65 96.7901 66.73 96.9401 66.37C97.8901 64.19 99.7901 59.87 100.24 55.46C100.4 53.91 104.58 51.86 106.38 45.2C108.79 36.32 105.84 27.78 104.07 25.11Z" fill="#543930"/>
<path d="M100.22 55.5C100.38 53.95 104.56 51.9 106.36 45.24C106.55 44.53 106.71 43.81 106.86 43.09C108.32 35 105.7 27.57 104.07 25.11C101.81 21.7 96.9695 17.22 92.3795 16.3C91.9795 16.25 91.5895 16.2 91.2195 16.18C91.2195 16.18 91.5495 18.33 90.6795 20.04C89.5595 22.26 87.2695 22.79 87.2695 22.79C99.2395 34.77 98.3895 44.79 100.22 55.5Z" fill="url(#paint19_radial_409_1088)"/>
<path d="M56.9498 7.38999C55.8498 7.91999 54.8898 8.44999 54.0498 8.89999C53.0898 9.41999 46.8798 12.87 42.5398 10.4C39.8698 8.87999 39.8698 4.81999 39.8698 4.67999C38.6398 6.24999 34.9198 17.46 45.7998 18.21C50.4898 18.53 53.3798 14.44 55.0998 10.98C55.7198 9.71999 56.6898 7.87999 56.9498 7.38999Z" fill="url(#paint20_radial_409_1088)"/>
<path d="M79.1594 5.47C86.4794 7.45 90.0494 11.18 91.2394 16.15C91.5894 17.61 92.0094 31.23 66.0094 15.75C56.3394 9.99 58.9794 6.39 60.1094 5.98C64.5294 4.38 70.9594 3.25 79.1594 5.47Z" fill="url(#paint21_radial_409_1088)"/>
<path d="M39.8393 4.67997C39.8293 4.68997 39.8093 4.68997 39.7793 4.70997H39.7693C38.8393 5.09997 31.5293 8.48997 34.2593 16.96L42.0393 18.21C35.1493 11.23 39.8693 4.65997 39.8693 4.65997C39.8693 4.65997 39.8493 4.66997 39.8393 4.67997Z" fill="url(#paint22_radial_409_1088)"/>
<path d="M39.0681 17.73L34.2581 16.96C34.0681 16.96 33.4281 17.02 33.0781 17.07C30.3681 17.45 27.1781 18.85 25.4481 22.43C23.5881 26.29 23.6381 29.6 24.1481 31.81C24.2981 32.55 24.5981 33.39 24.5981 33.39C24.5981 33.39 26.9781 31.13 32.6481 30.98L39.0681 17.73Z" fill="url(#paint23_radial_409_1088)"/>
<path d="M24.3692 33.58C21.9992 35.68 18.8092 40.37 21.1592 46.19C22.9292 50.58 29.2492 52.48 29.2492 52.48C29.2492 52.5 30.5092 52.88 31.1592 52.88L32.6392 30.98C29.6092 30.98 26.6992 31.89 24.8192 33.2C24.8492 33.23 24.3592 33.55 24.3692 33.58Z" fill="url(#paint24_radial_409_1088)"/>
<path d="M39.0716 88.32C43.4733 88.32 47.0416 84.7517 47.0416 80.35C47.0416 75.9483 43.4733 72.38 39.0716 72.38C34.6699 72.38 31.1016 75.9483 31.1016 80.35C31.1016 84.7517 34.6699 88.32 39.0716 88.32Z" fill="#434444"/>
<path d="M35.3913 87.41L34.2113 87.9C31.8213 86.36 30.2113 83.71 30.1013 80.64C30.0913 80.26 30.1013 79.89 30.1413 79.52L31.2413 78.87C31.129 79.4428 31.082 80.0266 31.1013 80.61C31.2013 83.59 32.9213 86.13 35.3913 87.41Z" fill="#727475"/>
<path d="M42.7185 87.44C42.2985 87.66 41.8585 87.83 41.4085 87.97L41.3985 87.96C41.0085 87.75 40.6085 87.48 40.2085 87.15C38.8085 86.02 37.4585 84.32 36.3685 82.33C36.2785 82.16 36.1785 81.99 36.0985 81.82C34.6085 78.92 33.9885 76.06 34.2185 74C34.5785 73.72 34.9685 73.48 35.3785 73.26C36.2885 72.78 37.3185 72.49 38.3985 72.4L38.8085 72.37C39.2785 72.35 39.7485 72.38 40.2085 72.45C43.9685 72.98 46.9185 76.15 47.0385 80.08C47.0916 81.4769 46.7668 82.8622 46.0985 84.09C45.8185 84.64 45.4585 85.15 45.0485 85.6C44.3982 86.3583 43.6069 86.9832 42.7185 87.44Z" fill="#434444"/>
<path d="M40.8515 86.39C39.4415 85.26 38.0715 83.48 37.0115 81.38C35.2715 77.97 34.8615 74.92 35.4015 73.28C34.9915 73.49 34.6015 73.74 34.2415 74.02C34.0115 76.07 34.6415 78.93 36.1215 81.84C36.2015 82.01 36.3015 82.19 36.3915 82.35C37.4815 84.34 38.8315 86.04 40.2315 87.17C40.6415 87.49 41.0415 87.77 41.4215 87.98L41.4315 87.99C41.8815 87.85 42.3215 87.68 42.7415 87.46C42.1515 87.28 41.5215 86.92 40.8515 86.39Z" fill="#5D5F61"/>
<path d="M118.182 77.58C118.002 78.93 116.832 82.79 116.832 82.79C115.332 82.18 113.962 81.75 112.712 81.45C112.592 80.56 112.302 78.4 112.192 77.11C111.942 78.17 111.292 80.29 111.032 81.12C109.252 80.84 107.752 80.86 106.502 81.06C106.422 80.37 106.122 77.99 105.962 77.31C105.842 77.91 105.742 79.22 105.622 79.83C105.512 80.39 105.372 81 105.302 81.31C103.992 81.67 103.032 82.22 102.342 82.74C101.812 83.1 101.352 83.53 101.022 84.08L100.922 84.23C101.882 83.36 103.212 82.88 104.452 82.58C107.862 81.76 112.312 82.07 115.522 83.49C116.842 84.08 117.102 85.09 116.232 86.22C114.962 87.89 112.782 87.13 111.032 86.98C109.512 86.85 106.992 87.04 106.542 88.91C109.942 89.44 111.152 93.17 111.062 96.2C112.322 93.4 111.502 90.37 108.492 88.4C110.422 87.34 116.802 90.43 117.762 85.51C118.182 83.3 118.242 78.62 118.182 77.58Z" fill="#EDA600"/>
<defs>
<radialGradient id="paint0_radial_409_1088" cx="0" cy="0" r="1" gradientUnits="userSpaceOnUse" gradientTransform="translate(78.5813 82.1505) scale(23.419 11.5034)">
<stop offset="0.728" stop-color="#6D4C41" stop-opacity="0"/>
<stop offset="1" stop-color="#6D4C41"/>
</radialGradient>
<radialGradient id="paint1_radial_409_1088" cx="0" cy="0" r="1" gradientUnits="userSpaceOnUse" gradientTransform="translate(101.652 78.6654) rotate(154.924) scale(6.92065 5.13414)">
<stop offset="0.663" stop-color="#6D4C41"/>
<stop offset="1" stop-color="#6D4C41" stop-opacity="0"/>
</radialGradient>
<radialGradient id="paint2_radial_409_1088" cx="0" cy="0" r="1" gradientUnits="userSpaceOnUse" gradientTransform="translate(83.7165 59.0914) rotate(-94.2783) scale(30.3986 25.3353)">
<stop offset="0.725" stop-color="#6D4C41" stop-opacity="0"/>
<stop offset="1" stop-color="#6D4C41"/>
</radialGradient>
<radialGradient id="paint3_radial_409_1088" cx="0" cy="0" r="1" gradientUnits="userSpaceOnUse" gradientTransform="translate(44.3071 59.0909) rotate(-85.7217) scale(30.3986 25.3353)">
<stop offset="0.725" stop-color="#6D4C41" stop-opacity="0"/>
<stop offset="1" stop-color="#6D4C41"/>
</radialGradient>
<radialGradient id="paint4_radial_409_1088" cx="0" cy="0" r="1" gradientUnits="userSpaceOnUse" gradientTransform="translate(49.4384 82.1505) rotate(180) scale(23.419 11.5034)">
<stop offset="0.728" stop-color="#6D4C41" stop-opacity="0"/>
<stop offset="1" stop-color="#6D4C41"/>
</radialGradient>
<radialGradient id="paint5_radial_409_1088" cx="0" cy="0" r="1" gradientUnits="userSpaceOnUse" gradientTransform="translate(27.9505 78.6654) rotate(25.0761) scale(6.06569 4.49988)">
<stop offset="0.663" stop-color="#6D4C41"/>
<stop offset="1" stop-color="#6D4C41" stop-opacity="0"/>
</radialGradient>
<linearGradient id="paint6_linear_409_1088" x1="52.9934" y1="36.918" x2="52.9934" y2="72.987" gradientUnits="userSpaceOnUse">
<stop stop-color="#FF6D00"/>
<stop offset="0.263" stop-color="#FD6900"/>
<stop offset="0.502" stop-color="#F75E00"/>
<stop offset="0.733" stop-color="#EE4C00"/>
<stop offset="0.957" stop-color="#E03200"/>
<stop offset="1" stop-color="#DD2C00"/>
</linearGradient>
<linearGradient id="paint7_linear_409_1088" x1="111.157" y1="81.087" x2="118.256" y2="81.087" gradientUnits="userSpaceOnUse">
<stop offset="0.5" stop-color="#FFCA28"/>
<stop offset="1" stop-color="#FFB300"/>
</linearGradient>
<linearGradient id="paint8_linear_409_1088" x1="99.1922" y1="80.875" x2="123.782" y2="80.875" gradientUnits="userSpaceOnUse">
<stop offset="0.5" stop-color="#FFCA28"/>
<stop offset="1" stop-color="#FFB300"/>
</linearGradient>
<linearGradient id="paint9_linear_409_1088" x1="105.532" y1="80.8994" x2="112.299" y2="80.7471" gradientUnits="userSpaceOnUse">
<stop offset="0.5" stop-color="#FFCA28"/>
<stop offset="1" stop-color="#FFB300"/>
</linearGradient>
<linearGradient id="paint10_linear_409_1088" x1="108.642" y1="83.914" x2="106.642" y2="99.309" gradientUnits="userSpaceOnUse">
<stop offset="0.5" stop-color="#FFCA28"/>
<stop offset="1" stop-color="#FFB300"/>
</linearGradient>
<linearGradient id="paint11_linear_409_1088" x1="35.9383" y1="102.612" x2="35.9383" y2="128.312" gradientUnits="userSpaceOnUse">
<stop offset="0.004" stop-color="#666666"/>
<stop offset="0.012" stop-color="#656565"/>
<stop offset="0.274" stop-color="#484747"/>
<stop offset="0.53" stop-color="#343131"/>
<stop offset="0.776" stop-color="#272324"/>
<stop offset="1" stop-color="#231F20"/>
</linearGradient>
<linearGradient id="paint12_linear_409_1088" x1="93.2046" y1="102.612" x2="93.2046" y2="128.312" gradientUnits="userSpaceOnUse">
<stop offset="0.004" stop-color="#666666"/>
<stop offset="0.012" stop-color="#656565"/>
<stop offset="0.274" stop-color="#484747"/>
<stop offset="0.53" stop-color="#343131"/>
<stop offset="0.776" stop-color="#272324"/>
<stop offset="1" stop-color="#231F20"/>
</linearGradient>
<linearGradient id="paint13_linear_409_1088" x1="40.5331" y1="114.333" x2="40.5331" y2="128.009" gradientUnits="userSpaceOnUse">
<stop offset="0.004" stop-color="#666666"/>
<stop offset="0.266" stop-color="#717273"/>
<stop offset="0.649" stop-color="#7C7E81"/>
<stop offset="1" stop-color="#808285"/>
</linearGradient>
<linearGradient id="paint14_linear_409_1088" x1="41.5993" y1="99.167" x2="41.5993" y2="126.669" gradientUnits="userSpaceOnUse">
<stop stop-color="#FF6D00"/>
<stop offset="0.263" stop-color="#FD6900"/>
<stop offset="0.502" stop-color="#F75E00"/>
<stop offset="0.733" stop-color="#EE4C00"/>
<stop offset="0.957" stop-color="#E03200"/>
<stop offset="1" stop-color="#DD2C00"/>
</linearGradient>
<linearGradient id="paint15_linear_409_1088" x1="87.2834" y1="114.333" x2="87.2834" y2="128.009" gradientUnits="userSpaceOnUse">
<stop offset="0.004" stop-color="#666666"/>
<stop offset="0.266" stop-color="#717273"/>
<stop offset="0.649" stop-color="#7C7E81"/>
<stop offset="1" stop-color="#808285"/>
</linearGradient>
<linearGradient id="paint16_linear_409_1088" x1="86.1007" y1="99.167" x2="86.1007" y2="126.669" gradientUnits="userSpaceOnUse">
<stop stop-color="#FF6D00"/>
<stop offset="0.263" stop-color="#FD6900"/>
<stop offset="0.502" stop-color="#F75E00"/>
<stop offset="0.733" stop-color="#EE4C00"/>
<stop offset="0.957" stop-color="#E03200"/>
<stop offset="1" stop-color="#DD2C00"/>
</linearGradient>
<linearGradient id="paint17_linear_409_1088" x1="110.298" y1="98.018" x2="110.298" y2="136.423" gradientUnits="userSpaceOnUse">
<stop offset="0.004" stop-color="#666666"/>
<stop offset="0.631" stop-color="#393637"/>
<stop offset="1" stop-color="#231F20"/>
</linearGradient>
<linearGradient id="paint18_linear_409_1088" x1="69.614" y1="107.836" x2="69.614" y2="124.231" gradientUnits="userSpaceOnUse">
<stop offset="0.207" stop-color="#212121" stop-opacity="0"/>
<stop offset="1" stop-color="#BFBEBE"/>
</linearGradient>
<radialGradient id="paint19_radial_409_1088" cx="0" cy="0" r="1" gradientUnits="userSpaceOnUse" gradientTransform="translate(82.0165 43.0514) rotate(72.0851) scale(35.6325 26.4384)">
<stop offset="0.699" stop-color="#6D4C41" stop-opacity="0"/>
<stop offset="1" stop-color="#6D4C41"/>
</radialGradient>
<radialGradient id="paint20_radial_409_1088" cx="0" cy="0" r="1" gradientUnits="userSpaceOnUse" gradientTransform="translate(47.2808 4.20152) rotate(28.2026) scale(9.34319 11.0783)">
<stop offset="0.58" stop-color="#6D4C41"/>
<stop offset="1" stop-color="#6D4C41" stop-opacity="0"/>
</radialGradient>
<radialGradient id="paint21_radial_409_1088" cx="0" cy="0" r="1" gradientUnits="userSpaceOnUse" gradientTransform="translate(68.1612 21.1693) rotate(-157.19) scale(29.2196 16.4215)">
<stop offset="0.699" stop-color="#6D4C41" stop-opacity="0"/>
<stop offset="1" stop-color="#6D4C41"/>
</radialGradient>
<radialGradient id="paint22_radial_409_1088" cx="0" cy="0" r="1" gradientUnits="userSpaceOnUse" gradientTransform="translate(43.5283 12.7248) scale(8.575 10.4898)">
<stop offset="0.702" stop-color="#6D4C41" stop-opacity="0"/>
<stop offset="1" stop-color="#6D4C41"/>
</radialGradient>
<radialGradient id="paint23_radial_409_1088" cx="0" cy="0" r="1" gradientUnits="userSpaceOnUse" gradientTransform="translate(42.3459 27.8614) rotate(-164.942) scale(16.0836 15.0513)">
<stop offset="0.66" stop-color="#6D4C41" stop-opacity="0"/>
<stop offset="1" stop-color="#6D4C41"/>
</radialGradient>
<radialGradient id="paint24_radial_409_1088" cx="0" cy="0" r="1" gradientUnits="userSpaceOnUse" gradientTransform="translate(38.5354 43.3908) rotate(7.83355) scale(16.8865 23.7284)">
<stop offset="0.598" stop-color="#6D4C41" stop-opacity="0"/>
<stop offset="1" stop-color="#6D4C41"/>
</radialGradient>
</defs>
</svg>
