<svg width="58" height="39" viewBox="0 0 58 39" fill="none" xmlns="http://www.w3.org/2000/svg">
<path d="M56.3036 6.59197C55.978 5.43054 55.3438 4.37904 54.4684 3.54926C53.5682 2.69395 52.465 2.08213 51.2627 1.77155C46.7634 0.585611 28.7371 0.585611 28.7371 0.585611C21.2222 0.50011 13.7091 0.876165 6.24023 1.71165C5.03798 2.04518 3.93679 2.67067 3.0346 3.53249C2.14815 4.3854 1.50606 5.43717 1.17065 6.58957C0.36491 10.9302 -0.0265717 15.3376 0.00147867 19.7523C-0.0272713 24.163 0.363249 28.5689 1.17065 32.915C1.49887 34.0626 2.13856 35.1096 3.02742 35.9553C3.91627 36.801 5.02315 37.412 6.24023 37.7354C10.7995 38.9189 28.7371 38.9189 28.7371 38.9189C36.2616 39.0046 43.7843 38.6285 51.2627 37.7929C52.465 37.4823 53.5682 36.8705 54.4684 36.0152C55.3548 35.1695 55.9849 34.1177 56.3012 32.9725C57.1279 28.6335 57.5299 24.2243 57.5015 19.8074C57.5637 15.3717 57.1622 10.9418 56.3036 6.58957V6.59197ZM23.0063 27.9556V11.5513L38.0042 19.7547L23.0063 27.9556Z" fill="#230000"/>
</svg>
