<svg width="58" height="39" viewBox="0 0 58 39" fill="none" xmlns="http://www.w3.org/2000/svg">
<path d="M56.3036 6.59245C55.978 5.43103 55.3438 4.37953 54.4684 3.54975C53.5682 2.69444 52.465 2.08262 51.2627 1.77204C46.7634 0.586099 28.7371 0.586099 28.7371 0.586099C21.2222 0.500598 13.7091 0.876653 6.24023 1.71214C5.03798 2.04567 3.93679 2.67116 3.0346 3.53297C2.14815 4.38589 1.50606 5.43766 1.17065 6.59006C0.36491 10.9307 -0.0265717 15.3381 0.00147867 19.7528C-0.0272713 24.1635 0.363249 28.5694 1.17065 32.9155C1.49887 34.0631 2.13856 35.1101 3.02742 35.9558C3.91627 36.8015 5.02315 37.4125 6.24023 37.7359C10.7995 38.9194 28.7371 38.9194 28.7371 38.9194C36.2616 39.0051 43.7843 38.629 51.2627 37.7934C52.465 37.4828 53.5682 36.871 54.4684 36.0157C55.3548 35.17 55.9849 34.1182 56.3012 32.973C57.1279 28.634 57.5299 24.2248 57.5015 19.8079C57.5637 15.3722 57.1622 10.9422 56.3036 6.59006V6.59245ZM23.0063 27.9561V11.5518L38.0042 19.7552L23.0063 27.9561Z" fill="#230000"/>
</svg>
