<svg width="58" height="40" viewBox="0 0 58 40" fill="none" xmlns="http://www.w3.org/2000/svg">
<path d="M56.3035 6.60552C55.9779 5.44158 55.3437 4.3878 54.4683 3.55621C53.5682 2.69905 52.4649 2.0859 51.2627 1.77464C46.7633 0.586125 28.7371 0.586125 28.7371 0.586125C21.2221 0.500439 13.7091 0.87731 6.24022 1.71461C5.03797 2.04887 3.93678 2.67572 3.0346 3.5394C2.14814 4.39417 1.50606 5.44822 1.17064 6.60312C0.364909 10.9532 -0.0265717 15.3701 0.00147867 19.7944C-0.0272713 24.2147 0.363249 28.6302 1.17064 32.9857C1.49887 34.1358 2.13856 35.1851 3.02741 36.0326C3.91627 36.8802 5.02314 37.4925 6.24022 37.8166C10.7995 39.0027 28.7371 39.0027 28.7371 39.0027C36.2616 39.0885 43.7842 38.7116 51.2627 37.8742C52.4649 37.563 53.5682 36.9498 54.4683 36.0927C55.3548 35.2451 55.9849 34.191 56.3011 33.0433C57.1279 28.695 57.5299 24.2762 57.5014 19.8496C57.5636 15.4044 57.1621 10.9648 56.3035 6.60312V6.60552ZM23.0063 28.0156V11.5757L38.0042 19.7968L23.0063 28.0156Z" fill="#230000"/>
</svg>
