<svg width="64" height="64" viewBox="0 0 64 64" fill="none" xmlns="http://www.w3.org/2000/svg">
<path d="M16.2958 1.85938H47.8458C48.9208 1.85938 49.8958 2.47937 50.3558 3.45437L52.4458 8.70937H11.5508L13.8158 3.38938C14.0466 2.92948 14.4008 2.54285 14.8388 2.27266C15.2767 2.00247 15.7812 1.85938 16.2958 1.85938Z" fill="#C62828"/>
<path d="M26.4453 43.5605H37.5553V62.0005H26.4453V43.5605Z" fill="#78A3AC"/>
<path d="M37.4953 47.6855H26.4453V57.1805C26.4453 57.1805 28.1453 56.0505 31.7953 56.5355C35.7103 57.0505 37.4953 59.7655 37.4953 59.7655V47.6855Z" fill="#4B727B"/>
<path d="M50.9205 53.9343H13.0805C12.1255 53.9343 11.3555 53.1643 11.3555 52.2093V9.5043C11.3555 8.5493 12.1255 7.7793 13.0805 7.7793H50.9155C51.8705 7.7793 52.6405 8.5493 52.6405 9.5043V52.2093C52.6455 53.1593 51.8705 53.9343 50.9205 53.9343Z" fill="#F44336"/>
<path d="M47.2553 49.7855H16.7453C16.3011 49.7855 15.875 49.609 15.5609 49.2949C15.2468 48.9807 15.0703 48.5547 15.0703 48.1105V32.5305C15.0703 31.6055 15.8203 30.8555 16.7453 30.8555H47.2603C48.1853 30.8555 48.9353 31.6055 48.9353 32.5305V48.1105C48.9333 48.555 48.7555 48.9806 48.4408 49.2944C48.126 49.6083 47.6998 49.7848 47.2553 49.7855Z" stroke="#C62828" stroke-width="1.861" stroke-miterlimit="10"/>
<path d="M22.6217 41.2252C22.5817 41.6202 22.8917 41.9602 23.2867 41.9602H48.1117C48.5367 41.9602 48.8517 41.5702 48.7667 41.1552L45.4017 22.5552C45.4017 22.5552 48.2117 22.4652 48.3417 21.2752C48.4717 20.0852 48.2867 19.9002 48.2467 18.6702C48.2067 17.4352 44.5967 14.6602 44.5967 14.6602L18.1367 15.9102L20.3817 21.3352L24.0217 21.4002L24.2117 27.5702L22.6217 41.2252Z" fill="#C62828"/>
<path d="M42.5739 21.8141H21.4239C21.1468 21.8141 20.881 21.704 20.685 21.508C20.489 21.312 20.3789 21.0462 20.3789 20.7691V17.7891H43.6189V20.7691C43.6189 21.3441 43.1539 21.8141 42.5739 21.8141Z" fill="#4E342E"/>
<path d="M41.0342 15.8157L45.8492 35.7057C45.9692 36.3157 45.4442 36.4257 44.9442 36.4257H19.3142C18.8142 36.4257 18.2842 36.2607 18.4092 35.7057L22.9642 15.8157C22.9642 15.4207 23.3692 15.0957 23.8692 15.0957H40.1342C40.6292 15.0957 40.8492 15.2507 41.0342 15.8157Z" fill="white"/>
<path d="M42.3544 21.1293L21.7344 21.1843L22.7594 16.7143L41.1194 16.1543L42.3544 21.1293Z" fill="#E0E0E0"/>
<path d="M44.8937 35.3693L31.9187 27.4743L33.5787 26.2143C34.6137 25.3243 34.5987 23.9993 33.5437 23.1243L31.8037 21.6743L40.2087 15.7693C40.3587 15.6543 40.4187 15.5543 40.3187 15.4493C40.2537 15.3843 40.1337 15.3993 39.9987 15.4943L30.9887 20.9993L24.3487 15.4593C24.2287 15.3543 23.8087 15.3893 24.1437 15.7093L32.3537 23.5293C33.0787 24.2093 33.0487 25.0693 32.1287 25.8593L19.3737 35.4193C19.2537 35.5243 19.0837 35.6593 19.1737 35.7993C19.2787 35.9643 19.5337 35.8743 19.6487 35.7643L30.4337 28.3643L44.6737 35.6443C44.6737 35.6443 44.9937 35.8593 45.0987 35.6993C45.2037 35.5393 44.8937 35.3693 44.8937 35.3693Z" fill="#6FBFF0" stroke="#6FBFF0" stroke-miterlimit="10"/>
<path d="M44.1839 17.7906H19.2339C18.9408 17.7906 18.6598 17.6742 18.4526 17.467C18.2453 17.2597 18.1289 16.9787 18.1289 16.6856V15.9056L44.9989 13.5156L45.3939 16.5706C45.3952 16.7304 45.3649 16.8888 45.3047 17.0367C45.2445 17.1847 45.1556 17.3193 45.0431 17.4327C44.9306 17.5461 44.7967 17.6361 44.6493 17.6976C44.5018 17.759 44.3437 17.7906 44.1839 17.7906Z" fill="#F44336"/>
<path d="M43.4294 16.6848H20.0494C19.1094 16.6848 18.4194 15.9598 18.6444 15.2098C18.6444 15.2098 19.1044 13.3398 19.7494 13.3398H43.8994C44.5444 13.3398 44.5294 15.2798 44.5294 15.2798C44.7544 16.0298 44.3694 16.6848 43.4294 16.6848Z" fill="#FF7555"/>
<path d="M19.3664 13.4359C19.6964 13.2559 21.3314 13.1209 21.2514 13.7009C21.2164 13.9509 20.9364 15.5359 20.7964 15.8959C20.6814 16.1859 20.7114 16.6959 20.0514 16.6909C19.7964 16.6909 18.7164 16.6859 18.5164 16.5809C18.1364 16.3809 18.3764 15.9559 18.4664 15.6609C18.8014 14.6009 19.1214 13.5659 19.3664 13.4359Z" fill="#FF9D83"/>
<path opacity="0.3" d="M46.9616 31.3206H44.8366L44.6016 30.3906H46.8066L46.9616 31.3206Z" fill="#4E342E"/>
</svg>
