<svg width="64" height="64" viewBox="0 0 64 64" fill="none" xmlns="http://www.w3.org/2000/svg">
<path d="M34.3148 29.6702L29.6798 28.9102C29.6798 28.9102 29.4548 48.3852 29.6498 50.6952C29.6498 50.7002 30.8448 57.7352 31.1398 61.2302C31.1748 61.6652 31.5398 62.0052 31.9798 62.0052C32.4198 62.0052 32.7848 61.6702 32.8248 61.2302L34.3198 50.6952C34.3098 47.5202 34.3148 29.6702 34.3148 29.6702Z" fill="#82AEC0"/>
<path d="M34.2945 29.8848C34.2945 29.8848 34.3145 32.8348 34.3145 33.5698C34.3145 34.3048 33.6595 35.4848 31.9645 35.4848C30.2695 35.4848 29.6445 34.3298 29.6445 33.6198C29.6445 32.9098 29.6495 29.8948 29.6495 29.8948L34.2945 29.8848Z" fill="#2F7889"/>
<path d="M17.8594 16.18V16.89C18.2844 23.91 23.8144 29.65 30.8344 30.285C31.2594 30.355 31.6144 30.355 32.0394 30.355C32.4644 30.355 32.8194 30.355 33.1744 30.285C40.1944 29.645 45.7194 24.045 46.1444 16.885V16.175C46.2144 8.38 39.8344 2 32.0344 2C24.2344 2 17.8594 8.31 17.8594 16.18Z" fill="#F44336"/>
<path d="M33.4828 4.38561C34.8128 5.69561 34.4678 7.21561 33.7428 8.53061C32.9278 10.0106 31.0328 10.7556 28.2378 14.7856C26.1428 17.8056 21.6978 16.4256 21.0728 14.0306C20.5928 12.1906 20.9778 10.2656 21.9728 8.67561C25.7478 2.63561 32.1528 3.07561 33.4828 4.38561Z" fill="#FF7555"/>
</svg>
