<svg width="64" height="64" viewBox="0 0 64 64" fill="none" xmlns="http://www.w3.org/2000/svg">
<path d="M60.2203 17.3602C57.5553 14.0902 48.2053 8.11523 32.0003 8.11523C15.7953 8.11523 6.4453 14.0902 3.7803 17.3602C1.1153 20.6302 0.985304 24.4352 1.1153 27.1402C1.1203 27.2902 1.1453 27.5152 1.1903 27.7752C1.5053 29.5802 2.0503 30.8752 9.4503 30.8752C17.3453 30.8752 18.2203 28.9302 18.2703 27.5052C18.3503 25.1852 18.6253 22.1102 19.6703 21.4602C20.9053 20.7002 21.9603 17.9952 32.0053 17.8402C42.0503 18.0002 43.1053 20.7002 44.3403 21.4602C45.3903 22.1102 45.6603 25.1802 45.7403 27.5052C45.7903 28.9302 46.6653 30.8752 54.5603 30.8752C61.9553 30.8752 62.5053 29.5752 62.8203 27.7752C62.8653 27.5152 62.8853 27.2902 62.8953 27.1402C63.0153 24.4352 62.8903 20.6352 60.2203 17.3602Z" fill="#C62828"/>
<path d="M54.554 32.8802C49.829 32.8802 44.384 32.3302 44.239 28.0602C44.2316 27.8635 44.2632 27.6672 44.3319 27.4827C44.4007 27.2981 44.5052 27.129 44.6394 26.985C44.7737 26.841 44.9351 26.7249 45.1143 26.6434C45.2936 26.5619 45.4872 26.5167 45.684 26.5102C46.0807 26.4978 46.4663 26.6427 46.7567 26.9134C47.047 27.1841 47.2186 27.5586 47.234 27.9552C47.254 28.5352 48.009 29.8802 54.554 29.8802C62.319 29.8802 62.919 26.8402 62.919 26.8402C63.414 28.0602 64.559 32.4452 54.554 32.8802ZM9.43898 32.3802C14.164 32.3802 19.609 31.8302 19.754 27.5602C19.7613 27.3635 19.7297 27.1672 19.661 26.9827C19.5923 26.7981 19.4878 26.629 19.3535 26.485C19.2193 26.341 19.0579 26.2249 18.8786 26.1434C18.6994 26.0619 18.5058 26.0167 18.309 26.0102C17.9122 25.9978 17.5266 26.1427 17.2363 26.4134C16.9459 26.6841 16.7744 27.0586 16.759 27.4552C16.739 28.0352 15.984 29.3802 9.43898 29.3802C1.67398 29.3802 1.07398 26.3402 1.07398 26.3402C0.593982 27.4502 -0.566019 31.9452 9.43898 32.3802ZM49.019 15.0602C46.389 13.9702 41.124 12.4902 31.999 12.4902C22.874 12.4902 17.614 13.9702 14.979 15.0602C14.114 15.4152 14.034 16.5952 14.834 17.0802C16.329 17.9902 18.189 19.7252 18.669 22.8902C18.684 22.9952 18.714 23.0902 18.744 23.1852C18.954 22.3652 19.244 21.7252 19.659 21.4702C20.894 20.7102 21.949 18.0052 31.994 17.8502C42.039 18.0102 43.094 20.7102 44.329 21.4702C44.744 21.7252 45.034 22.3652 45.244 23.1852C45.274 23.0902 45.304 22.9952 45.319 22.8902C45.799 19.7302 47.659 17.9902 49.154 17.0802C49.959 16.5952 49.884 15.4152 49.019 15.0602Z" fill="#912221"/>
<path d="M59.7701 23.1778C58.7451 20.6728 57.8701 19.6278 54.9601 18.4778C53.9101 18.0628 53.2801 17.2928 53.5401 16.6528C53.8001 16.0128 54.4801 15.7878 55.5651 16.0728C58.6101 16.8628 60.9301 19.7178 60.9351 23.0678C60.9301 24.6278 60.1701 24.1528 59.7701 23.1778ZM5.2051 18.1578C5.3951 18.7928 6.6351 18.2628 8.1401 18.1428C10.2251 17.9778 10.8401 18.6278 11.7651 19.5978C12.5401 20.4128 13.6501 20.4278 14.0601 19.8728C14.4751 19.3178 14.2301 18.7028 13.5151 17.8378C12.9851 17.1928 10.7001 15.6578 7.3251 16.5678C6.5601 16.7828 5.0051 17.4878 5.2051 18.1578Z" fill="#F44336"/>
<path d="M9.44531 47.8036V58.4486C9.44531 60.4086 11.1353 61.9986 13.2153 61.9986H50.7853C52.8653 61.9986 54.5553 60.4086 54.5553 58.4486V47.5586L9.44531 47.8036Z" fill="#C62828"/>
<path d="M54.449 46.0123C54.449 46.0123 50.544 27.8523 49.914 24.6423C49.284 21.4323 48.189 20.4873 46.339 20.4573C45.094 20.4373 43.779 19.5823 43.559 18.0473C43.339 16.5323 43.289 15.6423 43.199 14.9723C43.109 14.3023 43.134 13.3223 42.174 13.3223H40.269C39.419 13.3223 39.349 13.4873 39.209 14.6873C39.069 15.8923 38.879 18.2123 38.409 19.3723C38.004 20.3673 36.934 20.4573 36.324 20.4573H27.679C27.074 20.4573 25.999 20.3673 25.594 19.3723C25.124 18.2123 24.929 15.8873 24.794 14.6873C24.654 13.4823 24.584 13.3223 23.734 13.3223H21.829C20.874 13.3223 20.899 14.3023 20.804 14.9723C20.714 15.6423 20.664 16.5323 20.444 18.0473C20.219 19.5823 18.909 20.4373 17.664 20.4573C15.814 20.4873 14.719 21.4323 14.089 24.6423C13.459 27.8523 9.554 46.0123 9.554 46.0123C9.029 49.5473 10.254 51.0273 16.594 51.0273H47.404C53.754 51.0273 54.979 49.5473 54.449 46.0123Z" fill="#FF4638"/>
<path d="M44.2506 29.4091L42.3906 26.3741L38.2706 25.6641L36.7706 26.5591C36.4206 26.7691 35.9856 26.7541 35.6456 26.5341L34.8706 26.0241L29.1656 26.0691L28.5706 26.4991C28.2256 26.7491 27.7606 26.7641 27.4006 26.5441L26.0306 25.7041L19.7506 29.4091L17.5156 42.1591L17.6206 44.4641C17.6406 44.9341 18.0306 45.3041 18.5006 45.3041H45.5056C45.9756 45.3041 46.3656 44.9341 46.3856 44.4641L46.4906 42.1591L44.2506 29.4091Z" fill="#4E342E"/>
<path d="M39.3169 36.2302H44.4719C44.9569 36.2302 45.3269 35.7902 45.2419 35.3152L44.7669 32.5902C44.7019 32.2152 44.3769 31.9452 43.9969 31.9452H38.9969C38.5269 31.9452 38.1669 32.3552 38.2219 32.8202L38.5469 35.5452C38.5869 35.9352 38.9219 36.2302 39.3169 36.2302ZM29.6919 30.2002H34.3669C34.8119 30.2002 35.1719 29.8252 35.1469 29.3802L34.9919 26.4052C34.9816 26.2053 34.8949 26.017 34.7498 25.8793C34.6046 25.7416 34.412 25.6649 34.2119 25.6652H29.8469C29.4319 25.6652 29.0869 25.9902 29.0669 26.4052L28.9119 29.3802C28.8869 29.8252 29.2469 30.2002 29.6919 30.2002ZM34.8719 38.4852H29.1869C28.7719 38.4852 28.4269 38.8102 28.4069 39.2252L28.2669 41.9502C28.2419 42.3952 28.6019 42.7702 29.0469 42.7702H35.0119C35.4569 42.7702 35.8169 42.3952 35.7919 41.9502L35.6519 39.2252C35.6416 39.0253 35.5549 38.837 35.4098 38.6993C35.2646 38.5616 35.072 38.4849 34.8719 38.4852ZM29.3919 36.2302H34.6619C35.1069 36.2302 35.4669 35.8552 35.4419 35.4102L35.3019 32.6852C35.2916 32.4853 35.2049 32.297 35.0598 32.1593C34.9146 32.0216 34.722 31.9449 34.5219 31.9452H29.5319C29.1169 31.9452 28.7719 32.2702 28.7519 32.6852L28.6119 35.4102C28.5919 35.8552 28.9469 36.2302 29.3919 36.2302ZM24.2519 38.4852H18.8119C18.4319 38.4852 18.1069 38.7602 18.0419 39.1302L17.5669 41.8552C17.4819 42.3352 17.8519 42.7702 18.3369 42.7702H23.9319C24.3269 42.7702 24.6619 42.4752 24.7069 42.0802L25.0319 39.3552C25.0819 38.8952 24.7219 38.4852 24.2519 38.4852ZM19.5219 36.2302H24.7369C25.1319 36.2302 25.4669 35.9352 25.5119 35.5402L25.8369 32.8152C25.8919 32.3502 25.5319 31.9402 25.0619 31.9402H20.0019C19.6219 31.9402 19.2969 32.2152 19.2319 32.5852L18.7569 35.3102C18.6669 35.7902 19.0369 36.2302 19.5219 36.2302ZM38.6269 30.2002H43.4569C43.9419 30.2002 44.3119 29.7602 44.2269 29.2852L43.7069 26.3102C43.6419 25.9352 43.3169 25.6652 42.9369 25.6652H38.2719C37.8019 25.6652 37.4419 26.0752 37.4969 26.5402L37.8519 29.5152C37.8969 29.9052 38.2319 30.2002 38.6269 30.2002ZM26.2069 29.5102L26.5619 26.5352C26.6169 26.0702 26.2569 25.6602 25.7869 25.6602H21.0569C20.6769 25.6602 20.3519 25.9352 20.2869 26.3052L19.7669 29.2802C19.6819 29.7602 20.0519 30.1952 20.5369 30.1952H25.4319C25.8269 30.2002 26.1619 29.9052 26.2069 29.5102ZM39.0269 39.3602L39.3519 42.0852C39.3969 42.4802 39.7319 42.7752 40.1269 42.7752H45.6569C46.1419 42.7752 46.5119 42.3352 46.4269 41.8602L45.9519 39.1352C45.8869 38.7602 45.5619 38.4902 45.1819 38.4902H39.8019C39.3369 38.4852 38.9719 38.8952 39.0269 39.3602Z" fill="#F5F5F5"/>
</svg>
