<svg width="128" height="128" viewBox="0 0 128 128" fill="none" xmlns="http://www.w3.org/2000/svg">
<path d="M106.002 24.79H22.1519C20.2319 24.79 18.6719 26.35 18.6719 28.27V85.86C18.6719 87.78 20.2319 89.34 22.1519 89.34H106.002C107.922 89.34 109.482 87.78 109.482 85.86V28.27C109.482 26.35 107.932 24.79 106.002 24.79Z" fill="#B7D5E5"/>
<path d="M104.748 83.2002H23.3984L24.3584 30.9302H103.788L104.748 83.2002Z" fill="url(#paint0_radial_476_494)"/>
<path d="M121.091 123.82H7.59136C7.16136 123.82 6.76136 123.79 6.39136 123.73C3.51136 123.29 2.18136 119.55 3.89136 116.99L4.28136 116.4H123.871L124.271 117C126.131 119.78 124.391 123.76 121.231 123.81C121.191 123.82 121.141 123.82 121.091 123.82Z" fill="#2F7889"/>
<path d="M106.84 90.4102H20.6002C19.3302 90.4102 18.0602 91.1802 17.3502 92.4002L3.35019 117.88C2.76019 118.76 3.34019 120 4.34019 120H123.8C124.8 120 125.38 118.76 124.79 117.88L110.08 92.2502C109.38 91.1702 108.11 90.4102 106.84 90.4102Z" fill="#EEEEEE"/>
<path d="M86.3608 115.52H41.8008L44.6508 107.54H83.7208L86.3608 115.52Z" fill="#B7D5E5"/>
<path opacity="0.57" d="M72.6906 94.8401L72.4206 92.6401H68.9806L69.1106 94.8401H72.6906ZM67.1406 94.8401L67.0006 92.6401H63.5506V94.8401H67.1406ZM93.6106 94.8401L92.8006 92.6401H89.5406L90.2206 94.8401H93.6106ZM88.3606 94.8401L87.6806 92.6401H84.3606L84.9006 94.8401H88.3606ZM83.1806 94.8401L82.6406 92.6401H79.2706L79.6806 94.8401H83.1806ZM102.111 94.8401L101.161 92.6401H94.4506L95.2706 94.8401H102.111ZM77.6106 94.8401L77.2006 92.6401H73.7906L74.0706 94.8401H77.6106ZM33.7606 94.8401L34.4406 92.6401H31.1806L30.3706 94.8401H33.7606ZM50.5106 94.8401L50.7806 92.6401H47.3706L46.9706 94.8401H50.5106ZM39.3506 94.8401L39.8906 92.6401H36.5706L35.9006 94.8401H39.3506ZM28.1706 94.8401L28.9806 92.6401H25.8006L24.8506 94.8401H28.1706ZM44.9306 94.8401L45.3406 92.6401H41.9706L41.4306 94.8401H44.9306ZM56.0806 94.8401L56.2206 92.6401H52.7806L52.5106 94.8401H56.0806ZM61.6506 94.8401V92.6401H58.2006L58.0606 94.8401H61.6506ZM83.7806 103.73H44.3606L43.6106 105.93H84.6906L83.7806 103.73ZM102.151 105.93L100.941 103.73H107.481L108.431 105.93H102.151ZM86.7506 105.93L85.9206 103.73H92.2106L93.1706 105.93H86.7506ZM95.3906 105.93L94.4306 103.73H98.7406L99.8406 105.93H95.3906ZM25.6706 105.93L26.8806 103.73H20.3406L19.3906 105.93H25.6706ZM41.0706 105.93L41.9006 103.73H35.6106L34.6506 105.93H41.0706ZM32.4206 105.93L33.3906 103.73H29.0806L27.9706 105.93H32.4206ZM29.7106 98.5101L30.5306 96.3201H23.8606L22.9106 98.5101H29.7106ZM97.9506 98.5101L97.1406 96.3201H103.801L104.751 98.5101H97.9506ZM96.2506 98.5101L95.2906 96.3201H91.4406L92.2606 98.5101H96.2506ZM86.2306 98.5101L85.5806 96.3201H89.4306L90.2106 98.5101H86.2306ZM80.1906 98.5101L79.7206 96.3201H83.5706L84.1706 98.5101H80.1906ZM74.1506 98.5101L73.8706 96.3201H77.7106L78.1406 98.5101H74.1506ZM68.1206 98.5101L68.0106 96.3201H71.8606L72.1006 98.5101H68.1206ZM62.0806 98.5101L62.1506 96.3201H66.0006L66.0606 98.5101H62.0806ZM56.0406 98.5101L56.2906 96.3201H60.1406L60.0306 98.5101H56.0406ZM50.0106 98.5101L50.4306 96.3201H54.2806L53.9906 98.5101H50.0106ZM43.9706 98.5101L44.5706 96.3201H48.4206L47.9506 98.5101H43.9706ZM37.9306 98.5101L38.7106 96.3201H42.5606L41.9206 98.5101H37.9306ZM31.9006 98.5101L32.8506 96.3201H36.7006L35.8806 98.5101H31.9006ZM29.7006 102.22L30.5106 100.02H21.7606L20.8106 102.22H29.7006ZM95.8706 102.22L95.1006 100.02H90.9306L91.5706 102.22H95.8706ZM84.9306 102.22L84.4506 100.02H88.6106L89.2306 102.22H84.9306ZM78.2806 102.22L77.9606 100.02H82.1306L82.5806 102.22H78.2806ZM71.6406 102.22L71.4706 100.02H75.6406L75.9406 102.22H71.6406ZM65.0006 102.22L64.9906 100.02H69.1506L69.3006 102.22H65.0006ZM58.3606 102.22L58.5006 100.02H62.6706L62.6606 102.22H58.3606ZM51.7106 102.22L52.0106 100.02H56.1806L56.0106 102.22H51.7106ZM45.0706 102.22L45.5306 100.02H49.6906L49.3706 102.22H45.0706ZM38.4306 102.22L39.0406 100.02H43.2106L42.7306 102.22H38.4306ZM31.7806 102.22L32.5506 100.02H36.7206L36.0906 102.22H31.7806ZM97.4706 102.22L96.6506 100.02H105.401L106.351 102.22H97.4706Z" fill="#69A1BA"/>
<path d="M124.73 117.88L110.39 92.4001C109.68 91.3301 108.41 90.5601 107.14 90.5601C107.14 90.5601 108.36 91.6601 108.73 92.1901L121.32 115.78C121.88 116.8 121.14 118.04 119.98 118.04H7.95988C6.80988 118.04 6.06988 116.81 6.60988 115.8L18.5599 92.6201C18.9099 92.0201 20.4399 90.6301 20.4399 90.6301H19.9899C18.7199 90.6301 17.4499 91.4001 16.7399 92.6201L3.27988 117.88C2.68988 118.76 3.26988 120 4.26988 120H123.73C124.74 120 125.32 118.76 124.73 117.88Z" fill="#B7D5E5"/>
<path d="M25.9688 28.02H39.1788" stroke="#EEEEEE" stroke-width="2.936" stroke-miterlimit="10" stroke-linecap="round"/>
<path d="M109.371 30.1098C109.371 29.0698 108.361 28.9898 108.361 30.2198V86.0198C108.361 87.3598 107.271 88.4498 105.931 88.4498H22.0814C20.7414 88.4498 19.6514 87.3598 19.6514 86.0198V30.2198C19.6514 28.9898 18.6414 29.0698 18.6414 30.1098L17.6914 86.0198C17.6914 88.4398 18.9314 90.4098 22.0814 90.4098H105.931C108.661 90.4098 110.321 88.4398 110.321 86.0198L109.371 30.1098Z" fill="#75A7BC"/>
<defs>
<radialGradient id="paint0_radial_476_494" cx="0" cy="0" r="1" gradientUnits="userSpaceOnUse" gradientTransform="translate(48.4064 3.9321) scale(75.465 81.8267)">
<stop stop-color="#2F7889"/>
<stop offset="1" stop-color="#424242"/>
</radialGradient>
</defs>
</svg>
