<svg width="157" height="157" viewBox="0 0 157 157" fill="none" xmlns="http://www.w3.org/2000/svg">
<g clip-path="url(#clip0_409_1053)">
<path d="M92.9513 131.212C119.901 123.991 144.446 99.2973 134.507 62.2057C124.568 25.1142 90.9647 16.0009 64.0154 23.222C49.0435 27.2336 36.5508 35.861 28.719 47.5876C20.2508 60.4164 18.0856 75.9046 22.4597 92.2287C26.8337 108.553 36.427 120.787 50.1751 127.663C62.8209 133.902 78.0761 135.198 92.9513 131.212Z" fill="url(#paint0_radial_409_1053)"/>
<path d="M23.6271 57.5152C20.7046 67.2017 20.6696 77.8123 23.6176 88.8142C27.9916 105.138 37.5849 117.372 51.333 124.248C63.9788 130.488 79.234 131.784 94.1092 127.798C111.554 123.124 127.985 111.112 134.71 93.1697C128.888 113.013 111.49 126.247 92.9539 131.213C78.0786 135.199 62.8234 133.903 50.1776 127.664C36.4295 120.788 26.8362 108.554 22.4622 92.2296C19.1648 79.9237 19.5867 68.0913 23.6271 57.5152Z" fill="#EB8F00"/>
<path d="M83.9159 93.8999C96.2024 90.6078 107.343 86.515 116.405 82.2024C118.655 81.1337 121.298 82.6514 121.447 85.1376C122.43 101.48 110.587 118.288 91.8092 123.319C71.2639 128.825 53.9119 119.394 46.9874 105.027C45.9168 102.808 47.457 100.211 49.9111 100.02C59.9255 99.2204 71.6293 97.1921 83.9159 93.8999Z" fill="#422B0D"/>
<path d="M51.9429 78.5421C52.0412 77.7497 52.305 76.9957 52.7107 76.3073C53.1234 75.6066 53.6727 74.9521 54.3657 74.3316C54.9178 73.842 55.5524 73.3511 56.2527 72.8735L54.076 64.7501C53.944 64.8372 53.7998 64.9173 53.6827 65.0211C53.2548 65.3946 52.9326 65.8536 52.711 66.3789C52.4894 66.9041 52.3684 67.4956 52.355 68.1411C52.3521 68.4007 52.3588 68.6577 52.3875 68.9192C52.4605 69.6554 52.0259 70.3516 51.3111 70.5431L51.2725 70.5535C50.3452 70.8019 49.4394 70.1647 49.3313 69.2204C49.1615 67.7752 49.3171 66.5015 49.7886 65.402C50.4374 63.8823 51.6264 62.7562 53.3461 62.0262L52.7741 59.8915C52.6905 59.5254 52.752 59.1412 52.9457 58.8195C53.1395 58.4979 53.4504 58.2639 53.8131 58.1667C54.1758 58.0695 54.5621 58.1167 54.8907 58.2984C55.2193 58.4801 55.4647 58.7821 55.5753 59.1409L56.1654 61.3432C56.9113 61.2676 57.6269 61.2726 58.3009 61.3922C59.1036 61.5291 59.819 61.8033 60.4662 62.2096C61.1038 62.6186 61.661 63.1525 62.1352 63.8019C62.5998 64.4539 62.9524 65.229 63.1957 66.137C63.4519 67.0933 63.5225 67.9751 63.4076 68.7823C63.2926 69.5896 63.0217 70.3558 62.6019 71.0687C62.1821 71.7817 61.6257 72.4484 60.923 73.0715C60.5215 73.4276 60.0691 73.7869 59.5922 74.1321L61.8361 82.5067L61.8484 82.5137C62.4977 82.2179 63.0561 81.7537 63.4655 81.1694C63.7948 80.6981 64.006 80.1342 64.1186 79.4725C64.1736 79.1369 64.1822 78.7826 64.1489 78.3877C64.0881 77.6586 64.5034 76.9676 65.2182 76.7761L65.3631 76.7373C66.2421 76.5017 67.1208 77.1152 67.2063 78.0137C67.2617 78.5682 67.2558 79.0874 67.1914 79.5809C67.0669 80.546 66.7948 81.3851 66.3583 82.1128C65.9218 82.8406 65.3621 83.4565 64.6793 83.9604C64.0325 84.4442 63.316 84.8226 62.5498 85.1314L63.0001 86.8121C63.0838 87.1782 63.0223 87.5624 62.8285 87.8841C62.6348 88.2057 62.3239 88.4397 61.9611 88.5369C61.5984 88.6341 61.2122 88.5869 60.8836 88.4052C60.5549 88.2236 60.3095 87.9215 60.1989 87.5627L59.7357 85.8337C58.8958 85.9448 58.0932 85.9632 57.342 85.8642C56.4935 85.75 55.7325 85.4984 55.0492 85.112C54.3756 84.7231 53.792 84.2066 53.2933 83.543C52.8068 82.8866 52.4271 82.0876 52.1786 81.1604C51.9153 80.2163 51.835 79.3372 51.9429 78.5421ZM59.8336 69.7399C60.1101 69.3035 60.277 68.8447 60.3396 68.3827C60.4022 67.9208 60.3623 67.4242 60.2174 66.8833C59.8997 65.7364 59.3183 64.9191 58.4707 64.4215C58.0149 64.1502 57.4717 64.0162 56.8772 63.9995L58.7484 70.9832C59.2072 70.5704 59.5713 70.1519 59.8336 69.7399ZM55.895 81.8935C56.2317 82.3002 56.6276 82.6186 57.102 82.8434C57.5764 83.0683 58.117 83.1926 58.7115 83.2093C58.8062 83.215 58.9054 83.1988 59.0072 83.1922L57.0634 75.9381C56.3961 76.5 55.8815 77.052 55.551 77.5961C55.0129 78.4856 54.8781 79.4121 55.1588 80.3825C55.3219 80.991 55.5679 81.4842 55.895 81.8935Z" fill="#422B0D" stroke="#422B0D" stroke-width="0.5" stroke-miterlimit="10"/>
<path d="M103.332 96.3168L108.806 116.746C111.267 125.932 105.813 135.365 96.6365 137.824L93.4683 138.673C84.2823 141.134 74.8492 135.68 72.3904 126.504L66.8776 105.929C86.2026 104.602 99.2279 98.5034 103.332 96.3168Z" fill="#05E005"/>
<path d="M85.1197 98.3508C91.0988 96.7488 96.9166 94.9311 102.431 92.9463L103.334 96.3173C99.2205 98.5066 86.2049 104.603 66.8702 105.933L65.9695 102.571C72.1927 101.494 78.6384 100.088 85.1197 98.3508Z" fill="#05E005"/>
<path opacity="0.3" d="M85.1197 98.3508C91.0988 96.7488 96.9166 94.9311 102.431 92.9463L103.334 96.3173C99.2205 98.5066 86.2049 104.603 66.8702 105.933L65.9695 102.571C72.1927 101.494 78.6384 100.088 85.1197 98.3508Z" fill="#AB3F2E"/>
<path d="M83.1091 122.949C83.2073 122.157 83.4712 121.403 83.8768 120.714C84.2895 120.013 84.8388 119.359 85.5319 118.738C86.084 118.249 86.7185 117.758 87.4188 117.28L85.2421 109.157C85.1102 109.244 84.966 109.324 84.8489 109.428C84.4209 109.801 84.0988 110.261 83.8772 110.786C83.6556 111.311 83.5345 111.903 83.5211 112.548C83.5182 112.808 83.525 113.065 83.5536 113.326C83.6266 114.062 83.192 114.758 82.4772 114.95L82.4386 114.96C81.5113 115.209 80.6055 114.572 80.4974 113.627C80.3302 112.192 80.4858 110.918 80.9547 109.809C81.6035 108.289 82.7926 107.163 84.5122 106.433L83.9403 104.298C83.8566 103.932 83.9181 103.548 84.1119 103.226C84.3056 102.905 84.6165 102.671 84.9792 102.574C85.3419 102.476 85.7282 102.524 86.0568 102.705C86.3855 102.887 86.6309 103.189 86.7414 103.548L87.3315 105.75C88.0774 105.675 88.7931 105.679 89.467 105.799C90.2698 105.936 90.9851 106.21 91.6323 106.617C92.2699 107.025 92.8271 107.559 93.3013 108.209C93.7659 108.861 94.1185 109.636 94.3618 110.544C94.618 111.5 94.6887 112.382 94.5737 113.189C94.4587 113.996 94.1878 114.763 93.768 115.476C93.3482 116.189 92.7918 116.855 92.0892 117.478C91.6876 117.834 91.2352 118.194 90.7583 118.539L93.0023 126.914L93.0145 126.921C93.6638 126.625 94.2222 126.161 94.6317 125.576C94.9609 125.105 95.1722 124.541 95.2847 123.879C95.3397 123.544 95.3483 123.189 95.315 122.795C95.2639 122.063 95.6792 121.372 96.394 121.18L96.5389 121.142C97.4179 120.906 98.2966 121.519 98.382 122.418C98.4375 122.973 98.4316 123.492 98.3672 123.985C98.2427 124.95 97.9706 125.789 97.5341 126.517C97.0976 127.245 96.5379 127.861 95.855 128.365C95.2082 128.849 94.4918 129.227 93.7256 129.536L94.1759 131.216C94.2596 131.582 94.1981 131.967 94.0043 132.288C93.8105 132.61 93.4996 132.844 93.1369 132.941C92.7742 133.038 92.388 132.991 92.0593 132.81C91.7307 132.628 91.4853 132.326 91.3747 131.967L90.9114 130.238C90.0716 130.349 89.269 130.367 88.5178 130.269C87.6693 130.154 86.9083 129.903 86.225 129.516C85.5514 129.127 84.9678 128.611 84.4691 127.947C83.9826 127.291 83.6029 126.492 83.3544 125.565C83.0911 124.621 83.0134 123.751 83.1091 122.949ZM91.0094 114.144C91.2859 113.708 91.4528 113.249 91.5154 112.787C91.578 112.325 91.5381 111.829 91.3931 111.288C91.0755 110.141 90.4941 109.323 89.6465 108.826C89.1907 108.554 88.6475 108.421 88.053 108.404L89.9242 115.387C90.383 114.975 90.7471 114.556 91.0094 114.144ZM87.0734 126.307C87.4101 126.714 87.806 127.033 88.2804 127.257C88.7547 127.482 89.2953 127.607 89.8899 127.623C89.9846 127.629 90.0838 127.613 90.1856 127.606L88.2418 120.352C87.5745 120.914 87.0598 121.466 86.7294 122.01C86.1913 122.9 86.0565 123.826 86.3372 124.796C86.4977 125.395 86.7437 125.888 87.0734 126.307Z" fill="#404040"/>
<path d="M103.386 39.3728C105.37 40.3219 107.232 37.6902 105.218 36.2007C103.73 35.1293 101.874 34.2291 99.9675 33.6838C94.78 32.0198 89.0863 32.5619 84.6861 34.7244C82.4567 35.8705 83.9887 38.69 86.1549 38.1199C91.611 36.5752 97.814 36.8905 103.386 39.3728ZM37.9256 56.913C36.6826 58.7265 33.7539 57.3785 34.7535 55.0816C35.5064 53.4097 36.6639 51.702 38.0419 50.2767C41.7024 46.2419 46.9043 43.8645 51.7963 43.5372C54.3 43.415 54.3831 46.6228 52.222 47.2123C46.7245 48.6025 41.5005 51.9796 37.9256 56.913Z" fill="#422B0D"/>
<path d="M89.5094 68.4767C89.6076 67.6843 89.8714 66.9303 90.2771 66.2418C90.6898 65.5412 91.2391 64.8867 91.9321 64.2662C92.4842 63.7766 93.1188 63.2856 93.8191 62.8081L91.6424 54.6847C91.5104 54.7718 91.3663 54.8519 91.2491 54.9557C90.8212 55.3292 90.499 55.7882 90.2774 56.3135C90.0558 56.8387 89.9348 57.4302 89.9214 58.0757C89.9185 58.3353 89.9252 58.5923 89.9539 58.8538C90.0269 59.5899 89.5923 60.2861 88.8775 60.4777L88.8389 60.488C87.9116 60.7365 87.0058 60.0992 86.8977 59.155C86.7305 57.7194 86.8861 56.4457 87.355 55.3365C88.0038 53.8169 89.1929 52.6907 90.9125 51.9608L90.3405 49.8261C90.2569 49.46 90.3184 49.0758 90.5121 48.7541C90.7059 48.4325 91.0168 48.1984 91.3795 48.1013C91.7422 48.0041 92.1285 48.0513 92.4571 48.233C92.7857 48.4146 93.0311 48.7166 93.1417 49.0755L93.7318 51.2778C94.4777 51.2022 95.1933 51.2071 95.8673 51.3268C96.67 51.4637 97.3854 51.7379 98.0326 52.1442C98.6702 52.5531 99.2274 53.0871 99.7016 53.7365C100.166 54.3885 100.519 55.1636 100.762 56.0716C101.018 57.0279 101.089 57.9096 100.974 58.7169C100.859 59.5242 100.588 60.2904 100.168 61.0033C99.7485 61.7163 99.1921 62.383 98.4894 63.0061C98.0879 63.3621 97.6355 63.7215 97.1586 64.0667L99.4026 72.4412L99.4148 72.4483C100.064 72.1525 100.622 71.6883 101.032 71.104C101.361 70.6327 101.572 70.0688 101.685 69.4071C101.74 69.0714 101.749 68.7171 101.715 68.3223C101.655 67.5932 102.07 66.9022 102.785 66.7106L102.929 66.6718C103.808 66.4363 104.687 67.0498 104.773 67.9483C104.828 68.5028 104.822 69.022 104.758 69.5155C104.633 70.4806 104.361 71.3196 103.925 72.0474C103.488 72.7752 102.929 73.391 102.246 73.8949C101.599 74.3788 100.882 74.7572 100.116 75.066L100.567 76.7467C100.65 77.1128 100.589 77.497 100.395 77.8187C100.201 78.1403 99.8903 78.3743 99.5276 78.4715C99.1648 78.5687 98.7786 78.5215 98.45 78.3398C98.1213 78.1581 97.8759 77.8561 97.7654 77.4973L97.3021 75.7683C96.4622 75.8794 95.6596 75.8978 94.9084 75.7988C94.0599 75.6845 93.2989 75.4329 92.6156 75.0466C91.942 74.6577 91.3584 74.1411 90.8597 73.4776C90.3732 72.8212 89.9935 72.0222 89.745 71.0949C89.4817 70.1509 89.4014 69.2717 89.5094 68.4767ZM97.4 59.6745C97.6765 59.2381 97.8434 58.7793 97.906 58.3173C97.9686 57.8554 97.9287 57.3588 97.7838 56.8179C97.4661 55.671 96.8847 54.8536 96.0371 54.3561C95.5813 54.0848 95.0382 53.9508 94.4436 53.9341L96.3148 60.9178C96.7736 60.5049 97.1377 60.0864 97.4 59.6745ZM93.4614 71.828C93.7981 72.2347 94.194 72.5531 94.6684 72.778C95.1428 73.0029 95.6834 73.1272 96.2779 73.1439C96.3726 73.1496 96.4718 73.1334 96.5736 73.1268L94.6299 65.8727C93.9625 66.4346 93.4479 66.9866 93.1174 67.5306C92.5793 68.4202 92.4445 69.3467 92.7253 70.3171C92.8883 70.9256 93.1343 71.4187 93.4614 71.828Z" fill="#422B0D" stroke="#422B0D" stroke-width="0.5" stroke-miterlimit="10"/>
</g>
<defs>
<radialGradient id="paint0_radial_409_1053" cx="0" cy="0" r="1" gradientUnits="userSpaceOnUse" gradientTransform="translate(78.4834 77.2172) rotate(165) scale(56.96 56.96)">
<stop offset="0.5" stop-color="#FDE030"/>
<stop offset="0.919" stop-color="#F7C02B"/>
<stop offset="1" stop-color="#F4A223"/>
</radialGradient>
<clipPath id="clip0_409_1053">
<rect width="128" height="128" fill="white" transform="matrix(-0.965926 0.258819 0.258819 0.965926 123.637 0)"/>
</clipPath>
</defs>
</svg>
