<svg width="128" height="128" viewBox="0 0 128 128" fill="none" xmlns="http://www.w3.org/2000/svg">
<path d="M16.4003 31.73C16.4003 31.73 9.95031 32.24 9.09031 33.69C8.22031 35.14 8.17031 37.37 8.17031 39.82C8.17031 42.28 8.07031 47.92 8.07031 47.92L9.61031 51.23C9.61031 51.23 9.90031 93.42 9.90031 94.73C9.90031 96.03 9.90031 97.62 11.7803 98.63C13.6603 99.64 61.4403 122.72 62.9303 123.34C65.1803 124.27 66.2503 123.92 66.2503 123.92L119.34 35.13C119.34 35.13 119.17 32.7 116.96 32.12C115.69 31.8 16.4003 31.73 16.4003 31.73Z" fill="#F5B03E"/>
<path d="M65.6786 60.9202C64.8686 63.1502 65.2386 86.2102 65.3786 102.98C65.5186 119.74 64.9486 123.21 65.3786 123.79C65.8086 124.37 66.9786 123.81 70.2886 122.34C76.4386 119.62 105.979 105 108.149 103.7C110.319 102.4 115.619 99.7102 116.489 98.2602C117.359 96.8102 117.829 83.3202 118.119 72.4902C118.409 61.6502 118.699 52.9802 118.699 52.9802L119.999 49.0802C119.999 49.0802 119.719 38.5402 119.669 37.3802C119.579 35.4602 119.369 34.4702 118.879 34.7102C118.179 35.0402 112.339 39.8302 96.8786 47.3502C87.1686 52.0602 66.2386 59.3802 65.6786 60.9202Z" fill="#E07F14"/>
<path d="M65.8183 11.2099C61.4883 11.0099 49.6383 17.8599 38.2183 21.6099C26.7983 25.3599 9.5583 32.8999 9.4083 33.3399C9.2683 33.7699 16.3483 36.9399 20.8683 39.1099C26.2383 41.6799 46.7383 51.3899 50.4883 52.9799C54.2483 54.5699 63.2083 58.2899 64.6483 58.1799C66.6683 58.0399 85.7483 50.5199 95.4283 45.8999C105.108 41.2799 117.208 34.1199 117.368 32.3799C117.438 31.5999 99.5683 24.9299 90.6583 20.8999C73.4583 13.1099 68.9883 11.3599 65.8183 11.2099Z" fill="#FDD717"/>
<path d="M8.11906 49.7699C8.26906 51.6499 9.29906 52.3199 11.9191 53.4599C14.5391 54.5999 64.0691 80.3299 65.2091 80.3299C66.3491 80.3299 66.6891 76.2499 65.4391 76.3599C64.7591 76.4199 48.4891 68.6899 33.2891 60.9699C20.3891 54.4299 8.03906 47.8999 8.03906 47.8999L8.11906 49.7699Z" fill="#E37D14"/>
<path d="M120.011 48.9902C120.011 48.9902 67.1209 75.8902 66.6009 76.1502C66.0809 76.4102 65.2509 76.3202 65.2509 76.3202L65.2109 80.3302C65.2109 80.3302 65.7009 80.4402 66.2509 80.2702C66.5709 80.1702 118.481 53.3002 118.711 53.2202C118.941 53.1402 119.941 52.5402 120.151 51.2702C120.331 50.2502 120.011 48.9902 120.011 48.9902Z" fill="#BA5E0D"/>
<path d="M28.8606 97.4201L39.2106 112.82L43.7406 114.37C43.7406 114.37 44.1106 97.5701 44.2606 85.1201C44.4706 66.9301 44.3906 50.3401 44.6506 49.4001C45.0806 47.8101 65.2106 41.2801 65.2106 41.2801C65.2106 41.2801 87.9506 48.4101 88.6706 50.0001C88.9906 50.7001 88.7406 62.4801 88.6706 76.2101C88.5806 93.5501 88.6106 113.57 88.6106 113.57C88.6106 113.57 90.9606 113.56 91.2406 112.69C91.5306 111.82 92.6906 105.11 92.6906 105.11L101.511 46.3201L105.991 40.5401L99.7706 28.7001L74.2506 16.1401L65.4806 18.1101L55.9906 16.6601L25.8906 38.2901L29.4006 45.4101L38.0106 49.8001L28.8606 97.4201Z" fill="#AF0F1B"/>
<path d="M91.2796 49.3898C90.7296 50.5998 91.0496 112.95 91.0496 112.95C91.0496 112.95 93.7996 111.43 97.3396 109.73C100.86 108.04 103.39 106.99 103.61 106.11C103.83 105.23 104.22 43.5698 104.22 43.5698L91.2796 49.3898Z" fill="#DC0D28"/>
<path d="M41.3506 48.1C41.6806 48.46 41.1406 113.16 40.4706 113.31C39.9406 113.44 27.8906 108.06 27.8906 107.51C27.8906 106.96 28.8606 45.13 28.8606 45.13C28.8606 45.13 40.3706 47 41.3506 48.1ZM65.2306 14.25C61.9006 14.25 58.2206 15.2 57.1506 17.99C56.0806 20.78 55.8406 24.93 55.8406 28.03C55.8406 31 55.3606 38.6 64.5106 38.48C73.6606 38.36 73.9306 34.97 74.0706 27.49C74.1906 21.25 73.3606 18.22 72.5306 16.92C71.7906 15.75 69.3306 14.25 65.2306 14.25Z" fill="#FF2A23"/>
<path d="M59.9384 29.6901C62.0184 29.8101 62.9084 25.2401 64.5084 22.7401C66.1084 20.2501 67.7784 18.5801 67.1784 17.2801C66.6884 16.2001 62.3384 15.8501 59.9884 19.1201C58.3384 21.4301 58.0484 29.5801 59.9384 29.6901Z" fill="#FCC9D2"/>
<path d="M73.3281 16.4201C73.3281 16.4201 76.2781 19.4201 77.0481 25.3001C77.8181 31.1801 76.9281 35.7501 76.9281 35.7501C76.9281 35.7501 91.5881 35.3101 96.6481 36.2801C101.638 37.2501 103.378 39.4501 103.378 41.0501C103.378 42.6501 100.098 43.9401 96.7681 43.7001C93.4381 43.4601 91.1881 43.2801 90.7681 44.1201C90.3481 44.9601 90.9481 46.2601 95.5781 46.6101C100.208 46.9701 105.558 46.3101 107.218 40.5501C108.878 34.7901 108.938 24.8101 108.348 17.6201C107.758 10.4301 106.458 6.32011 103.238 4.76011C99.8481 3.13011 91.3581 2.86011 83.3381 7.37011C75.3181 11.8801 73.3281 16.4201 73.3281 16.4201Z" fill="#FF2A23"/>
<path d="M89.9408 9.57989C88.9008 8.23989 85.5508 8.2799 83.7608 10.3499C81.8608 12.5499 81.4408 20.9199 83.8808 21.3999C86.6408 21.9399 86.1408 17.4199 88.1608 14.6299C90.1408 11.8999 90.9508 10.8899 89.9408 9.57989Z" fill="#FCC9D2"/>
<path d="M56.3811 16.7101C56.3811 16.7101 45.1511 3.62014 32.3211 3.82014C24.6011 3.94014 22.6411 8.39014 22.2211 10.2301C21.8011 12.0701 18.6011 30.3701 22.8711 40.2801C27.1411 50.1901 36.0011 47.6201 37.3911 47.3001C39.1711 46.8801 42.9611 45.5801 42.6011 44.2101C42.2411 42.8401 29.6511 47.7701 29.5311 42.1301C29.4111 36.4901 38.4411 35.8901 42.6011 35.7701C46.7611 35.6501 53.8911 36.6001 53.8911 36.6001C53.8911 36.6001 52.6411 29.7701 53.4711 24.9001C54.3011 20.0301 56.3811 16.7101 56.3811 16.7101Z" fill="#FF2A23"/>
<path d="M28.8791 8.56985C27.2791 10.2299 26.6191 19.7999 27.6291 24.5499C28.6391 29.2999 29.5291 31.3199 31.6091 30.9099C33.3491 30.5599 34.3991 21.2399 35.2291 17.9599C36.1191 14.4599 38.3191 10.7399 37.4291 9.10985C36.0691 6.60985 30.5491 6.83985 28.8791 8.56985Z" fill="#FCC9D2"/>
</svg>
